<svg width="1018" height="526" viewBox="0 0 1018 526" fill="none" xmlns="http://www.w3.org/2000/svg">
<rect x="1.25" y="1.25" width="1015.5" height="523.5" rx="23.75" fill="#FEECC0" stroke="#E28D3E" stroke-width="2.5"/>
<mask id="mask0_2573_20174" style="mask-type:alpha" maskUnits="userSpaceOnUse" x="3" y="3" width="1012" height="520">
<rect x="3" y="3" width="1012" height="520" rx="25" fill="white"/>
</mask>
<g mask="url(#mask0_2573_20174)">
<path d="M41.4427 755.354C47.0429 770.342 52.7341 785.291 58.6465 800.1H-23V605.778C4.17368 653.217 23.4341 707.152 41.4427 755.354ZM22.0576 385.276C7.3644 381.024 -7.67936 377.611 -23 374.851V456.781C69.1638 512.531 103.97 634.497 136.325 733.616C143.358 755.161 150.531 777.571 158.345 800.099H247.374C238.5 767.588 231.252 735.719 224.028 707.534C192.013 582.627 162.757 425.989 22.0576 385.276ZM178.423 272.349C113.541 253.196 45.0852 247.289 -23 243.442V310.217C23.1392 313.616 68.0132 319.783 110.171 332.217C258.544 375.974 274.98 541.737 300.559 673.534C307.447 709.029 313.853 754.347 324.152 800.099H390.378C375.346 738.286 369.34 672.997 361.933 628.042C339.752 493.438 330.998 317.387 178.423 272.349ZM455.665 437.271C442.499 344.918 429.698 244.395 386.895 160.05C351.17 89.6475 305.112 63.0393 229.787 57.5269C145.972 51.3925 61.3839 59.3944 -22.4055 62.4714C-22.6031 62.4777 -22.8023 62.4855 -23 62.4942V174.698C56.5202 177.795 137.986 180.25 214.198 202.134C366.341 245.822 379.19 435.093 404.163 567.479C415.403 627.062 425.226 722.35 455.003 800.095H534.536C521.658 777.467 512.607 751.782 505.299 727.078C477.532 633.22 469.42 533.747 455.665 437.271ZM672.689 743.044C597.592 732.973 567.248 682.928 553.689 612.385C530.965 494.154 542.358 369.698 538.177 250.035C534.707 150.736 531.414 28.6724 466.15 -52.6361C413.834 -117.815 350.572 -115.943 275.192 -114.073C181.081 -111.737 70.5576 -109.486 -23 -141.925V-30.7968C67.57 -28.7371 161.586 -42.329 246.015 -44.5754C324.148 -46.6539 378.5 -36.0033 424.624 34.5887C480.831 120.611 489.296 234.003 498.551 333.513C509.167 447.651 507.57 566.718 537.141 678.181C551.956 734.028 576.299 782.411 629.121 800.101H743.051C824.547 783.177 903.782 747.036 978.919 800.101H1017.11V731.579C910.244 677.355 788.291 758.545 672.689 743.044ZM710.545 617.633C627.285 605.189 599.335 557.334 596.833 477.342C593.101 358.124 620.97 238.258 628.549 119.591C634.36 28.6308 642.534 -110.01 557.529 -170.567C489.148 -219.281 410.481 -177.993 336.009 -192.574C300.937 -199.442 270.595 -217.101 243.138 -240H76.954C144.74 -196.041 219.486 -165.882 302.358 -160.403C374.46 -155.636 449.709 -175.509 508.313 -120.166C584.076 -48.6195 581.545 85.1328 579.889 180.676C577.852 298.168 558.605 418.133 569.276 535.591C576.309 613 601.857 667.017 684.447 679.383C792.529 695.569 911.201 638.474 1017.11 656.189V593.07C916.646 593.144 807.773 632.163 710.545 617.633ZM835.16 470.927C754.816 454.739 725.252 416.565 720.854 336.132C714.886 227.005 737.581 117.074 740.369 8.09111C742.416 -72.0236 741.516 -183.263 674.281 -240H329.306C340.151 -230.558 352.732 -223.167 367.87 -219.06C448.688 -197.139 531.649 -261.547 613.06 -219.385C708.621 -169.897 697.866 -28.3833 689.503 60.6157C678.223 180.685 643.618 300.819 642.661 421.726C642.033 501.188 672.136 545.999 753.65 558.206C835.32 570.435 928.241 545.452 1017.11 536.832V476.179C955.547 479.064 893.702 482.723 835.16 470.927ZM830.039 215.593C842.841 288.102 876.368 322.804 945.139 348.355C968.691 357.106 992.774 363.661 1017.11 369.059V167.827C992.628 145.425 972.119 119.552 958.552 87.2842C928.402 15.5652 919.581 -63.5072 896.456 -137.481C885.271 -173.267 871.481 -208.913 851.538 -240H759.988C796.464 -189.824 807.369 -120.226 813.071 -60.6451C821.827 30.8395 814.019 124.85 830.039 215.593ZM1017.11 -156.986V-240H960.924C967.439 -231.738 973.754 -223.275 979.868 -214.632C993.067 -195.964 1005.19 -176.546 1017.11 -156.986Z" fill="#FDB36F"/>
</g>
</svg>
