<svg width="207" height="207" viewBox="0 0 207 207" fill="none" xmlns="http://www.w3.org/2000/svg">
<path d="M128.63 26.9024C129.484 26.4309 130.559 26.8078 130.932 27.7096L136.027 40.0434C136.324 40.7614 137.085 41.1715 137.848 41.0247L150.952 38.5027C151.91 38.3182 152.816 39.0087 152.892 39.9816L153.927 53.2864C153.987 54.0609 154.584 54.6861 155.355 54.7822L168.597 56.4331C169.565 56.5538 170.213 57.4903 169.984 58.4389L166.857 71.4124C166.675 72.1676 167.05 72.9466 167.753 73.2762L179.837 78.9385C180.721 79.3525 181.048 80.4433 180.537 81.2749L173.554 92.647C173.148 93.309 173.263 94.1657 173.83 94.6965L183.573 103.816C184.286 104.483 184.259 105.621 183.517 106.254L173.361 114.912C172.77 115.416 172.615 116.266 172.99 116.946L179.439 128.63C179.91 129.484 179.533 130.559 178.631 130.932L166.298 136.027C165.58 136.324 165.169 137.085 165.316 137.848L167.838 150.952C168.023 151.91 167.332 152.816 166.359 152.891L153.055 153.927C152.28 153.987 151.655 154.584 151.559 155.355L149.908 168.597C149.787 169.565 148.851 170.213 147.902 169.984L134.929 166.857C134.173 166.675 133.394 167.05 133.065 167.753L127.402 179.837C126.988 180.721 125.898 181.048 125.066 180.537L113.694 173.554C113.032 173.148 112.175 173.263 111.644 173.83L102.525 183.573C101.858 184.286 100.72 184.259 100.087 183.517L91.4291 173.361C90.9251 172.77 90.0748 172.615 89.3946 172.99L77.7109 179.439C76.8565 179.91 75.7821 179.533 75.4094 178.631L70.3137 166.298C70.017 165.58 69.2562 165.169 68.4933 165.316L55.3888 167.838C54.4306 168.023 53.5252 167.332 53.4495 166.359L52.4145 153.055C52.3542 152.28 51.7573 151.655 50.9865 151.559L37.744 149.908C36.7757 149.787 36.1279 148.851 36.3566 147.902L39.4836 134.929C39.6656 134.173 39.2912 133.394 38.5877 133.065L26.5035 127.402C25.6199 126.988 25.2933 125.898 25.8039 125.066L32.7869 113.694C33.1934 113.032 33.078 112.175 32.5108 111.644L22.7678 102.525C22.0554 101.858 22.0818 100.72 22.8244 100.087L32.9798 91.4291C33.571 90.9251 33.7259 90.0747 33.3506 89.3946L26.9024 77.7108C26.4309 76.8565 26.8078 75.782 27.7097 75.4094L40.0434 70.3136C40.7614 70.017 41.1716 69.2561 41.0248 68.4933L38.5027 55.3888C38.3183 54.4305 39.0088 53.5251 39.9816 53.4494L53.2864 52.4144C54.0609 52.3542 54.6861 51.7573 54.7822 50.9864L56.4331 37.7439C56.5538 36.7756 57.4903 36.1279 58.439 36.3565L71.4124 39.4836C72.1676 39.6656 72.9467 39.2911 73.2763 38.5877L78.9385 26.5035C79.3526 25.6199 80.4434 25.2932 81.2749 25.8038L92.6471 32.7868C93.3091 33.1933 94.1657 33.0779 94.6966 32.5108L103.816 22.7677C104.483 22.0553 105.621 22.0817 106.254 22.8243L114.912 32.9797C115.416 33.5709 116.266 33.7259 116.946 33.3505L128.63 26.9024Z" fill="#326BDE"/>
<path d="M53.6968 73.3229C54.3622 71.426 55.3461 69.8763 56.6487 68.674C57.9758 67.4598 59.513 66.6983 61.2601 66.3893C63.0136 66.0621 64.8388 66.2312 66.7357 66.8966C69.1434 67.7411 70.9409 69.0988 72.1283 70.9696C73.322 72.8222 73.7689 74.9352 73.469 77.3086L67.6961 75.2837C67.6054 74.4325 67.3172 73.7067 66.8314 73.1061C66.3639 72.5119 65.7288 72.0741 64.9262 71.7926C63.6859 71.3575 62.5351 71.4557 61.4738 72.0872C60.4371 72.7068 59.6596 73.7553 59.1414 75.2327C58.6168 76.7284 58.5625 78.0511 58.9786 79.2007C59.4194 80.3386 60.2599 81.125 61.5002 81.5601C62.3028 81.8416 63.0722 81.8964 63.8084 81.7245C64.563 81.5589 65.2414 81.1722 65.8439 80.5641L71.6168 82.5891C70.3685 84.6298 68.6964 86.0097 66.6005 86.7289C64.5111 87.4299 62.2625 87.3582 59.8549 86.5136C57.9579 85.8483 56.4238 84.8492 55.2525 83.5166C54.0876 82.1657 53.363 80.6108 53.0787 78.8519C52.819 77.0811 53.025 75.2381 53.6968 73.3229ZM80.8703 93.9465C79.0645 93.3131 77.5518 92.3114 76.3322 90.9413C75.119 89.553 74.3278 87.9543 73.9587 86.1451C73.6142 84.3241 73.7747 82.4651 74.44 80.5682C75.1054 78.6712 76.1382 77.1285 77.5383 75.9399C78.9631 74.7395 80.5796 73.9853 82.3878 73.6773C84.196 73.3692 86.003 73.5319 87.8087 74.1653C89.6327 74.8051 91.1454 75.8068 92.3468 77.1705C93.5664 78.5406 94.3484 80.1361 94.6929 81.9571C95.0438 83.7599 94.8866 85.6098 94.2212 87.5067C93.5558 89.4037 92.5199 90.9555 91.1133 92.1624C89.7132 93.3509 88.1058 94.1083 86.2912 94.4346C84.483 94.7426 82.676 94.5799 80.8703 93.9465ZM82.6169 88.967C83.9849 89.4469 85.2178 89.3775 86.3156 88.7588C87.4316 88.1466 88.252 87.0926 88.7766 85.5969C89.314 84.0648 89.335 82.7202 88.8395 81.5632C88.3687 80.3943 87.4493 79.5699 86.0813 79.0901C84.6951 78.6039 83.4531 78.6701 82.3552 79.2887C81.2638 79.8891 80.4494 80.9554 79.912 82.4876C79.381 84.0015 79.3509 85.3429 79.8217 86.5117C80.2989 87.6624 81.2307 88.4808 82.6169 88.967ZM122.508 86.6745L115.742 105.963L110.38 104.082L114.113 93.4393L106.741 102.806L102.254 101.232L102.349 89.2209L98.5876 99.946L93.225 98.065L99.9907 78.7763L106.475 81.0508L106.922 95.2802L116.051 84.4097L122.508 86.6745ZM134.581 101.448C135.622 102.1 136.317 102.979 136.667 104.085C137.041 105.179 137.033 106.282 136.643 107.395C136.067 109.037 135.051 110.124 133.593 110.658C132.136 111.191 130.386 111.1 128.343 110.383L118.795 107.034L125.56 87.7452L134.808 90.989C136.778 91.68 138.166 92.6583 138.971 93.9241C139.795 95.1963 139.929 96.6258 139.372 98.2127C138.975 99.3436 138.342 100.187 137.471 100.741C136.625 101.285 135.662 101.52 134.581 101.448ZM128.236 97.287L130.945 98.2371C132.294 98.7105 133.164 98.3909 133.555 97.2783C133.958 96.1292 133.484 95.3179 132.135 94.8445L129.426 93.8944L128.236 97.287ZM128.793 105.686C130.142 106.16 131.016 105.831 131.412 104.7C131.617 104.116 131.591 103.605 131.335 103.167C131.097 102.736 130.65 102.405 129.994 102.174L126.902 101.09L125.674 104.592L128.793 105.686ZM146.331 116.908C144.525 116.274 143.012 115.273 141.793 113.903C140.58 112.514 139.788 110.916 139.419 109.106C139.075 107.285 139.235 105.426 139.901 103.529C140.566 101.632 141.599 100.09 142.999 98.9011C144.424 97.7007 146.04 96.9465 147.848 96.6385C149.657 96.3305 151.464 96.4931 153.269 97.1265C155.093 97.7663 156.606 98.7681 157.807 100.132C159.027 101.502 159.809 103.097 160.154 104.918C160.504 106.721 160.347 108.571 159.682 110.468C159.016 112.365 157.98 113.917 156.574 115.124C155.174 116.312 153.566 117.07 151.752 117.396C149.944 117.704 148.137 117.541 146.331 116.908ZM148.077 111.928C149.445 112.408 150.678 112.339 151.776 111.72C152.892 111.108 153.713 110.054 154.237 108.558C154.775 107.026 154.796 105.681 154.3 104.524C153.829 103.356 152.91 102.531 151.542 102.051C150.156 101.565 148.914 101.631 147.816 102.25C146.724 102.85 145.91 103.917 145.373 105.449C144.842 106.963 144.811 108.304 145.282 109.473C145.76 110.624 146.691 111.442 148.077 111.928ZM54.6006 111.225C52.7948 110.592 51.2821 109.59 50.0625 108.22C48.8493 106.832 48.0581 105.233 47.689 103.424C47.3445 101.603 47.5049 99.744 48.1703 97.8471C48.8357 95.9501 49.8685 94.4073 51.2686 93.2188C52.6934 92.0184 54.3099 91.2641 56.1181 90.9561C57.9263 90.6481 59.7333 90.8108 61.539 91.4442C63.363 92.084 64.8757 93.0857 66.0771 94.4494C67.2967 95.8194 68.0787 97.415 68.4232 99.236C68.7741 101.039 68.6169 102.889 67.9515 104.786C67.2861 106.683 66.2502 108.234 64.8436 109.441C63.4435 110.63 61.8361 111.387 60.0215 111.713C58.2133 112.021 56.4063 111.859 54.6006 111.225ZM56.3472 106.246C57.7152 106.726 58.9481 106.656 60.0459 106.038C61.1619 105.425 61.9823 104.371 62.5069 102.876C63.0443 101.344 63.0653 99.9991 62.5698 98.842C62.099 97.6732 61.1796 96.8488 59.8116 96.369C58.4254 95.8827 57.1833 95.9489 56.0855 96.5676C54.9941 97.168 54.1797 98.2343 53.6423 99.7664C53.1113 101.28 53.0812 102.622 53.552 103.791C54.0292 104.941 54.9609 105.76 56.3472 106.246ZM86.799 100.642L85.3019 104.911L77.5865 102.204L76.3965 105.597L82.0873 107.593L80.6574 111.67L74.9666 109.674L72.3178 117.225L66.9553 115.344L73.721 96.0552L86.799 100.642ZM102.136 106.022L100.638 110.29L92.9229 107.584L91.733 110.976L97.4238 112.973L95.9939 117.049L90.303 115.053L87.6543 122.604L82.2918 120.723L89.0575 101.435L102.136 106.022ZM108.25 112.991L107.146 116.137L113.302 118.296L111.872 122.373L105.716 120.214L104.498 123.688L111.474 126.136L109.968 130.431L97.6283 126.103L104.394 106.814L116.733 111.142L115.227 115.438L108.25 112.991ZM122.385 134.787L121.05 126.329L120.475 126.128L117.98 133.242L112.617 131.361L119.383 112.072L127.837 115.037C129.388 115.581 130.605 116.315 131.489 117.24C132.38 118.146 132.932 119.17 133.147 120.31C133.368 121.432 133.274 122.577 132.864 123.745C132.403 125.058 131.632 126.088 130.551 126.835C129.494 127.571 128.199 127.905 126.666 127.838L128.377 136.888L122.385 134.787ZM121.761 122.462L124.415 123.393C125.145 123.649 125.753 123.667 126.239 123.449C126.725 123.23 127.084 122.792 127.314 122.136C127.531 121.516 127.509 120.965 127.248 120.484C127.011 119.991 126.537 119.62 125.826 119.371L123.172 118.44L121.761 122.462ZM137.916 140.45C135.673 139.663 134.016 138.488 132.946 136.924C131.883 135.343 131.645 133.539 132.233 131.512L137.951 133.518C137.769 134.212 137.797 134.775 138.035 135.206C138.273 135.638 138.665 135.95 139.212 136.142C139.705 136.314 140.148 136.337 140.541 136.208C140.959 136.068 141.245 135.779 141.398 135.341C141.597 134.776 141.486 134.245 141.065 133.75C140.645 133.254 139.91 132.607 138.858 131.808C137.747 130.947 136.866 130.187 136.216 129.529C135.591 128.859 135.118 128.048 134.796 127.095C134.499 126.131 134.565 125.038 134.994 123.816C135.429 122.575 136.11 121.626 137.038 120.968C137.971 120.292 139.065 119.918 140.32 119.846C141.574 119.774 142.894 119.981 144.28 120.467C146.524 121.254 148.126 122.41 149.086 123.935C150.071 125.448 150.277 127.169 149.703 129.098L143.875 127.054C144.061 126.464 144.033 125.962 143.788 125.548C143.562 125.141 143.185 124.845 142.656 124.66C142.255 124.519 141.885 124.522 141.546 124.67C141.208 124.817 140.962 125.11 140.808 125.548C140.68 125.913 140.705 126.28 140.883 126.649C141.085 127.007 141.361 127.36 141.71 127.708C142.065 128.037 142.602 128.492 143.321 129.072C144.396 129.92 145.252 130.691 145.889 131.386C146.551 132.069 147.033 132.883 147.336 133.829C147.664 134.764 147.63 135.796 147.233 136.927C146.83 138.076 146.177 139.004 145.273 139.712C144.388 140.425 143.305 140.855 142.025 141C140.763 141.151 139.394 140.968 137.916 140.45Z" fill="white"/>
</svg>
