<svg width="617" height="219" viewBox="0 0 617 219" fill="none" xmlns="http://www.w3.org/2000/svg">
<path d="M149.825 5.21094V2.71094H147.325H5.76172H3.26172V5.21094V214.003V216.503H5.76172H63.8087H66.3087V214.003V134.763H125.41H127.91V132.263V88.1353V85.6353H125.41H66.3087V53.9116H147.325H149.825V51.4116V5.21094ZM297.178 169.579V167.079H294.678H232.319V5.21094V2.71094H229.819H171.772H169.272V5.21094V214.003V216.503H171.772H294.678H297.178V214.003V169.579ZM377.796 5.21094V2.71094H375.296H317.248H314.748V5.21094V214.003V216.503H317.248H375.296H377.796V214.003V5.21094ZM536.898 215.42L537.644 216.503H538.958H607.37H612.127L609.429 212.585L538.994 110.293L605.037 6.55351L607.483 2.71094H602.928H536.885H535.454L534.729 3.94436L502.96 58.0075L465.795 3.79732L465.051 2.71094H463.733H395.321H390.563L393.262 6.62929L462.514 107.146L395.579 212.663L393.144 216.503H397.69H463.733H465.164L465.889 215.27L498.55 159.717L536.898 215.42Z" fill="white" stroke="white" stroke-width="5"/>
</svg>
