<svg width="180" height="29" viewBox="0 0 180 29" fill="none" xmlns="http://www.w3.org/2000/svg">
<path d="M0.245324 28V2.21461H17.3181V6.70943H5.69702V12.8536H16.1849V17.3484H5.69702V28H0.245324ZM26.2479 2.21461V28H20.8843V2.21461H26.2479ZM30.5444 28V8.66096H35.908V28H30.5444ZM33.2388 6.16804C32.4414 6.16804 31.7573 5.90364 31.1865 5.37483C30.6242 4.83764 30.343 4.19552 30.343 3.44848C30.343 2.70984 30.6242 2.07612 31.1865 1.54732C31.7573 1.01012 32.4414 0.741521 33.2388 0.741521C34.0362 0.741521 34.7161 1.01012 35.2784 1.54732C35.8492 2.07612 36.1346 2.70984 36.1346 3.44848C36.1346 4.19552 35.8492 4.83764 35.2784 5.37483C34.7161 5.90364 34.0362 6.16804 33.2388 6.16804ZM44.6867 8.66096L48.2372 15.4221L51.8759 8.66096H57.378L51.7752 18.3305L57.529 28H52.0522L48.2372 21.3144L44.4853 28H38.9454L44.6867 18.3305L39.1469 8.66096H44.6867ZM74.6522 9.63043C74.5514 8.61479 74.1192 7.82579 73.3553 7.26341C72.5915 6.70103 71.5549 6.41985 70.2455 6.41985C69.3557 6.41985 68.6045 6.54575 67.9918 6.79756C67.379 7.04098 66.909 7.38092 66.5816 7.81739C66.2627 8.25387 66.1032 8.74909 66.1032 9.30308C66.0864 9.76473 66.1829 10.1676 66.3928 10.5118C66.611 10.8559 66.909 11.1539 67.2867 11.4057C67.6644 11.6491 68.1009 11.8631 68.5961 12.0478C69.0913 12.2241 69.6201 12.3752 70.1825 12.5011L72.4992 13.0551C73.6239 13.3069 74.6564 13.6426 75.5964 14.0623C76.5365 14.482 77.3507 14.9982 78.039 15.6109C78.7273 16.2237 79.2603 16.9455 79.638 17.7765C80.0241 18.6075 80.2214 19.5602 80.2298 20.6345C80.2214 22.2126 79.8185 23.5807 79.0211 24.7391C78.2321 25.889 77.0905 26.7829 75.5964 27.4208C74.1108 28.0504 72.3187 28.3651 70.2203 28.3651C68.1387 28.3651 66.3256 28.0462 64.7812 27.4082C63.2451 26.7703 62.0448 25.826 61.1803 24.5754C60.3241 23.3163 59.8751 21.7593 59.8331 19.9043H65.1085C65.1673 20.7688 65.4149 21.4907 65.8514 22.0699C66.2962 22.6406 66.888 23.0729 67.6266 23.3667C68.3737 23.6521 69.2172 23.7948 70.1573 23.7948C71.0806 23.7948 71.8822 23.6605 72.5621 23.3919C73.2504 23.1233 73.7834 22.7498 74.1611 22.2713C74.5388 21.7929 74.7277 21.2431 74.7277 20.622C74.7277 20.0428 74.5556 19.556 74.2115 19.1615C73.8757 18.767 73.3805 18.4312 72.7258 18.1542C72.0795 17.8772 71.2863 17.6254 70.3462 17.3988L67.5385 16.6937C65.3645 16.1649 63.648 15.3381 62.389 14.2134C61.1299 13.0886 60.5046 11.5736 60.513 9.6682C60.5046 8.10698 60.9201 6.743 61.7595 5.57628C62.6072 4.40956 63.7697 3.49885 65.247 2.84414C66.7243 2.18943 68.4031 1.86208 70.2832 1.86208C72.197 1.86208 73.8673 2.18943 75.2943 2.84414C76.7296 3.49885 77.846 4.40956 78.6433 5.57628C79.4408 6.743 79.852 8.09439 79.8772 9.63043H74.6522ZM94.0825 8.66096V12.6899H82.4362V8.66096H94.0825ZM85.0803 4.02765H90.4438V22.0573C90.4438 22.5525 90.5194 22.9386 90.6704 23.2156C90.8215 23.4842 91.0314 23.6731 91.3 23.7822C91.577 23.8913 91.8959 23.9459 92.2569 23.9459C92.5087 23.9459 92.7605 23.9249 93.0123 23.8829C93.2641 23.8325 93.4571 23.7948 93.5914 23.7696L94.435 27.7608C94.1664 27.8447 93.7887 27.9412 93.3019 28.0504C92.815 28.1679 92.2233 28.2392 91.5266 28.2644C90.234 28.3148 89.1008 28.1427 88.1272 27.7482C87.1619 27.3537 86.4107 26.7409 85.8735 25.91C85.3363 25.079 85.0719 24.0298 85.0803 22.7623V4.02765ZM109.978 19.7658V8.66096H115.342V28H110.192V24.4872H109.991C109.554 25.6204 108.828 26.5311 107.812 27.2194C106.805 27.9077 105.576 28.2518 104.123 28.2518C102.831 28.2518 101.693 27.958 100.711 27.3705C99.7293 26.7829 98.9613 25.9477 98.4073 24.865C97.8617 23.7822 97.5847 22.4854 97.5763 20.9745V8.66096H102.94V20.0176C102.948 21.1592 103.255 22.0615 103.859 22.7246C104.463 23.3877 105.273 23.7192 106.289 23.7192C106.935 23.7192 107.54 23.5723 108.102 23.2786C108.664 22.9764 109.118 22.5315 109.462 21.944C109.814 21.3564 109.986 20.6303 109.978 19.7658ZM126.758 28.3148C125.289 28.3148 123.959 27.937 122.767 27.1816C121.583 26.4178 120.643 25.2972 119.947 23.8199C119.258 22.3343 118.914 20.5128 118.914 18.3557C118.914 16.1397 119.271 14.2973 119.984 12.8284C120.698 11.3511 121.646 10.2474 122.83 9.51712C124.022 8.77847 125.327 8.40915 126.745 8.40915C127.828 8.40915 128.731 8.59381 129.452 8.96313C130.183 9.32406 130.77 9.77732 131.215 10.3229C131.668 10.8601 132.012 11.3889 132.247 11.9093H132.411V2.21461H137.762V28H132.474V24.9027H132.247C131.996 25.4399 131.639 25.9729 131.177 26.5017C130.724 27.0221 130.132 27.4544 129.402 27.7986C128.68 28.1427 127.799 28.3148 126.758 28.3148ZM128.458 24.0466C129.322 24.0466 130.053 23.8116 130.648 23.3415C131.253 22.8631 131.714 22.1958 132.033 21.3396C132.361 20.4835 132.524 19.4804 132.524 18.3305C132.524 17.1805 132.365 16.1817 132.046 15.3339C131.727 14.4862 131.265 13.8315 130.661 13.3698C130.057 12.9082 129.322 12.6773 128.458 12.6773C127.576 12.6773 126.834 12.9166 126.229 13.395C125.625 13.8734 125.167 14.5365 124.857 15.3843C124.546 16.2321 124.391 17.2141 124.391 18.3305C124.391 19.4552 124.546 20.4499 124.857 21.3144C125.176 22.1706 125.633 22.8421 126.229 23.3289C126.834 23.8074 127.576 24.0466 128.458 24.0466ZM142.172 28V8.66096H147.536V28H142.172ZM144.866 6.16804C144.069 6.16804 143.385 5.90364 142.814 5.37483C142.252 4.83764 141.971 4.19552 141.971 3.44848C141.971 2.70984 142.252 2.07612 142.814 1.54732C143.385 1.01012 144.069 0.741521 144.866 0.741521C145.664 0.741521 146.344 1.01012 146.906 1.54732C147.477 2.07612 147.762 2.70984 147.762 3.44848C147.762 4.19552 147.477 4.83764 146.906 5.37483C146.344 5.90364 145.664 6.16804 144.866 6.16804ZM160.57 28.3777C158.614 28.3777 156.923 27.9622 155.496 27.1313C154.077 26.2919 152.982 25.1252 152.21 23.6311C151.438 22.1286 151.051 20.3869 151.051 18.406C151.051 16.4083 151.438 14.6624 152.21 13.1684C152.982 11.6659 154.077 10.4992 155.496 9.6682C156.923 8.82883 158.614 8.40915 160.57 8.40915C162.526 8.40915 164.213 8.82883 165.631 9.6682C167.058 10.4992 168.158 11.6659 168.93 13.1684C169.702 14.6624 170.088 16.4083 170.088 18.406C170.088 20.3869 169.702 22.1286 168.93 23.6311C168.158 25.1252 167.058 26.2919 165.631 27.1313C164.213 27.9622 162.526 28.3777 160.57 28.3777ZM160.595 24.2228C161.485 24.2228 162.228 23.971 162.824 23.4674C163.42 22.9554 163.869 22.2587 164.171 21.3774C164.481 20.496 164.637 19.493 164.637 18.3683C164.637 17.2435 164.481 16.2405 164.171 15.3591C163.869 14.4778 163.42 13.7811 162.824 13.2691C162.228 12.7571 161.485 12.5011 160.595 12.5011C159.697 12.5011 158.941 12.7571 158.329 13.2691C157.724 13.7811 157.267 14.4778 156.956 15.3591C156.654 16.2405 156.503 17.2435 156.503 18.3683C156.503 19.493 156.654 20.496 156.956 21.3774C157.267 22.2587 157.724 22.9554 158.329 23.4674C158.941 23.971 159.697 24.2228 160.595 24.2228Z" fill="black"/>
<path d="M176.711 28.3274C175.88 28.3274 175.166 28.0336 174.571 27.446C173.983 26.8501 173.689 26.1366 173.689 25.3056C173.689 24.483 173.983 23.778 174.571 23.1904C175.166 22.6029 175.88 22.3091 176.711 22.3091C177.517 22.3091 178.222 22.6029 178.826 23.1904C179.43 23.778 179.733 24.483 179.733 25.3056C179.733 25.8596 179.59 26.3674 179.305 26.8291C179.028 27.2823 178.662 27.6475 178.209 27.9245C177.756 28.1931 177.257 28.3274 176.711 28.3274Z" fill="#D46633"/>
</svg>
