<svg width="176" height="156" viewBox="0 0 176 156" fill="none" xmlns="http://www.w3.org/2000/svg">
<mask id="path-1-inside-1_2564_19391" fill="white">
<path fill-rule="evenodd" clip-rule="evenodd" d="M153.176 73.7595C153.249 74.9326 151.039 75.9893 150.847 77.1454C150.657 78.2819 152.416 79.9777 151.982 81.0904C151.568 82.1499 149.113 82.2433 148.489 83.278C147.9 84.2478 148.991 86.442 148.23 87.3814C147.515 88.2604 145.126 87.6754 144.266 88.5236C143.457 89.3208 144.031 91.7064 143.104 92.471C142.224 93.1936 139.981 92.1839 138.998 92.8762C138.064 93.533 138.272 95.9793 137.249 96.6048C136.273 97.2068 134.179 95.9129 133.124 96.4798C132.114 97.0233 132.048 99.4791 130.971 99.9922C129.933 100.49 127.977 98.9979 126.88 99.4635C125.825 99.9124 125.537 102.353 124.424 102.773C123.345 103.18 121.515 101.539 120.389 101.917C119.294 102.285 118.829 104.699 117.695 105.038C116.586 105.368 114.874 103.604 113.729 103.906C112.609 104.201 111.991 106.578 110.837 106.844C109.708 107.105 108.108 105.239 106.948 105.47C105.811 105.698 105.049 108.035 103.888 108.234C102.743 108.429 101.253 106.475 100.083 106.641C98.933 106.805 98.0478 109.097 96.8762 109.232C95.7207 109.364 94.3371 107.333 93.1625 107.437C91.9879 107.54 90.9976 109.782 89.8211 109.855C88.6446 109.929 87.3693 107.828 86.2061 107.87C85.0428 107.913 83.9072 110.101 82.7453 110.112C81.565 110.124 80.4016 107.959 79.2399 107.94C78.0587 107.92 76.8224 110.039 75.6623 109.993C74.4822 109.94 73.4398 107.716 72.2827 107.631C71.1038 107.545 69.7473 109.595 68.5946 109.477C67.4169 109.356 66.5084 107.074 65.36 106.92C64.1853 106.763 62.7063 108.726 61.5654 108.536C60.3949 108.34 59.6358 106.003 58.5033 105.774C57.3401 105.539 55.7275 107.394 54.6065 107.124C53.4503 106.845 52.8659 104.46 51.7584 104.145C50.6123 103.82 48.8559 105.54 47.7649 105.178C46.6319 104.801 46.2616 102.374 45.1912 101.96C44.0753 101.529 42.1581 103.068 41.1134 102.596C40.0208 102.103 39.9229 99.6485 38.9143 99.1128C37.853 98.549 35.7528 99.8294 34.7906 99.2215C33.7751 98.5769 34.0445 96.1388 33.1465 95.4479C32.1873 94.7143 29.8896 95.5903 29.0714 94.8067C28.1989 93.9692 29.0059 91.6567 28.3037 90.7685C27.5565 89.8214 25.1089 90.0313 24.5664 89.0304C23.9983 87.9834 25.533 86.079 25.203 84.975C24.8675 83.8529 22.5441 83.0841 22.4706 81.9056C22.397 80.7272 24.6069 79.6759 24.8003 78.5197C24.9905 77.3833 23.2312 75.6875 23.6656 74.5747C24.0784 73.5142 26.5344 73.4218 27.1579 72.386C27.7476 71.4173 26.6549 69.2221 27.4177 68.2838C28.1322 67.4047 30.5199 67.9887 31.3805 67.1416C32.19 66.3443 31.6153 63.9588 32.5427 63.1931C33.4219 62.4705 35.664 63.4803 36.648 62.789C37.5822 62.1322 37.3744 59.6859 38.3972 59.0604C39.3728 58.4584 41.4667 59.7523 42.5225 59.1854C43.5331 58.6418 43.5988 56.1861 44.6763 55.673C45.7137 55.1754 47.6705 56.6673 48.7672 56.2017C49.8282 55.7524 50.1104 53.3124 51.223 52.8923C52.3017 52.4842 54.1324 54.1257 55.2584 53.747C56.3526 53.379 56.8186 50.9665 57.9525 50.6274C59.061 50.2975 60.7725 52.0612 61.9184 51.7592C63.0378 51.4643 63.6566 49.0867 64.8092 48.8211C65.9393 48.5602 67.5391 50.4261 68.6981 50.1947C69.8357 49.9669 70.5968 47.6291 71.759 47.4311C72.903 47.2364 74.3945 49.1903 75.563 49.0233C76.7133 48.8596 77.5997 46.5681 78.7713 46.4334C79.9428 46.2987 81.3104 48.3317 82.4849 48.2271C83.6434 48.1257 84.6498 45.883 85.8253 45.8098C87.0007 45.7365 88.2781 47.8368 89.4402 47.7936C90.6024 47.7504 91.7391 45.5646 92.9021 45.5527C94.0825 45.5408 95.2457 47.7046 96.4075 47.7242C97.5876 47.7448 98.825 45.6252 99.9841 45.672C101.165 45.724 102.208 47.9493 103.365 48.0342C104.544 48.1198 105.899 46.0697 107.053 46.1883C108.23 46.3087 109.139 48.5911 110.287 48.7447C111.461 48.9021 112.941 46.9394 114.082 47.1292C115.253 47.3247 116.011 49.6609 117.143 49.8901C118.307 50.1261 119.919 48.27 121.041 48.541C122.197 48.8196 122.78 51.2057 123.889 51.5198C125.035 51.8456 126.791 50.1244 127.882 50.4872C129.015 50.8625 129.386 53.2911 130.456 53.705C131.572 54.1366 133.489 52.597 134.534 53.0687C135.627 53.5624 135.726 56.0166 136.734 56.5523C137.796 57.1161 139.895 55.8357 140.858 56.4435C141.873 57.0881 141.604 59.5263 142.502 60.2161C143.461 60.9508 145.759 60.0737 146.577 60.8583C147.45 61.6948 146.641 64.0074 147.344 64.8966C148.092 65.8426 150.54 65.6337 151.081 66.6348C151.65 67.6817 150.115 69.585 150.445 70.689C150.779 71.8123 153.103 72.5865 153.176 73.7595Z"/>
</mask>
<path fill-rule="evenodd" clip-rule="evenodd" d="M153.176 73.7595C153.249 74.9326 151.039 75.9893 150.847 77.1454C150.657 78.2819 152.416 79.9777 151.982 81.0904C151.568 82.1499 149.113 82.2433 148.489 83.278C147.9 84.2478 148.991 86.442 148.23 87.3814C147.515 88.2604 145.126 87.6754 144.266 88.5236C143.457 89.3208 144.031 91.7064 143.104 92.471C142.224 93.1936 139.981 92.1839 138.998 92.8762C138.064 93.533 138.272 95.9793 137.249 96.6048C136.273 97.2068 134.179 95.9129 133.124 96.4798C132.114 97.0233 132.048 99.4791 130.971 99.9922C129.933 100.49 127.977 98.9979 126.88 99.4635C125.825 99.9124 125.537 102.353 124.424 102.773C123.345 103.18 121.515 101.539 120.389 101.917C119.294 102.285 118.829 104.699 117.695 105.038C116.586 105.368 114.874 103.604 113.729 103.906C112.609 104.201 111.991 106.578 110.837 106.844C109.708 107.105 108.108 105.239 106.948 105.47C105.811 105.698 105.049 108.035 103.888 108.234C102.743 108.429 101.253 106.475 100.083 106.641C98.933 106.805 98.0478 109.097 96.8762 109.232C95.7207 109.364 94.3371 107.333 93.1625 107.437C91.9879 107.54 90.9976 109.782 89.8211 109.855C88.6446 109.929 87.3693 107.828 86.2061 107.87C85.0428 107.913 83.9072 110.101 82.7453 110.112C81.565 110.124 80.4016 107.959 79.2399 107.94C78.0587 107.92 76.8224 110.039 75.6623 109.993C74.4822 109.94 73.4398 107.716 72.2827 107.631C71.1038 107.545 69.7473 109.595 68.5946 109.477C67.4169 109.356 66.5084 107.074 65.36 106.92C64.1853 106.763 62.7063 108.726 61.5654 108.536C60.3949 108.34 59.6358 106.003 58.5033 105.774C57.3401 105.539 55.7275 107.394 54.6065 107.124C53.4503 106.845 52.8659 104.46 51.7584 104.145C50.6123 103.82 48.8559 105.54 47.7649 105.178C46.6319 104.801 46.2616 102.374 45.1912 101.96C44.0753 101.529 42.1581 103.068 41.1134 102.596C40.0208 102.103 39.9229 99.6485 38.9143 99.1128C37.853 98.549 35.7528 99.8294 34.7906 99.2215C33.7751 98.5769 34.0445 96.1388 33.1465 95.4479C32.1873 94.7143 29.8896 95.5903 29.0714 94.8067C28.1989 93.9692 29.0059 91.6567 28.3037 90.7685C27.5565 89.8214 25.1089 90.0313 24.5664 89.0304C23.9983 87.9834 25.533 86.079 25.203 84.975C24.8675 83.8529 22.5441 83.0841 22.4706 81.9056C22.397 80.7272 24.6069 79.6759 24.8003 78.5197C24.9905 77.3833 23.2312 75.6875 23.6656 74.5747C24.0784 73.5142 26.5344 73.4218 27.1579 72.386C27.7476 71.4173 26.6549 69.2221 27.4177 68.2838C28.1322 67.4047 30.5199 67.9887 31.3805 67.1416C32.19 66.3443 31.6153 63.9588 32.5427 63.1931C33.4219 62.4705 35.664 63.4803 36.648 62.789C37.5822 62.1322 37.3744 59.6859 38.3972 59.0604C39.3728 58.4584 41.4667 59.7523 42.5225 59.1854C43.5331 58.6418 43.5988 56.1861 44.6763 55.673C45.7137 55.1754 47.6705 56.6673 48.7672 56.2017C49.8282 55.7524 50.1104 53.3124 51.223 52.8923C52.3017 52.4842 54.1324 54.1257 55.2584 53.747C56.3526 53.379 56.8186 50.9665 57.9525 50.6274C59.061 50.2975 60.7725 52.0612 61.9184 51.7592C63.0378 51.4643 63.6566 49.0867 64.8092 48.8211C65.9393 48.5602 67.5391 50.4261 68.6981 50.1947C69.8357 49.9669 70.5968 47.6291 71.759 47.4311C72.903 47.2364 74.3945 49.1903 75.563 49.0233C76.7133 48.8596 77.5997 46.5681 78.7713 46.4334C79.9428 46.2987 81.3104 48.3317 82.4849 48.2271C83.6434 48.1257 84.6498 45.883 85.8253 45.8098C87.0007 45.7365 88.2781 47.8368 89.4402 47.7936C90.6024 47.7504 91.7391 45.5646 92.9021 45.5527C94.0825 45.5408 95.2457 47.7046 96.4075 47.7242C97.5876 47.7448 98.825 45.6252 99.9841 45.672C101.165 45.724 102.208 47.9493 103.365 48.0342C104.544 48.1198 105.899 46.0697 107.053 46.1883C108.23 46.3087 109.139 48.5911 110.287 48.7447C111.461 48.9021 112.941 46.9394 114.082 47.1292C115.253 47.3247 116.011 49.6609 117.143 49.8901C118.307 50.1261 119.919 48.27 121.041 48.541C122.197 48.8196 122.78 51.2057 123.889 51.5198C125.035 51.8456 126.791 50.1244 127.882 50.4872C129.015 50.8625 129.386 53.2911 130.456 53.705C131.572 54.1366 133.489 52.597 134.534 53.0687C135.627 53.5624 135.726 56.0166 136.734 56.5523C137.796 57.1161 139.895 55.8357 140.858 56.4435C141.873 57.0881 141.604 59.5263 142.502 60.2161C143.461 60.9508 145.759 60.0737 146.577 60.8583C147.45 61.6948 146.641 64.0074 147.344 64.8966C148.092 65.8426 150.54 65.6337 151.081 66.6348C151.65 67.6817 150.115 69.585 150.445 70.689C150.779 71.8123 153.103 72.5865 153.176 73.7595Z" fill="#845CC2"/>
<path d="M150.847 77.1454L152.82 77.4755L152.82 77.4734L150.847 77.1454ZM151.982 81.0904L153.845 81.818L153.845 81.8175L151.982 81.0904ZM148.489 83.278L150.199 84.3167L150.203 84.31L148.489 83.278ZM148.23 87.3814L149.782 88.6425L149.784 88.6406L148.23 87.3814ZM144.266 88.5236L142.862 87.0995L142.861 87.0999L144.266 88.5236ZM143.104 92.471L144.374 94.0157L144.376 94.0139L143.104 92.471ZM138.998 92.8762L140.149 94.512L140.15 94.511L138.998 92.8762ZM137.249 96.6048L136.205 94.8989L136.199 94.9026L137.249 96.6048ZM133.124 96.4798L132.177 94.7185L132.175 94.7191L133.124 96.4798ZM130.971 99.9922L130.11 98.187L130.106 98.1889L130.971 99.9922ZM126.88 99.4635L126.098 97.6228L126.097 97.6233L126.88 99.4635ZM124.424 102.773L125.13 104.644L125.131 104.644L124.424 102.773ZM120.389 101.917L119.753 100.021L119.752 100.021L120.389 101.917ZM117.695 105.038L118.266 106.954L118.268 106.954L117.695 105.038ZM113.729 103.906L114.238 105.84L114.239 105.839L113.729 103.906ZM110.837 106.844L110.388 104.895L110.387 104.896L110.837 106.844ZM106.948 105.47L106.557 103.509L106.555 103.51L106.948 105.47ZM103.888 108.234L104.224 110.205L104.226 110.205L103.888 108.234ZM100.083 106.641L99.8021 104.661L99.8013 104.661L100.083 106.641ZM96.8762 109.232L97.1044 111.218L97.1048 111.218L96.8762 109.232ZM82.7453 110.112L82.7655 112.112L82.7657 112.112L82.7453 110.112ZM79.2399 107.94L79.2736 105.94L79.2728 105.94L79.2399 107.94ZM75.6623 109.993L75.5724 111.991L75.5836 111.991L75.6623 109.993ZM72.2827 107.631L72.4289 105.637L72.4276 105.636L72.2827 107.631ZM68.5946 109.477L68.7994 107.488L68.7979 107.487L68.5946 109.477ZM65.36 106.92L65.0944 108.902L65.0948 108.903L65.36 106.92ZM61.5654 108.536L61.2359 110.508L61.2372 110.509L61.5654 108.536ZM58.5033 105.774L58.9002 103.814L58.8993 103.814L58.5033 105.774ZM54.6065 107.124L54.1378 109.068L54.1381 109.068L54.6065 107.124ZM51.7584 104.145L51.2114 106.069L51.2125 106.069L51.7584 104.145ZM47.7649 105.178L47.1342 107.076L47.1353 107.076L47.7649 105.178ZM45.1912 101.96L44.4695 103.825L44.4697 103.825L45.1912 101.96ZM41.1134 102.596L40.2897 104.419L40.2901 104.419L41.1134 102.596ZM38.9143 99.1128L37.9757 100.879L37.9759 100.879L38.9143 99.1128ZM34.7906 99.2215L33.7184 100.91L33.7221 100.912L34.7906 99.2215ZM33.1465 95.4479L34.3664 93.8631L34.3619 93.8596L33.1465 95.4479ZM29.0714 94.8067L27.6861 96.2492L27.6878 96.2508L29.0714 94.8067ZM28.3037 90.7685L26.7331 92.0068L26.7345 92.0086L28.3037 90.7685ZM24.5664 89.0304L26.3251 88.0778L26.3247 88.0769L24.5664 89.0304ZM25.203 84.975L27.1195 84.4025L27.1195 84.4024L25.203 84.975ZM24.8003 78.5197L22.8274 78.1896L22.8274 78.1899L24.8003 78.5197ZM23.6656 74.5747L25.529 75.3019L25.5297 75.3L23.6656 74.5747ZM27.1579 72.386L25.4491 71.3464L25.444 71.3549L27.1579 72.386ZM27.4177 68.2838L28.97 69.545L28.9701 69.5449L27.4177 68.2838ZM31.3805 67.1416L32.7838 68.5667L32.7843 68.5662L31.3805 67.1416ZM32.5427 63.1931L31.2724 61.6484L31.269 61.6512L32.5427 63.1931ZM36.648 62.789L37.7981 64.4252L37.7987 64.4248L36.648 62.789ZM38.3972 59.0604L39.441 60.7663L39.4479 60.7621L38.3972 59.0604ZM42.5225 59.1854L43.4691 60.9471L43.4702 60.9464L42.5225 59.1854ZM44.6763 55.673L45.5365 57.4784L45.5417 57.4759L44.6763 55.673ZM48.7672 56.2017L47.987 54.3603L47.9854 54.361L48.7672 56.2017ZM51.223 52.8923L51.9297 54.7631L51.9312 54.7626L51.223 52.8923ZM55.2584 53.747L55.8962 55.6424L55.8963 55.6424L55.2584 53.747ZM57.9525 50.6274L57.3817 48.7108L57.3792 48.7116L57.9525 50.6274ZM61.9184 51.7592L61.4087 49.8255L61.4086 49.8255L61.9184 51.7592ZM64.8092 48.8211L65.2585 50.7698L65.2594 50.7696L64.8092 48.8211ZM68.6981 50.1947L69.0898 52.1558L69.0911 52.1555L68.6981 50.1947ZM71.759 47.4311L71.4233 45.4597L71.4229 45.4598L71.759 47.4311ZM75.563 49.0233L75.281 47.0435L75.2799 47.0437L75.563 49.0233ZM82.4849 48.2271L82.3103 46.235L82.3074 46.2353L82.4849 48.2271ZM92.9021 45.5527L92.8819 43.5531L92.8816 43.5531L92.9021 45.5527ZM96.4075 47.7242L96.4423 45.7248L96.4411 45.7247L96.4075 47.7242ZM99.9841 45.672L100.072 43.6742L100.065 43.6739L99.9841 45.672ZM103.365 48.0342L103.219 50.0286L103.22 50.0287L103.365 48.0342ZM107.053 46.1883L106.848 48.1776L106.849 48.1776L107.053 46.1883ZM110.287 48.7447L110.553 46.7627L110.553 46.7626L110.287 48.7447ZM114.082 47.1292L114.412 45.1568L114.41 45.1566L114.082 47.1292ZM117.143 49.8901L117.54 47.9302L117.54 47.9302L117.143 49.8901ZM121.041 48.541L120.571 50.4848L120.572 50.485L121.041 48.541ZM123.889 51.5198L124.436 49.5963L124.434 49.5958L123.889 51.5198ZM127.882 50.4872L127.251 52.3847L127.253 52.3854L127.882 50.4872ZM130.456 53.705L131.178 51.84L131.178 51.8399L130.456 53.705ZM134.534 53.0687L135.358 51.2465L135.357 51.2463L134.534 53.0687ZM136.734 56.5523L137.673 54.7864L137.673 54.7863L136.734 56.5523ZM140.858 56.4435L141.93 54.7554L141.926 54.7525L140.858 56.4435ZM142.502 60.2161L141.283 61.8017L141.286 61.8035L142.502 60.2161ZM146.577 60.8583L145.193 62.3015L145.193 62.3016L146.577 60.8583ZM147.344 64.8966L145.774 66.1359L145.775 66.1369L147.344 64.8966ZM151.081 66.6348L149.321 67.5858L149.324 67.5897L151.081 66.6348ZM150.445 70.689L152.363 70.1202L152.362 70.1165L150.445 70.689ZM151.179 73.884C151.157 73.5177 151.322 73.3454 151.238 73.465C151.156 73.5801 151.006 73.7417 150.712 74.03C150.47 74.2669 150.081 74.635 149.765 75.0144C149.46 75.3807 149.01 75.9985 148.874 76.8173L152.82 77.4734C152.78 77.7142 152.679 77.7664 152.84 77.5727C152.99 77.3922 153.185 77.2061 153.51 76.8877C153.783 76.6207 154.184 76.2259 154.502 75.7768C154.817 75.3322 155.232 74.5879 155.172 73.6351L151.179 73.884ZM148.874 76.8153C148.736 77.6403 148.971 78.3733 149.142 78.8125C149.321 79.2691 149.573 79.7405 149.726 80.0394C149.913 80.4037 150.005 80.606 150.047 80.7436C150.089 80.8847 149.993 80.6858 150.118 80.3632L153.845 81.8175C154.188 80.9386 154.035 80.1105 153.876 79.5852C153.715 79.0563 153.461 78.555 153.286 78.2142C153.077 77.8079 152.953 77.5728 152.868 77.357C152.777 77.1239 152.863 77.2187 152.82 77.4755L148.874 76.8153ZM150.119 80.3628C150.257 80.0075 150.488 79.9206 150.341 80.0065C150.206 80.0851 149.995 80.1742 149.598 80.3265C149.268 80.4531 148.761 80.6408 148.308 80.8795C147.867 81.1115 147.212 81.5222 146.776 82.246L150.203 84.31C150.078 84.5165 149.964 84.5275 150.172 84.4179C150.368 84.3149 150.618 84.219 151.031 84.0606C151.377 83.9277 151.896 83.7301 152.357 83.4608C152.806 83.1989 153.499 82.703 153.845 81.818L150.119 80.3628ZM146.78 82.2393C146.332 82.9758 146.297 83.764 146.307 84.2382C146.318 84.7337 146.396 85.2649 146.441 85.6028C146.495 86.0127 146.516 86.2434 146.51 86.4011C146.504 86.5644 146.474 86.371 146.676 86.1221L149.784 88.6406C150.366 87.9221 150.486 87.1021 150.507 86.5595C150.529 86.0113 150.457 85.4567 150.407 85.0794C150.348 84.6301 150.312 84.3722 150.307 84.1542C150.302 83.9148 150.352 84.0651 150.199 84.3167L146.78 82.2393ZM146.677 86.1203C146.909 85.835 147.14 85.824 146.958 85.8681C146.793 85.9081 146.557 85.9343 146.128 85.972C145.769 86.0035 145.227 86.0462 144.719 86.1577C144.225 86.2661 143.475 86.4952 142.862 87.0995L145.67 89.9476C145.487 90.1279 145.359 90.112 145.577 90.0641C145.781 90.0193 146.042 89.9943 146.477 89.9561C146.842 89.9242 147.391 89.8788 147.902 89.7547C148.396 89.6348 149.193 89.3672 149.782 88.6425L146.677 86.1203ZM142.861 87.0999C142.238 87.7139 142.018 88.4809 141.918 88.9508C141.813 89.4417 141.77 89.9788 141.738 90.3244C141.699 90.7411 141.669 90.9779 141.627 91.1409C141.582 91.3127 141.59 91.127 141.831 90.9281L144.376 94.0139C145.081 93.4327 145.365 92.662 145.499 92.1466C145.635 91.6224 145.686 91.0695 145.721 90.6946C145.762 90.2486 145.786 89.992 145.83 89.7875C145.878 89.562 145.889 89.7318 145.671 89.9472L142.861 87.0999ZM141.833 90.9263C142.107 90.7015 142.322 90.7348 142.128 90.7447C141.952 90.7536 141.711 90.7353 141.279 90.6943C140.918 90.6599 140.376 90.604 139.854 90.6242C139.345 90.6438 138.559 90.7395 137.846 91.2414L140.15 94.511C139.929 94.6668 139.792 94.629 140.008 94.6207C140.21 94.6129 140.468 94.6345 140.9 94.6757C141.262 94.7102 141.808 94.7656 142.331 94.739C142.835 94.7133 143.661 94.6018 144.374 94.0157L141.833 90.9263ZM137.848 91.2404C137.126 91.7478 136.784 92.4742 136.608 92.9283C136.426 93.4015 136.301 93.9277 136.216 94.268C136.114 94.6774 136.049 94.91 135.981 95.0699C135.909 95.2392 135.941 95.0603 136.205 94.8989L138.293 98.3107C139.068 97.8365 139.458 97.1173 139.664 96.6314C139.874 96.1361 140.007 95.5989 140.098 95.2364C140.205 94.8048 140.268 94.5573 140.341 94.3675C140.422 94.1586 140.404 94.333 140.149 94.512L137.848 91.2404ZM136.199 94.9026C136.493 94.7215 136.694 94.7815 136.499 94.7661C136.321 94.752 136.084 94.7023 135.661 94.6059C135.307 94.5252 134.776 94.3997 134.254 94.353C133.747 94.3077 132.95 94.3028 132.177 94.7185L134.071 98.2411C133.825 98.3734 133.685 98.3176 133.898 98.3366C134.096 98.3544 134.347 98.4084 134.771 98.5051C135.125 98.586 135.66 98.7115 136.183 98.753C136.688 98.7931 137.517 98.7891 138.299 98.3069L136.199 94.9026ZM132.175 94.7191C131.395 95.1391 130.969 95.8226 130.741 96.257C130.504 96.7091 130.321 97.2191 130.198 97.5505C130.05 97.9483 129.959 98.1746 129.873 98.3293C129.781 98.4943 129.831 98.3204 130.11 98.187L131.832 101.797C132.65 101.407 133.112 100.734 133.367 100.277C133.627 99.8104 133.818 99.2925 133.947 98.9443C134.102 98.5296 134.192 98.2917 134.285 98.1144C134.387 97.9195 134.348 98.0923 134.072 98.2405L132.175 94.7191ZM130.106 98.1889C130.411 98.0429 130.598 98.1213 130.404 98.0862C130.226 98.0541 129.993 97.9807 129.582 97.8433C129.238 97.7283 128.721 97.5513 128.206 97.4544C127.706 97.3603 126.91 97.2781 126.098 97.6228L127.662 101.304C127.399 101.416 127.258 101.346 127.466 101.385C127.659 101.421 127.902 101.499 128.313 101.636C128.658 101.752 129.177 101.929 129.692 102.022C130.191 102.112 131.012 102.19 131.836 101.795L130.106 98.1889ZM126.097 97.6233C125.281 97.9705 124.794 98.6131 124.527 99.0261C124.25 99.4558 124.021 99.9476 123.868 100.268C123.685 100.652 123.574 100.871 123.473 101.02C123.365 101.179 123.429 101.011 123.718 100.902L125.131 104.644C125.976 104.325 126.493 103.694 126.785 103.264C127.084 102.823 127.319 102.325 127.479 101.99C127.669 101.592 127.78 101.363 127.888 101.196C128.007 101.012 127.952 101.181 127.663 101.304L126.097 97.6233ZM123.718 100.902C124.029 100.785 124.204 100.876 124.011 100.825C123.834 100.778 123.606 100.686 123.208 100.516C122.874 100.374 122.373 100.156 121.868 100.019C121.377 99.8857 120.59 99.7403 119.753 100.021L121.025 103.813C120.751 103.905 120.615 103.823 120.818 103.878C121.006 103.93 121.241 104.026 121.641 104.196C121.975 104.338 122.477 104.556 122.983 104.69C123.472 104.82 124.28 104.965 125.13 104.644L123.718 100.902ZM119.752 100.021C118.909 100.305 118.373 100.907 118.073 101.302C117.761 101.712 117.496 102.187 117.319 102.497C117.107 102.869 116.98 103.08 116.868 103.222C116.748 103.375 116.823 103.211 117.122 103.122L118.268 106.954C119.133 106.695 119.692 106.102 120.012 105.695C120.34 105.279 120.611 104.8 120.794 104.479C121.012 104.098 121.139 103.879 121.258 103.722C121.389 103.55 121.321 103.713 121.026 103.813L119.752 100.021ZM117.124 103.121C117.439 103.027 117.605 103.13 117.415 103.065C117.242 103.006 117.021 102.898 116.634 102.701C116.311 102.536 115.826 102.284 115.332 102.113C114.853 101.946 114.075 101.746 113.219 101.972L114.239 105.839C113.955 105.914 113.821 105.822 114.019 105.891C114.203 105.955 114.43 106.067 114.817 106.264C115.141 106.429 115.627 106.681 116.122 106.85C116.601 107.014 117.396 107.213 118.266 106.954L117.124 103.121ZM113.22 101.972C112.359 102.199 111.784 102.764 111.457 103.14C111.119 103.529 110.823 103.986 110.626 104.284C110.39 104.642 110.25 104.844 110.129 104.979C109.999 105.124 110.085 104.965 110.388 104.895L111.286 108.793C112.166 108.59 112.762 108.035 113.107 107.65C113.461 107.255 113.762 106.795 113.965 106.488C114.207 106.121 114.348 105.912 114.476 105.764C114.617 105.603 114.538 105.761 114.238 105.84L113.22 101.972ZM110.387 104.896C110.706 104.822 110.863 104.934 110.678 104.858C110.509 104.788 110.294 104.667 109.921 104.446C109.609 104.262 109.141 103.981 108.658 103.779C108.19 103.583 107.426 103.336 106.557 103.509L107.34 107.432C107.051 107.489 106.922 107.388 107.115 107.469C107.294 107.544 107.514 107.67 107.887 107.89C108.2 108.075 108.67 108.357 109.154 108.556C109.623 108.749 110.404 108.997 111.288 108.792L110.387 104.896ZM106.555 103.51C105.684 103.684 105.075 104.214 104.726 104.57C104.364 104.939 104.041 105.377 103.826 105.664C103.569 106.008 103.417 106.202 103.287 106.331C103.147 106.471 103.242 106.316 103.55 106.263L104.226 110.205C105.115 110.053 105.741 109.531 106.106 109.169C106.481 108.797 106.808 108.356 107.028 108.062C107.291 107.711 107.444 107.51 107.581 107.371C107.731 107.218 107.644 107.371 107.341 107.431L106.555 103.51ZM103.553 106.263C103.873 106.208 104.022 106.328 103.841 106.241C103.675 106.162 103.468 106.028 103.108 105.787C102.807 105.585 102.356 105.278 101.886 105.049C101.43 104.827 100.68 104.536 99.8021 104.661L100.364 108.621C100.071 108.662 99.9466 108.553 100.135 108.645C100.309 108.73 100.521 108.868 100.882 109.11C101.184 109.312 101.637 109.62 102.109 109.846C102.567 110.066 103.331 110.357 104.224 110.205L103.553 106.263ZM99.8013 104.661C98.92 104.786 98.2823 105.282 97.9131 105.619C97.5309 105.968 97.1848 106.388 96.9544 106.663C96.6786 106.992 96.5165 107.178 96.38 107.299C96.2329 107.43 96.3368 107.281 96.6476 107.245L97.1048 111.218C98.0014 111.115 98.6552 110.629 99.0396 110.287C99.4346 109.936 99.7853 109.513 100.021 109.231C100.302 108.896 100.466 108.704 100.61 108.573C100.767 108.43 100.671 108.577 100.365 108.621L99.8013 104.661ZM96.648 107.245C96.9691 107.208 97.1104 107.335 96.9348 107.239C96.7734 107.151 96.5735 107.006 96.2274 106.746C95.9377 106.529 95.5034 106.198 95.047 105.944C94.604 105.698 93.8709 105.367 92.9868 105.445L93.3382 109.429C93.0413 109.455 92.9216 109.339 93.1046 109.441C93.274 109.535 93.4781 109.684 93.8256 109.944C94.1167 110.163 94.5528 110.495 95.0124 110.746C95.458 110.99 96.2056 111.322 97.1044 111.218L96.648 107.245ZM92.9868 105.445C92.1007 105.523 91.4371 105.979 91.0444 106.3C90.6406 106.63 90.2721 107.033 90.0272 107.296C89.7339 107.612 89.5638 107.788 89.4219 107.902C89.2699 108.024 89.3829 107.879 89.6966 107.86L89.9456 111.851C90.8475 111.795 91.5255 111.343 91.9268 111.02C92.3381 110.69 92.7096 110.286 92.9578 110.019C93.2543 109.7 93.4271 109.518 93.5762 109.397C93.7363 109.266 93.6369 109.403 93.3382 109.429L92.9868 105.445ZM89.6966 107.86C90.0089 107.84 90.1375 107.969 89.9695 107.866C89.8135 107.77 89.6211 107.616 89.2912 107.34C89.0156 107.11 88.6005 106.757 88.1621 106.481C87.7383 106.214 87.0231 105.84 86.1335 105.872L86.2787 109.869C85.9707 109.88 85.8511 109.752 86.0303 109.865C86.195 109.969 86.3903 110.129 86.726 110.409C87.0075 110.644 87.4272 110.999 87.8775 111.275C88.3159 111.544 89.045 111.907 89.9456 111.851L89.6966 107.86ZM86.1335 105.872C85.2453 105.904 84.5588 106.328 84.1552 106.624C83.7367 106.931 83.3473 107.312 83.0869 107.563C82.7759 107.863 82.5937 108.032 82.4434 108.14C82.2789 108.259 82.4022 108.116 82.7249 108.113L82.7657 112.112C83.6694 112.103 84.3704 111.682 84.7819 111.386C85.2076 111.079 85.5999 110.697 85.8635 110.443C86.1776 110.14 86.3629 109.965 86.5207 109.85C86.6935 109.723 86.5852 109.858 86.2787 109.869L86.1335 105.872ZM82.7251 108.113C83.0372 108.11 83.1585 108.244 82.9964 108.133C82.8459 108.029 82.6618 107.865 82.3472 107.573C82.0845 107.329 81.6887 106.955 81.2662 106.656C80.858 106.368 80.1637 105.955 79.2736 105.94L79.2062 109.939C78.897 109.934 78.7838 109.8 78.9573 109.922C79.1165 110.035 79.3032 110.205 79.624 110.503C79.8931 110.753 80.2938 111.129 80.7296 111.428C81.1539 111.72 81.8632 112.121 82.7655 112.112L82.7251 108.113ZM79.2728 105.94C78.3874 105.926 77.6806 106.306 77.2551 106.583C76.8171 106.867 76.4072 107.228 76.133 107.465C75.8056 107.749 75.616 107.908 75.4602 108.008C75.2905 108.118 75.4203 107.982 75.7409 107.995L75.5836 111.991C76.4843 112.027 77.2036 111.644 77.629 111.369C78.0682 111.086 78.479 110.725 78.7534 110.487C79.0809 110.204 79.2741 110.041 79.4363 109.935C79.6112 109.822 79.5019 109.944 79.207 109.939L79.2728 105.94ZM75.7521 107.995C76.0631 108.009 76.1763 108.15 76.0209 108.03C75.8764 107.919 75.7017 107.745 75.404 107.436C75.1554 107.178 74.7812 106.783 74.3764 106.462C73.9856 106.152 73.316 105.702 72.4289 105.637L72.1364 109.625C71.8279 109.603 71.7225 109.462 71.8895 109.595C72.0425 109.716 72.2196 109.896 72.5237 110.212C72.7788 110.476 73.1583 110.874 73.5773 111.197C73.9854 111.512 74.6714 111.95 75.5724 111.991L75.7521 107.995ZM72.4276 105.636C71.5436 105.572 70.8159 105.913 70.3759 106.165C69.9226 106.425 69.4929 106.762 69.2059 106.984C68.8631 107.249 68.6655 107.396 68.5058 107.486C68.3314 107.585 68.4739 107.454 68.7994 107.488L68.3898 111.466C69.2917 111.559 70.036 111.216 70.477 110.967C70.9326 110.709 71.364 110.371 71.6517 110.149C71.9953 109.883 72.1978 109.731 72.3664 109.635C72.5483 109.53 72.4323 109.647 72.1377 109.625L72.4276 105.636ZM68.7979 107.487C69.1073 107.519 69.2124 107.666 69.0653 107.538C68.9282 107.419 68.7643 107.236 68.4858 106.911C68.2533 106.639 67.9033 106.223 67.5191 105.878C67.1482 105.546 66.5067 105.056 65.6251 104.938L65.0948 108.903C64.7874 108.861 64.6902 108.714 64.8494 108.857C64.9952 108.988 65.1613 109.178 65.4467 109.511C65.6861 109.791 66.0419 110.21 66.4423 110.558C66.8327 110.897 67.4931 111.374 68.3913 111.466L68.7979 107.487ZM65.6255 104.938C64.748 104.821 64.0015 105.115 63.5458 105.34C63.0768 105.572 62.627 105.882 62.3267 106.086C61.968 106.329 61.7621 106.464 61.5973 106.544C61.4173 106.632 61.569 106.509 61.8936 106.563L61.2372 110.509C62.1323 110.657 62.8967 110.361 63.3516 110.139C63.8218 109.909 64.2729 109.599 64.5733 109.395C64.9322 109.151 65.1438 109.012 65.3181 108.926C65.5058 108.833 65.3846 108.941 65.0944 108.902L65.6255 104.938ZM61.8949 106.564C62.2005 106.615 62.2957 106.767 62.1577 106.631C62.029 106.504 61.8773 106.311 61.6209 105.969C61.407 105.683 61.0852 105.245 60.7254 104.877C60.3785 104.522 59.7715 103.99 58.9002 103.814L58.1064 107.734C57.8014 107.672 57.7139 107.518 57.8645 107.672C58.0021 107.813 58.1555 108.015 58.4193 108.367C58.6406 108.662 58.9689 109.104 59.3471 109.477C59.7161 109.841 60.3451 110.36 61.2359 110.508L61.8949 106.564ZM58.8993 103.814C58.0335 103.639 57.27 103.881 56.8002 104.074C56.3166 104.273 55.8467 104.551 55.533 104.734C55.1582 104.952 54.9437 105.072 54.7744 105.14C54.589 105.215 54.7516 105.102 55.075 105.18L54.1381 109.068C55.0219 109.281 55.8065 109.037 56.2751 108.848C56.7597 108.652 57.2312 108.373 57.5452 108.191C57.9201 107.972 58.1415 107.848 58.3224 107.773C58.5172 107.693 58.3915 107.792 58.1073 107.734L58.8993 103.814ZM55.0752 105.18C55.3761 105.253 55.4603 105.412 55.3339 105.268C55.2157 105.133 55.0789 104.929 54.8492 104.571C54.6578 104.271 54.3698 103.811 54.04 103.418C53.7225 103.04 53.1585 102.464 52.3044 102.222L51.2125 106.069C50.9121 105.984 50.8364 105.824 50.9761 105.99C51.1035 106.142 51.2416 106.354 51.4792 106.726C51.6786 107.037 51.9739 107.502 52.325 107.903C52.668 108.294 53.2589 108.856 54.1378 109.068L55.0752 105.18ZM52.3054 102.222C51.4578 101.981 50.6789 102.16 50.1942 102.316C49.6956 102.475 49.2047 102.715 48.8771 102.871C48.4857 103.059 48.2629 103.161 48.0896 103.215C47.8994 103.275 48.0745 103.174 48.3946 103.28L47.1353 107.076C48.0008 107.363 48.8046 107.183 49.2864 107.032C49.7851 106.875 50.2775 106.635 50.6049 106.479C50.996 106.292 51.2273 106.185 51.4145 106.125C51.6155 106.06 51.486 106.147 51.2114 106.069L52.3054 102.222ZM48.3957 103.28C48.6886 103.378 48.7593 103.543 48.6476 103.391C48.5427 103.248 48.4245 103.035 48.2282 102.659C48.0648 102.345 47.8193 101.862 47.5276 101.443C47.2471 101.04 46.7391 100.415 45.9127 100.095L44.4697 103.825C44.1785 103.713 44.1182 103.546 44.2436 103.726C44.3577 103.891 44.4764 104.115 44.6809 104.508C44.8527 104.837 45.1064 105.327 45.423 105.758C45.7329 106.18 46.2748 106.79 47.1342 107.076L48.3957 103.28ZM45.9129 100.095C45.0947 99.7786 44.3051 99.8817 43.8076 99.9892C43.2961 100.1 42.7844 100.29 42.443 100.414C42.0353 100.562 41.8046 100.641 41.6286 100.677C41.4353 100.717 41.6246 100.633 41.9368 100.774L40.2901 104.419C41.1246 104.796 41.9454 104.696 42.4402 104.593C42.9524 104.487 43.4666 104.297 43.8083 104.173C44.2163 104.025 44.4584 103.94 44.6528 103.898C44.8613 103.853 44.7298 103.926 44.4695 103.825L45.9129 100.095ZM41.9371 100.774C42.2193 100.902 42.2734 101.075 42.181 100.916C42.0938 100.766 42.0002 100.543 41.8479 100.149C41.7213 99.8218 41.5322 99.3151 41.2922 98.8681C41.0621 98.4393 40.632 97.7607 39.8527 97.3468L37.9759 100.879C37.7008 100.733 37.6613 100.562 37.7672 100.759C37.8635 100.939 37.9562 101.177 38.1167 101.592C38.2516 101.94 38.4503 102.457 38.7203 102.922C38.9852 103.379 39.4612 104.044 40.2897 104.419L41.9371 100.774ZM39.8529 97.3469C39.0833 96.9381 38.2914 96.9413 37.785 96.9851C37.2644 97.0302 36.7332 97.153 36.3794 97.232C35.9565 97.3264 35.7197 97.3744 35.5442 97.3874C35.3503 97.4017 35.5597 97.3419 35.8591 97.531L33.7221 100.912C34.5025 101.405 35.3353 101.413 35.8389 101.376C36.361 101.337 36.896 101.215 37.2512 101.135C37.6753 101.041 37.9283 100.987 38.1301 100.97C38.346 100.951 38.2146 101.006 37.9757 100.879L39.8529 97.3469ZM35.8628 97.5334C36.1255 97.7001 36.1556 97.8821 36.0897 97.7168C36.0272 97.56 35.9679 97.3284 35.8775 96.9201C35.8026 96.5815 35.6933 96.0544 35.5286 95.5811C35.3711 95.1287 35.0583 94.3955 34.3664 93.8631L31.9266 97.0327C31.6837 96.8458 31.674 96.6764 31.7503 96.8956C31.8194 97.0939 31.8746 97.3462 31.9715 97.784C32.053 98.1522 32.1728 98.6942 32.3735 99.1974C32.5707 99.6922 32.948 100.421 33.7184 100.91L35.8628 97.5334ZM34.3619 93.8596C33.6784 93.337 32.906 93.2032 32.4028 93.157C31.8853 93.1096 31.3424 93.1344 30.9823 93.1476C30.5516 93.1635 30.3139 93.1668 30.1458 93.1475C29.9597 93.1262 30.1898 93.1086 30.455 93.3626L27.6878 96.2508C28.3621 96.8966 29.1863 97.0633 29.6911 97.1211C30.2139 97.1809 30.764 97.1579 31.1298 97.1444C31.5663 97.1283 31.8288 97.1206 32.0376 97.1398C32.2605 97.1602 32.135 97.192 31.9312 97.0361L34.3619 93.8596ZM30.4567 93.3643C30.6873 93.5856 30.6821 93.7804 30.6552 93.6191C30.6293 93.4635 30.6214 93.2319 30.6239 92.819C30.626 92.4787 30.6377 91.9424 30.5868 91.4506C30.5381 90.9803 30.4065 90.2033 29.8728 89.5284L26.7345 92.0086C26.552 91.7778 26.5828 91.6229 26.6076 91.8622C26.6301 92.08 26.6263 92.3407 26.6235 92.7942C26.6211 93.1752 26.6189 93.7343 26.709 94.2756C26.7982 94.8112 27.0193 95.6091 27.6861 96.2492L30.4567 93.3643ZM29.8742 89.5302C29.3513 88.8673 28.6507 88.5418 28.1857 88.3667C27.7071 88.1865 27.1812 88.0631 26.8382 87.9783C26.4258 87.8764 26.2047 87.8141 26.0614 87.7528C25.9049 87.6857 26.1438 87.7433 26.3251 88.0778L22.8077 89.9829C23.2603 90.818 24.0086 91.2246 24.4869 91.4294C24.9785 91.6398 25.5177 91.7718 25.8784 91.861C26.3085 91.9672 26.5685 92.0315 26.7759 92.1096C26.9969 92.1928 26.8824 92.1961 26.7331 92.0068L29.8742 89.5302ZM26.3247 88.0769C26.4911 88.3836 26.419 88.5948 26.4441 88.4483C26.4685 88.3062 26.5346 88.0937 26.6749 87.7085C26.7901 87.3923 26.9818 86.8931 27.1021 86.4176C27.2177 85.9604 27.3591 85.2039 27.1195 84.4025L23.2865 85.5475C23.2119 85.2981 23.2852 85.1936 23.2237 85.4367C23.1668 85.6615 23.0722 85.9108 22.916 86.3396C22.7849 86.6994 22.5944 87.2283 22.5012 87.7722C22.4086 88.3118 22.3578 89.1536 22.8082 89.9838L26.3247 88.0769ZM27.1195 84.4024C26.8817 83.6069 26.3577 83.0505 26.0095 82.7257C25.649 82.3894 25.217 82.0729 24.9482 81.8688C24.6206 81.6202 24.4524 81.4789 24.3579 81.3756C24.2604 81.269 24.4443 81.4183 24.467 81.7812L20.4742 82.0301C20.5336 82.9822 21.0355 83.6695 21.4048 84.0736C21.7772 84.4809 22.2245 84.823 22.5289 85.0541C22.8921 85.3298 23.1084 85.4895 23.2803 85.6498C23.4643 85.8215 23.3566 85.782 23.2865 85.5476L27.1195 84.4024ZM24.467 81.7812C24.4896 82.1442 24.3257 82.3151 24.4092 82.1972C24.4901 82.0828 24.6395 81.9218 24.9337 81.6342C25.1752 81.3982 25.5645 81.0304 25.8805 80.6517C26.1858 80.2857 26.6362 79.6685 26.7731 78.8496L22.8274 78.1899C22.8677 77.9491 22.9693 77.8968 22.8082 78.09C22.6577 78.2703 22.4629 78.4558 22.137 78.7744C21.8637 79.0415 21.4623 79.4365 21.1436 79.8868C20.8273 80.3336 20.4148 81.0779 20.4742 82.0301L24.467 81.7812ZM26.7731 78.8499C26.9112 78.0248 26.6769 77.2919 26.5052 76.8526C26.3268 76.3961 26.0745 75.9246 25.9212 75.6257C25.7343 75.2614 25.6425 75.0591 25.6009 74.9216C25.5581 74.7804 25.6549 74.9793 25.529 75.3019L21.8022 73.8476C21.4591 74.7265 21.6128 75.5547 21.7719 76.08C21.932 76.6088 22.1867 77.1101 22.3616 77.4509C22.57 77.8572 22.6947 78.0923 22.7791 78.3081C22.8702 78.5412 22.7844 78.4465 22.8274 78.1896L26.7731 78.8499ZM25.5297 75.3C25.3911 75.6561 25.1596 75.7436 25.3064 75.6579C25.4407 75.5795 25.6521 75.4905 26.0492 75.3382C26.3794 75.2116 26.8864 75.0238 27.3398 74.785C27.7805 74.5528 28.4357 74.1417 28.8718 73.4171L25.444 71.3549C25.5684 71.1483 25.6827 71.1371 25.4747 71.2467C25.2793 71.3496 25.0296 71.4455 24.6163 71.604C24.2698 71.7369 23.7508 71.9346 23.2891 72.2041C22.8398 72.4664 22.1465 72.9631 21.8015 73.8495L25.5297 75.3ZM28.8666 73.4257C29.3152 72.6888 29.3499 71.8998 29.3398 71.4259C29.3292 70.9305 29.2505 70.3992 29.2059 70.0615C29.1517 69.6517 29.1306 69.4212 29.1369 69.264C29.1434 69.101 29.1728 69.2955 28.97 69.545L25.8654 67.0226C25.2812 67.7412 25.1611 68.562 25.1395 69.1048C25.1177 69.6533 25.19 70.2082 25.2399 70.5856C25.2993 71.035 25.3355 71.2928 25.3402 71.5108C25.3453 71.7503 25.2954 71.5989 25.4492 71.3464L28.8666 73.4257ZM28.9701 69.5449C28.7385 69.8298 28.5081 69.8409 28.6899 69.7967C28.8542 69.7568 29.0903 69.7305 29.5195 69.6928C29.8784 69.6612 30.42 69.6184 30.9275 69.5071C31.4211 69.3988 32.1707 69.1701 32.7838 68.5667L29.9771 65.7166C30.1599 65.5367 30.2883 65.5526 30.0699 65.6006C29.8653 65.6455 29.604 65.6704 29.169 65.7086C28.8045 65.7407 28.2559 65.7862 27.7446 65.9105C27.2509 66.0305 26.4541 66.2983 25.8653 67.0227L28.9701 69.5449ZM32.7843 68.5662C33.4077 67.9522 33.6284 67.185 33.7291 66.7146C33.8343 66.2233 33.877 65.686 33.9091 65.3403C33.9478 64.9233 33.9775 64.6864 34.0199 64.5231C34.0645 64.3511 34.0572 64.5363 33.8165 64.735L31.269 61.6512C30.5646 62.2327 30.2813 63.0033 30.1475 63.5188C30.0115 64.0431 29.9604 64.596 29.9257 64.9708C29.8843 65.4168 29.8609 65.6732 29.8172 65.8774C29.769 66.1025 29.758 65.9324 29.9766 65.7171L32.7843 68.5662ZM33.8131 64.7378C33.5396 64.9626 33.3244 64.9293 33.5184 64.9195C33.694 64.9105 33.9348 64.9288 34.3661 64.97C34.727 65.0044 35.2693 65.0604 35.7915 65.0404C36.2997 65.021 37.0854 64.9258 37.7981 64.4252L35.498 61.1528C35.7186 60.9978 35.8551 61.0356 35.6386 61.0439C35.4362 61.0516 35.1785 61.0299 34.746 60.9886C34.3839 60.954 33.8378 60.8986 33.3151 60.9252C32.8106 60.9508 31.9854 61.0623 31.2724 61.6484L33.8131 64.7378ZM37.7987 64.4248C38.5204 63.9174 38.8627 63.191 39.0379 62.7369C39.2204 62.2637 39.3452 61.7375 39.4301 61.3972C39.5323 60.9878 39.5975 60.7551 39.6653 60.5953C39.7371 60.426 39.705 60.6049 39.441 60.7663L37.3534 57.3545C36.578 57.8287 36.1883 58.5479 35.9822 59.0337C35.7722 59.529 35.6391 60.0662 35.5486 60.4287C35.4409 60.8603 35.3785 61.1079 35.3053 61.2977C35.2248 61.5065 35.2428 61.3322 35.4974 61.1532L37.7987 64.4248ZM39.4479 60.7621C39.1534 60.9438 38.9515 60.8836 39.1466 60.8991C39.3242 60.9132 39.562 60.9629 39.9848 61.0594C40.3386 61.1401 40.8702 61.2656 41.3917 61.3122C41.8992 61.3575 42.6958 61.3623 43.4691 60.9471L41.5759 57.4237C41.8213 57.2919 41.9603 57.3476 41.7477 57.3286C41.5492 57.3108 41.2984 57.2568 40.8748 57.1601C40.5202 57.0792 39.9856 56.9537 39.4632 56.9122C38.9583 56.8721 38.1288 56.876 37.3465 57.3587L39.4479 60.7621ZM43.4702 60.9464C44.2507 60.5267 44.6771 59.8432 44.9052 59.4084C45.1425 58.9561 45.326 58.446 45.4492 58.1147C45.5972 57.7168 45.6879 57.4907 45.7741 57.3361C45.866 57.1715 45.816 57.3453 45.5365 57.4784L43.8161 53.8676C42.9978 54.2572 42.5356 54.9304 42.2805 55.3875C42.0198 55.8546 41.8289 56.3727 41.6994 56.7208C41.5452 57.1355 41.4554 57.3733 41.3625 57.5504C41.2604 57.745 41.2996 57.5723 41.5748 57.4243L43.4702 60.9464ZM45.5417 57.4759C45.2363 57.6224 45.0483 57.5437 45.2432 57.579C45.4209 57.6111 45.6541 57.6845 46.0655 57.8219C46.4098 57.9369 46.9267 58.1139 47.4411 58.2107C47.9413 58.3049 48.7371 58.387 49.5491 58.0423L47.9854 54.361C48.2489 54.2491 48.3889 54.3194 48.1813 54.2803C47.9879 54.2439 47.7452 54.1663 47.3334 54.0287C46.9889 53.9136 46.4698 53.7364 45.9547 53.6433C45.4566 53.5533 44.635 53.4747 43.8109 53.87L45.5417 57.4759ZM49.5475 58.043C50.3652 57.6967 50.8535 57.0549 51.1218 56.6399C51.4005 56.209 51.629 55.7165 51.7818 55.3957C51.965 55.011 52.0754 54.7924 52.1759 54.6439C52.2833 54.4852 52.2194 54.6538 51.9297 54.7631L50.5163 51.0215C49.6703 51.3409 49.1539 51.972 48.8623 52.4029C48.5638 52.8441 48.3287 53.3424 48.1697 53.6763C47.9802 54.0742 47.8697 54.3022 47.7623 54.4683C47.6446 54.6503 47.6997 54.482 47.987 54.3603L49.5475 58.043ZM51.9312 54.7626C51.6196 54.8805 51.4435 54.7883 51.6365 54.8396C51.8129 54.8864 52.0405 54.9788 52.4396 55.1486C52.7737 55.2908 53.2748 55.5083 53.7798 55.6455C54.2705 55.7789 55.0586 55.9241 55.8962 55.6424L54.6206 51.8517C54.8952 51.7593 55.0321 51.8413 54.8292 51.7862C54.6406 51.7349 54.4055 51.6385 54.0063 51.4686C53.6721 51.3264 53.1695 51.1086 52.664 50.9743C52.1752 50.8444 51.3658 50.7001 50.5149 51.0221L51.9312 54.7626ZM55.8963 55.6424C56.7381 55.3592 57.2742 54.7566 57.5741 54.362C57.8855 53.9524 58.1505 53.4781 58.3275 53.1681C58.5396 52.7969 58.6663 52.5859 58.7786 52.4434C58.8991 52.2903 58.8236 52.4542 58.5258 52.5433L57.3792 48.7116C56.5144 48.9702 55.9554 49.5628 55.6355 49.9689C55.3073 50.3857 55.0365 50.8644 54.8536 51.1846C54.6356 51.5662 54.5081 51.7853 54.3889 51.9421C54.2582 52.1139 54.3257 51.9508 54.6205 51.8517L55.8963 55.6424ZM58.5233 52.544C58.2079 52.6379 58.0422 52.535 58.2317 52.5998C58.4052 52.659 58.6263 52.7672 59.0125 52.9642C59.3358 53.129 59.8206 53.3807 60.3147 53.5523C60.7948 53.7191 61.5722 53.9185 62.4283 53.6929L61.4086 49.8255C61.6917 49.7509 61.8254 49.8431 61.6276 49.7744C61.4439 49.7106 61.2167 49.5986 60.8303 49.4015C60.5068 49.2365 60.0206 48.9845 59.5257 48.8153C59.0466 48.6516 58.2513 48.452 57.3817 48.7108L58.5233 52.544ZM62.4282 53.6929C63.2883 53.4664 63.8637 52.9003 64.19 52.5249C64.5284 52.1357 64.8238 51.6791 65.0208 51.3808C65.2566 51.0235 65.3966 50.8211 65.5178 50.6859C65.6481 50.5407 65.562 50.6998 65.2585 50.7698L64.3599 46.8725C63.4801 47.0752 62.8844 47.6311 62.5395 48.0156C62.1856 48.4102 61.8847 48.8704 61.6819 49.1775C61.4402 49.5437 61.299 49.7534 61.1705 49.9013C61.03 50.0629 61.1083 49.9047 61.4087 49.8255L62.4282 53.6929ZM65.2594 50.7696C64.9412 50.843 64.7841 50.7312 64.969 50.8073C65.1387 50.8771 65.353 50.9987 65.7259 51.2189C66.0381 51.4031 66.5063 51.6841 66.9883 51.8858C67.4563 52.0815 68.2206 52.3293 69.0898 52.1558L68.3064 48.2337C68.5961 48.1759 68.7258 48.2772 68.5325 48.1963C68.3533 48.1213 68.1336 47.9955 67.7597 47.7748C67.4465 47.59 66.9765 47.3085 66.4922 47.1091C66.0231 46.916 65.2422 46.6687 64.359 46.8727L65.2594 50.7696ZM69.0911 52.1555C69.9631 51.9809 70.5717 51.4509 70.921 51.0949C71.2829 50.726 71.6053 50.2876 71.8203 50.0006C72.0777 49.6571 72.2297 49.4626 72.3594 49.3339C72.4993 49.1951 72.4037 49.3499 72.0951 49.4024L71.4229 45.4598C70.5332 45.6114 69.9067 46.1326 69.5414 46.495C69.166 46.8674 68.8387 47.3087 68.6183 47.6029C68.3556 47.9536 68.2019 48.1547 68.0648 48.2944C67.9151 48.447 68.002 48.2947 68.3052 48.234L69.0911 52.1555ZM72.0948 49.4025C71.7741 49.4571 71.6247 49.3369 71.8056 49.4238C71.9715 49.5034 72.1788 49.6373 72.5387 49.8783C72.8399 50.08 73.2915 50.3872 73.7614 50.6158C74.2175 50.8376 74.9675 51.1285 75.8461 51.0029L75.2799 47.0437C75.5743 47.0016 75.6997 47.1109 75.5117 47.0194C75.3375 46.9347 75.1257 46.7969 74.765 46.5554C74.4629 46.3531 74.0098 46.0454 73.5378 45.8187C73.0807 45.5992 72.3159 45.3078 71.4233 45.4597L72.0948 49.4025ZM75.845 51.0031C76.7259 50.8777 77.3634 50.3828 77.7327 50.0461C78.115 49.6975 78.4613 49.2773 78.6918 49.0025C78.9678 48.6735 79.1301 48.4877 79.2667 48.3662C79.4139 48.2354 79.3102 48.3844 78.9999 48.42L78.5426 44.4468C77.6465 44.5498 76.9927 45.0357 76.6082 45.3775C76.2132 45.7287 75.8624 46.1513 75.6265 46.4325C75.3452 46.7678 75.1809 46.9596 75.0369 47.091C74.8798 47.2342 74.9752 47.087 75.281 47.0435L75.845 51.0031ZM78.9999 48.42C78.6879 48.4559 78.551 48.3333 78.7217 48.4265C78.8812 48.5136 79.0794 48.6571 79.4235 48.9162C79.7107 49.1325 80.1442 49.4646 80.5997 49.7185C81.0427 49.9656 81.7763 50.2979 82.6624 50.219L82.3074 46.2353C82.6063 46.2087 82.7284 46.3261 82.5481 46.2256C82.3802 46.1319 82.1784 45.9837 81.8305 45.7217C81.5394 45.5025 81.1026 45.1695 80.6395 44.9166C80.1875 44.6698 79.4405 44.3435 78.5426 44.4468L78.9999 48.42ZM82.6595 50.2192C83.5467 50.1416 84.2104 49.6812 84.5976 49.3641C84.9984 49.036 85.3666 48.6344 85.6116 48.3717C85.9049 48.0574 86.0768 47.8801 86.2199 47.7657C86.3743 47.6422 86.2626 47.7861 85.9498 47.8056L85.7007 43.8139C84.8002 43.87 84.1219 44.3217 83.7208 44.6426C83.3084 44.9724 82.936 45.3759 82.6858 45.644C82.3875 45.9638 82.2134 46.1466 82.0629 46.2697C81.8989 46.404 82.0024 46.262 82.3103 46.235L82.6595 50.2192ZM85.9498 47.8056C85.637 47.8251 85.5082 47.6962 85.6768 47.7995C85.833 47.8954 86.0257 48.0499 86.3557 48.3254C86.6315 48.5556 87.0467 48.9083 87.4852 49.1841C87.9089 49.4507 88.6246 49.8251 89.5146 49.792L89.3659 45.7953C89.6748 45.7838 89.7951 45.9119 89.6156 45.799C89.451 45.6955 89.2556 45.5358 88.9198 45.2555C88.6383 45.0205 88.2185 44.6663 87.7683 44.3903C87.3304 44.1218 86.6013 43.7578 85.7007 43.8139L85.9498 47.8056ZM89.5146 49.792C90.4018 49.759 91.0875 49.3351 91.4905 49.0398C91.9086 48.7333 92.2979 48.3526 92.5583 48.102C92.8692 47.8027 93.0515 47.6334 93.2019 47.5253C93.3665 47.407 93.2439 47.5491 92.9226 47.5523L92.8816 43.5531C91.9788 43.5623 91.2781 43.9821 90.8661 44.2783C90.4399 44.5847 90.0474 44.9668 89.7834 45.2209C89.469 45.5236 89.2835 45.6982 89.1253 45.8141C88.952 45.9411 89.0598 45.8067 89.3659 45.7953L89.5146 49.792ZM92.9223 47.5523C92.6105 47.5555 92.4894 47.4208 92.6514 47.5322C92.8019 47.6356 92.986 47.7997 93.3005 48.0918C93.5633 48.3358 93.959 48.7098 94.3816 49.0082C94.7898 49.2966 95.4839 49.7086 96.3738 49.7236L96.4411 45.7247C96.7501 45.73 96.8632 45.8642 96.6897 45.7417C96.5305 45.6293 96.3439 45.4594 96.023 45.1615C95.754 44.9117 95.3533 44.5358 94.9175 44.2363C94.4931 43.9447 93.7839 43.544 92.8819 43.5531L92.9223 47.5523ZM96.3726 49.7236C97.2589 49.7391 97.9664 49.3586 98.3917 49.0821C98.8298 48.7973 99.2397 48.437 99.5139 48.1993C99.8413 47.9156 100.031 47.7567 100.186 47.6563C100.356 47.5469 100.225 47.6831 99.9034 47.6701L100.065 43.6739C99.1632 43.6375 98.4431 44.0211 98.0179 44.2953C97.5787 44.5786 97.1679 44.9394 96.8935 45.1772C96.5659 45.4611 96.3728 45.6238 96.2107 45.7292C96.0358 45.8429 96.1461 45.7196 96.4423 45.7248L96.3726 49.7236ZM99.8962 47.6698C99.5851 47.6561 99.4715 47.5153 99.6266 47.6348C99.771 47.7461 99.9457 47.9199 100.243 48.2286C100.492 48.4864 100.866 48.8816 101.271 49.2028C101.661 49.5129 102.331 49.9635 103.219 50.0286L103.511 46.0398C103.82 46.0624 103.925 46.2031 103.758 46.0704C103.605 45.9489 103.428 45.7686 103.124 45.453C102.868 45.1882 102.489 44.7906 102.069 44.4673C101.66 44.1524 100.974 43.7139 100.072 43.6742L99.8962 47.6698ZM103.22 50.0287C104.104 50.0929 104.832 49.7521 105.272 49.4998C105.725 49.2398 106.154 48.9029 106.441 48.6813C106.784 48.4166 106.981 48.2693 107.141 48.1789C107.315 48.0804 107.173 48.2109 106.848 48.1776L107.257 44.1991C106.356 44.1064 105.612 44.4487 105.17 44.6985C104.714 44.9565 104.283 45.2942 103.995 45.5165C103.652 45.7819 103.449 45.934 103.281 46.0307C103.099 46.1349 103.215 46.0183 103.51 46.0397L103.22 50.0287ZM106.849 48.1776C106.539 48.1459 106.434 47.9987 106.582 48.1267C106.719 48.2458 106.883 48.4293 107.161 48.7546C107.394 49.0263 107.744 49.4427 108.128 49.7869C108.499 50.1191 109.141 50.6089 110.022 50.7267L110.553 46.7626C110.86 46.8037 110.957 46.9506 110.798 46.8079C110.652 46.6772 110.486 46.4867 110.2 46.1535C109.961 45.8739 109.605 45.4547 109.205 45.1072C108.815 44.7686 108.155 44.2909 107.256 44.199L106.849 48.1776ZM110.022 50.7266C110.899 50.8444 111.646 50.5497 112.101 50.3247C112.57 50.0931 113.02 49.7833 113.32 49.5796C113.679 49.3362 113.885 49.2014 114.05 49.121C114.23 49.0332 114.078 49.1558 113.754 49.1018L114.41 45.1566C113.515 45.0077 112.751 45.3045 112.296 45.5264C111.826 45.7557 111.374 46.0661 111.074 46.27C110.715 46.5136 110.503 46.653 110.329 46.7392C110.141 46.8321 110.262 46.7237 110.553 46.7627L110.022 50.7266ZM113.753 49.1016C113.447 49.0506 113.352 48.8979 113.489 49.0338C113.618 49.1607 113.77 49.3539 114.026 49.6958C114.24 49.9811 114.561 50.4192 114.921 50.7872C115.268 51.1421 115.875 51.6737 116.746 51.8501L117.54 47.9302C117.845 47.9919 117.932 48.1456 117.782 47.9918C117.645 47.8512 117.491 47.65 117.228 47.2982C117.007 47.003 116.678 46.5611 116.3 46.1879C115.931 45.8236 115.302 45.3056 114.412 45.1568L113.753 49.1016ZM116.746 51.85C117.612 52.0255 118.376 51.7836 118.846 51.5903C119.33 51.3914 119.8 51.1133 120.114 50.9308C120.489 50.7128 120.703 50.5929 120.872 50.5246C121.057 50.4498 120.894 50.5628 120.571 50.4848L121.511 46.5972C120.626 46.3836 119.842 46.627 119.372 46.8167C118.887 47.0128 118.416 47.2914 118.102 47.474C117.727 47.6922 117.506 47.8169 117.325 47.8912C117.131 47.9711 117.256 47.8727 117.54 47.9302L116.746 51.85ZM120.572 50.485C120.271 50.4125 120.187 50.2532 120.313 50.3973C120.431 50.5322 120.568 50.7353 120.798 51.0944C120.989 51.3937 121.277 51.854 121.607 52.247C121.925 52.6254 122.489 53.2016 123.344 53.4437L124.434 49.5958C124.734 49.6808 124.81 49.8411 124.671 49.6751C124.543 49.5236 124.405 49.3111 124.168 48.9398C123.969 48.6282 123.674 48.163 123.322 47.7623C122.98 47.3709 122.389 46.8088 121.51 46.5969L120.572 50.485ZM123.342 53.4432C124.19 53.6843 124.969 53.5045 125.454 53.3492C125.952 53.1894 126.443 52.95 126.771 52.7931C127.162 52.6057 127.385 52.5038 127.558 52.4496C127.747 52.3901 127.572 52.4913 127.251 52.3847L128.514 48.5897C127.648 48.3017 126.843 48.482 126.361 48.6331C125.862 48.7894 125.37 49.0293 125.042 49.1861C124.651 49.3735 124.42 49.4805 124.232 49.5405C124.031 49.605 124.161 49.5181 124.436 49.5963L123.342 53.4432ZM127.253 52.3854C126.959 52.2881 126.888 52.1218 127 52.2738C127.105 52.4165 127.223 52.6296 127.419 53.006C127.583 53.3194 127.828 53.8028 128.12 54.2221C128.4 54.6252 128.908 55.2505 129.735 55.5701L131.178 51.8399C131.469 51.9526 131.529 52.119 131.404 51.9387C131.29 51.7744 131.171 51.5497 130.967 51.1573C130.795 50.8279 130.541 50.3376 130.224 49.9065C129.914 49.4846 129.372 48.874 128.512 48.589L127.253 52.3854ZM129.735 55.57C130.553 55.8865 131.342 55.7834 131.84 55.6759C132.351 55.5654 132.863 55.3754 133.204 55.2515C133.612 55.1035 133.843 55.0244 134.019 54.988C134.212 54.948 134.023 55.0322 133.711 54.8912L135.357 51.2463C134.523 50.8695 133.702 50.9692 133.207 51.0717C132.695 51.1777 132.181 51.3681 131.839 51.4921C131.431 51.6402 131.189 51.7247 130.995 51.7667C130.786 51.8117 130.918 51.7393 131.178 51.84L129.735 55.57ZM133.71 54.891C133.428 54.7636 133.374 54.5902 133.467 54.7496C133.554 54.9 133.648 55.123 133.8 55.5166C133.927 55.8438 134.116 56.3505 134.356 56.7974C134.587 57.2261 135.017 57.9044 135.796 58.3182L137.673 54.7863C137.947 54.9323 137.987 55.1029 137.881 54.9054C137.784 54.726 137.692 54.4879 137.531 54.0729C137.396 53.7243 137.197 53.2077 136.927 52.7424C136.662 52.286 136.186 51.6207 135.358 51.2465L133.71 54.891ZM135.796 58.3182C136.565 58.7269 137.357 58.7238 137.863 58.68C138.384 58.6349 138.915 58.5121 139.269 58.4331C139.691 58.3387 139.928 58.2907 140.104 58.2777C140.298 58.2634 140.089 58.323 139.79 58.1346L141.926 54.7525C141.145 54.2602 140.313 54.2519 139.809 54.2891C139.287 54.3276 138.752 54.4505 138.397 54.5297C137.973 54.6244 137.72 54.6779 137.518 54.6954C137.303 54.7141 137.434 54.6595 137.673 54.7864L135.796 58.3182ZM139.786 58.1317C139.523 57.9649 139.493 57.783 139.559 57.9483C139.621 58.1051 139.681 58.3366 139.771 58.7448C139.846 59.0834 139.955 59.6105 140.12 60.0837C140.277 60.536 140.59 61.2696 141.283 61.8017L143.721 58.6304C143.964 58.8177 143.974 58.9878 143.898 58.7688C143.829 58.5707 143.774 58.3187 143.677 57.8809C143.596 57.5127 143.476 56.9708 143.275 56.4676C143.078 55.9729 142.701 55.2445 141.93 54.7554L139.786 58.1317ZM141.286 61.8035C141.969 62.327 142.742 62.4611 143.245 62.5074C143.763 62.5549 144.306 62.5301 144.666 62.5169C145.097 62.501 145.334 62.4978 145.502 62.517C145.688 62.5383 145.458 62.5558 145.193 62.3015L147.962 59.4151C147.287 58.7686 146.463 58.6015 145.958 58.5436C145.435 58.4836 144.884 58.5066 144.519 58.5201C144.082 58.5362 143.82 58.5439 143.611 58.5247C143.389 58.5043 143.514 58.4725 143.718 58.6287L141.286 61.8035ZM145.193 62.3016C144.961 62.0797 144.966 61.8838 144.993 62.0449C145.019 62.2002 145.027 62.4316 145.024 62.8445C145.022 63.1849 145.01 63.7213 145.061 64.2133C145.109 64.6839 145.241 65.4607 145.774 66.1359L148.914 63.6574C149.096 63.8879 149.065 64.0422 149.04 63.8029C149.018 63.585 149.022 63.3243 149.024 62.8708C149.027 62.4899 149.029 61.9307 148.939 61.3894C148.85 60.8538 148.629 60.0552 147.962 59.4151L145.193 62.3016ZM145.775 66.1369C146.298 66.7984 146.998 67.1233 147.463 67.2981C147.941 67.4781 148.467 67.6015 148.81 67.6863C149.222 67.7882 149.443 67.8506 149.586 67.9119C149.742 67.9789 149.503 67.921 149.321 67.5858L152.841 65.6837C152.389 64.848 151.64 64.4408 151.162 64.2359C150.67 64.0252 150.131 63.893 149.77 63.8038C149.34 63.6974 149.08 63.6331 148.872 63.5549C148.65 63.4715 148.764 63.4678 148.913 63.6563L145.775 66.1369ZM149.324 67.5897C149.157 67.2831 149.229 67.0716 149.204 67.2173C149.18 67.359 149.114 67.5711 148.973 67.9561C148.858 68.2719 148.667 68.7711 148.546 69.2465C148.431 69.7036 148.289 70.4601 148.529 71.2615L152.362 70.1165C152.437 70.3659 152.363 70.4704 152.425 70.2275C152.482 70.0028 152.576 69.7537 152.732 69.3248C152.863 68.9651 153.054 68.4361 153.147 67.892C153.239 67.3519 153.29 66.5099 152.838 65.6799L149.324 67.5897ZM148.528 71.2578C148.764 72.0541 149.287 72.6117 149.635 72.9375C149.996 73.2749 150.427 73.592 150.697 73.797C151.025 74.0465 151.194 74.1883 151.289 74.2924C151.388 74.4006 151.202 74.2502 151.179 73.884L155.172 73.6351C155.113 72.6824 154.609 71.9953 154.241 71.5933C153.87 71.1872 153.423 70.8453 153.119 70.6142C152.757 70.3387 152.541 70.1783 152.37 70.018C152.186 69.846 152.293 69.8856 152.363 70.1202L148.528 71.2578Z" fill="white" mask="url(#path-1-inside-1_2564_19391)"/>
<path d="M39.2087 74.9835C39.0703 74.1632 39.1247 73.4037 39.372 72.705C39.6179 71.9984 40.0265 71.4144 40.5978 70.9531C41.1757 70.4826 41.867 70.1795 42.6718 70.0439C43.658 69.8777 44.5462 69.9957 45.3362 70.3979C46.1262 70.8001 46.7154 71.4308 47.1038 72.2901L44.8789 72.6651C44.6546 72.346 44.3734 72.1216 44.035 71.9921C43.7046 71.8612 43.3461 71.8284 42.9595 71.8935C42.3362 71.9986 41.8678 72.3006 41.5544 72.7995C41.241 73.2985 41.1455 73.9108 41.2679 74.6364C41.3904 75.3621 41.6815 75.9092 42.1413 76.2778C42.6011 76.6465 43.1426 76.7783 43.7659 76.6732C44.1525 76.6081 44.4804 76.4595 44.7496 76.2276C45.0267 75.9943 45.2189 75.6902 45.326 75.3152L47.551 74.9402C47.466 75.8793 47.1163 76.6683 46.5019 77.3072C45.8862 77.9382 45.0852 78.3368 44.099 78.503C43.2942 78.6387 42.5423 78.5829 41.8434 78.3357C41.151 78.0792 40.5733 77.6615 40.1105 77.0825C39.6477 76.5034 39.3471 75.8038 39.2087 74.9835ZM50.3649 71.7283C50.5404 71.3256 50.7884 70.9918 51.1088 70.7269C51.428 70.4541 51.8045 70.2811 52.2384 70.208L52.5997 72.3494L52.0435 72.4431C51.5385 72.5282 51.1784 72.7025 50.9632 72.9659C50.7467 73.2214 50.6843 73.6213 50.7761 74.1655L51.2931 77.2297L49.2694 77.5708L48.1555 70.9691L50.1793 70.628L50.3649 71.7283ZM59.9818 72.2611C60.0138 72.4504 60.0352 72.6496 60.0461 72.8587L55.466 73.6306C55.5668 74.0354 55.7502 74.329 56.0163 74.5112C56.2889 74.6843 56.5948 74.7422 56.9341 74.6851C57.4391 74.6 57.7542 74.3278 57.8796 73.8687L60.0336 73.5057C59.9963 73.9581 59.861 74.3824 59.6276 74.7786C59.4021 75.1736 59.089 75.5062 58.6884 75.7765C58.2877 76.0468 57.8191 76.2272 57.2826 76.3176C56.6356 76.4267 56.0363 76.3857 55.4848 76.1947C54.9333 76.0038 54.4722 75.6759 54.1017 75.2111C53.7312 74.7463 53.488 74.1708 53.3722 73.4846C53.2565 72.7984 53.2934 72.1757 53.4831 71.6165C53.6806 71.0559 54.0086 70.5951 54.4669 70.2339C54.9253 69.8728 55.4819 69.637 56.1368 69.5266C56.7759 69.4189 57.3666 69.4573 57.9089 69.6416C58.4512 69.826 58.9024 70.1434 59.2623 70.5938C59.6302 71.0428 59.87 71.5986 59.9818 72.2611ZM57.8209 72.0778C57.7623 71.7308 57.5974 71.4746 57.3261 71.3095C57.0548 71.1443 56.7417 71.0916 56.3866 71.1515C56.0473 71.2086 55.776 71.3558 55.5726 71.5928C55.377 71.8286 55.2822 72.1325 55.2882 72.5046L57.8209 72.0778ZM60.663 72.2437C60.5486 71.5653 60.5744 70.9486 60.7403 70.3933C60.9142 69.8368 61.1988 69.3832 61.594 69.0327C61.9893 68.6822 62.4591 68.4611 63.0035 68.3693C63.469 68.2909 63.8913 68.317 64.2704 68.4478C64.6574 68.5773 64.9715 68.7798 65.2128 69.0555L65.0551 68.1209L67.0789 67.7798L68.1927 74.3815L66.1689 74.7226L66.0112 73.7879C65.8659 74.1288 65.6317 74.4238 65.3085 74.6729C64.9933 74.9207 64.603 75.0838 64.1375 75.1623C63.6009 75.2527 63.0885 75.1971 62.6001 74.9955C62.1103 74.7861 61.692 74.4469 61.3452 73.9781C61.0049 73.5001 60.7775 72.922 60.663 72.2437ZM65.612 71.4217C65.5269 70.9169 65.3176 70.5426 64.9844 70.2986C64.659 70.0533 64.2951 69.9646 63.8927 70.0324C63.4903 70.1002 63.1717 70.304 62.9369 70.6437C62.7087 70.9742 62.6371 71.3918 62.7223 71.8966C62.8075 72.4014 63.0134 72.7804 63.3401 73.0335C63.6734 73.2775 64.0412 73.3656 64.4436 73.2978C64.846 73.2299 65.1607 73.0268 65.3876 72.6885C65.6224 72.3488 65.6972 71.9265 65.612 71.4217ZM73.048 71.7989L73.3374 73.5144L72.3078 73.6879C71.574 73.8116 70.9721 73.7306 70.5019 73.4448C70.0304 73.1511 69.7262 72.5981 69.5891 71.7857L69.146 69.1592L68.3412 69.2948L68.0578 67.6148L68.8625 67.4792L68.5911 65.8702L70.6148 65.5291L70.8863 67.1381L72.2118 66.9147L72.4952 68.5947L71.1697 68.8181L71.6169 71.4683C71.6501 71.6654 71.7214 71.7994 71.8307 71.8702C71.9401 71.941 72.1052 71.9578 72.3261 71.9206L73.048 71.7989ZM80.115 68.8679C80.1469 69.0572 80.1684 69.2564 80.1793 69.4654L75.5992 70.2374C75.7 70.6422 75.8834 70.9357 76.1494 71.118C76.4221 71.2911 76.728 71.349 77.0673 71.2919C77.5722 71.2068 77.8874 70.9346 78.0128 70.4755L80.1667 70.1124C80.1295 70.5649 79.9942 70.9892 79.7608 71.3854C79.5353 71.7803 79.2222 72.113 78.8215 72.3833C78.4209 72.6536 77.9523 72.834 77.4157 72.9244C76.7688 73.0334 76.1695 72.9925 75.618 72.8015C75.0665 72.6106 74.6054 72.2827 74.2349 71.8179C73.8644 71.3531 73.6212 70.7776 73.5054 70.0914C73.3897 69.4052 73.4266 68.7825 73.6162 68.2233C73.8138 67.6627 74.1417 67.2019 74.6001 66.8407C75.0585 66.4795 75.6151 66.2438 76.27 66.1334C76.9091 66.0257 77.4998 66.064 78.0421 66.2484C78.5844 66.4328 79.0355 66.7502 79.3955 67.2006C79.7634 67.6496 80.0032 68.2054 80.115 68.8679ZM77.9541 68.6846C77.8955 68.3375 77.7306 68.0814 77.4593 67.9163C77.188 67.7511 76.8748 67.6984 76.5198 67.7582C76.1805 67.8154 75.9092 67.9625 75.7057 68.1996C75.5102 68.4354 75.4154 68.7393 75.4214 69.1114L77.9541 68.6846ZM80.7962 68.8504C80.6818 68.1721 80.7075 67.5554 80.8735 67.0001C81.0474 66.4436 81.332 65.99 81.7272 65.6395C82.1225 65.289 82.5923 65.0679 83.1367 64.9761C83.5707 64.903 83.9805 64.9272 84.3661 65.0487C84.7597 65.169 85.085 65.3656 85.342 65.6387L84.825 62.5744L86.8488 62.2333L88.3259 70.9883L86.3021 71.3294L86.1424 70.3829C86.0063 70.7303 85.7767 71.0286 85.4536 71.2777C85.1383 71.5255 84.748 71.6886 84.2825 71.7671C83.7381 71.8588 83.2217 71.8039 82.7332 71.6023C82.2435 71.3929 81.8252 71.0537 81.4783 70.5849C81.138 70.1069 80.9107 69.5288 80.7962 68.8504ZM85.7452 68.0285C85.66 67.5237 85.4508 67.1494 85.1175 66.9054C84.7922 66.6601 84.4283 66.5714 84.0259 66.6392C83.6235 66.707 83.3049 66.9108 83.0701 67.2505C82.8419 67.581 82.7703 67.9986 82.8555 68.5034C82.9407 69.0082 83.1466 69.3872 83.4733 69.6403C83.8066 69.8843 84.1744 69.9724 84.5768 69.9045C84.9792 69.8367 85.2938 69.6336 85.5207 69.2953C85.7555 68.9556 85.8304 68.5333 85.7452 68.0285ZM92.885 61.6784L93.7233 66.6474C93.8072 67.1443 93.994 67.5062 94.2838 67.7332C94.5737 67.9601 94.9553 68.0337 95.4287 67.9539C95.9021 67.8741 96.2424 67.6789 96.4496 67.3682C96.6568 67.0574 96.7185 66.6536 96.6347 66.1567L95.7963 61.1877L97.8201 60.8466L98.6565 65.8038C98.7816 66.5452 98.7296 67.1989 98.5005 67.7647C98.2714 68.3306 97.9105 68.7889 97.4179 69.1396C96.9332 69.489 96.3634 69.7188 95.7085 69.8292C95.0537 69.9396 94.4446 69.9124 93.8813 69.7478C93.3245 69.574 92.853 69.256 92.4667 68.7938C92.079 68.3238 91.8226 67.7181 91.6976 66.9766L90.8612 62.0195L92.885 61.6784ZM103.345 68.5543C102.769 68.6514 102.24 68.6392 101.757 68.5179C101.274 68.3965 100.873 68.1881 100.556 67.8929C100.237 67.5897 100.026 67.2278 99.9221 66.8072L101.922 66.4701C101.985 66.6949 102.122 66.8623 102.336 66.9723C102.549 67.0824 102.794 67.1142 103.07 67.0676C103.322 67.0251 103.508 66.9452 103.626 66.8279C103.75 66.7014 103.8 66.5593 103.773 66.4016C103.741 66.2123 103.619 66.0909 103.407 66.0374C103.194 65.976 102.857 65.9273 102.397 65.8913C101.905 65.8607 101.491 65.8128 101.155 65.7477C100.818 65.6747 100.514 65.5273 100.241 65.3056C99.9668 65.076 99.7918 64.7364 99.716 64.2868C99.6521 63.9082 99.6968 63.5478 99.85 63.2057C100.01 62.8543 100.276 62.554 100.647 62.3047C101.027 62.0542 101.497 61.8817 102.057 61.7873C102.886 61.6477 103.571 61.743 104.114 62.0734C104.664 62.4024 105.032 62.9001 105.218 63.5664L103.348 63.8816C103.278 63.6582 103.144 63.494 102.948 63.3892C102.76 63.2831 102.528 63.2532 102.252 63.2998C102.015 63.3397 101.841 63.4176 101.731 63.5335C101.619 63.6415 101.577 63.7744 101.604 63.9322C101.636 64.1215 101.758 64.2468 101.971 64.3082C102.192 64.3683 102.524 64.4098 102.966 64.4326C103.476 64.4764 103.896 64.5354 104.225 64.6097C104.553 64.6762 104.854 64.8282 105.13 65.0657C105.412 65.2939 105.595 65.6361 105.68 66.0923C105.746 66.4788 105.694 66.8444 105.525 67.1893C105.362 67.5249 105.09 67.814 104.709 68.0567C104.336 68.298 103.881 68.4639 103.345 68.5543ZM107.03 60.3408C106.675 60.4006 106.366 60.3473 106.102 60.1808C105.845 60.0051 105.691 59.7634 105.639 59.4558C105.586 59.1403 105.653 58.8614 105.839 58.6191C106.032 58.3676 106.306 58.2119 106.661 58.1521C107.008 58.0935 107.31 58.1522 107.567 58.3279C107.83 58.4944 107.988 58.7354 108.042 59.0509C108.094 59.3585 108.023 59.6381 107.83 59.8896C107.644 60.1319 107.377 60.2823 107.03 60.3408ZM108.152 60.8574L109.266 67.4591L107.242 67.8002L106.128 61.1985L108.152 60.8574ZM113.63 59.8611C114.403 59.7308 115.061 59.8795 115.604 60.3071C116.154 60.7256 116.502 61.3725 116.65 62.248L117.301 66.1049L115.289 66.444L114.684 62.8592C114.609 62.4175 114.437 62.0937 114.167 61.8878C113.897 61.6818 113.569 61.6114 113.182 61.6766C112.795 61.7418 112.508 61.9159 112.321 62.1989C112.133 62.482 112.077 62.8444 112.151 63.2861L112.756 66.8709L110.732 67.212L109.618 60.6103L111.642 60.2692L111.79 61.1447C111.946 60.8183 112.183 60.543 112.503 60.3189C112.82 60.0868 113.196 59.9342 113.63 59.8611ZM120.086 58.7487C120.552 58.6703 120.974 58.6964 121.353 58.8272C121.74 58.9567 122.054 59.1592 122.295 59.4349L122.138 58.5003L124.161 58.1592L125.273 64.7491C125.376 65.3564 125.346 65.9252 125.184 66.4554C125.031 66.9922 124.731 67.4484 124.283 67.824C123.843 68.1983 123.256 68.4473 122.522 68.5709C121.544 68.7358 120.712 68.6368 120.026 68.2738C119.341 67.9187 118.889 67.3542 118.669 66.5801L120.669 66.243C120.775 66.4847 120.958 66.6566 121.218 66.7587C121.48 66.8687 121.785 66.8944 122.132 66.8359C122.55 66.7654 122.861 66.5873 123.064 66.3016C123.277 66.0224 123.339 65.6186 123.249 65.0902L123.092 64.1555C122.946 64.4964 122.717 64.7946 122.403 65.0503C122.088 65.2981 121.697 65.4613 121.232 65.5397C120.687 65.6315 120.171 65.5765 119.683 65.375C119.193 65.1655 118.775 64.8263 118.428 64.3575C118.087 63.8795 117.86 63.3014 117.746 62.6231C117.631 61.9448 117.657 61.328 117.823 60.7728C117.997 60.2162 118.281 59.7627 118.677 59.4121C119.072 59.0616 119.542 58.8405 120.086 58.7487ZM122.695 61.8011C122.609 61.2963 122.4 60.922 122.067 60.678C121.741 60.4327 121.378 60.344 120.975 60.4118C120.573 60.4796 120.254 60.6834 120.019 61.0231C119.791 61.3536 119.72 61.7712 119.805 62.276C119.89 62.7808 120.096 63.1598 120.423 63.4129C120.756 63.6569 121.124 63.745 121.526 63.6772C121.929 63.6093 122.243 63.4062 122.47 63.0679C122.705 62.7282 122.78 62.3059 122.695 61.8011Z" fill="white"/>
<path d="M66.1415 91.8336L65.6654 88.9896L70.7752 88.1351L71.8754 94.7066C72.2822 97.1364 71.3439 98.5423 69.0606 98.9241L65.5804 99.5061C63.2971 99.888 61.9521 98.864 61.5453 96.4342L59.6824 85.3067C59.2757 82.8769 60.2139 81.4711 62.4972 81.0892L65.9774 80.5072C68.2607 80.1254 69.6058 81.1493 70.0125 83.5792L70.2945 85.2635L66.621 85.8778L66.2604 83.7241C66.2358 83.5768 66.159 83.4572 66.03 83.3653C65.9194 83.2702 65.7905 83.235 65.6432 83.2596L63.9031 83.5506C63.7558 83.5753 63.6361 83.6521 63.5441 83.781C63.4705 83.9068 63.4461 84.0434 63.4707 84.1906L65.4861 96.2293C65.5108 96.3765 65.5784 96.4977 65.6889 96.5927C65.8179 96.6847 65.9561 96.7184 66.1034 96.6937L67.8435 96.4027C67.9908 96.3781 68.1012 96.3029 68.1748 96.177C68.2668 96.0481 68.3005 95.91 68.2758 95.7627L67.5778 91.5934L66.1415 91.8336ZM77.9016 93.8692L82.1827 93.1532L82.719 96.3561L74.5709 97.7188L71.5801 79.8541L79.7282 78.4915L80.2552 81.6392L75.974 82.3551L76.6766 86.5521L80.6816 85.8823L81.1901 88.9196L77.1851 89.5894L77.9016 93.8692ZM95.2028 94.2684L91.3359 94.9151L88.8537 80.0877C88.829 79.9404 88.7522 79.8208 88.6232 79.7288C88.5127 79.6338 88.3837 79.5986 88.2364 79.6232L86.7449 79.8726C86.5976 79.8973 86.478 79.9741 86.386 80.103C86.3124 80.2288 86.2879 80.3654 86.3126 80.5126L88.7948 95.34L84.928 95.9867L82.5012 81.4906C82.0944 79.0608 83.0326 77.655 85.3159 77.2732L88.7409 76.7004C91.0242 76.3185 92.3693 77.3425 92.776 79.7723L95.2028 94.2684ZM105.78 82.6785L106.274 85.6329L96.8558 87.2081L96.3612 84.2536L105.78 82.6785ZM114.318 72.423C116.601 72.0412 117.946 73.0652 118.353 75.495L120.78 89.9911L116.913 90.6377L115.91 84.646L113.12 85.1125L114.123 91.1043L110.256 91.7509L107.83 77.2549C107.423 74.825 108.361 73.4192 110.644 73.0374L114.318 72.423ZM112.621 82.1305L115.411 81.664L114.408 75.6723C114.383 75.525 114.306 75.4054 114.177 75.3134C114.067 75.2184 113.938 75.1832 113.79 75.2078L112.05 75.4988C111.903 75.5234 111.783 75.6002 111.691 75.7291C111.618 75.855 111.593 75.9915 111.618 76.1388L112.621 82.1305ZM124.538 70.9977L127.529 88.8624L123.662 89.509L120.671 71.6444L124.538 70.9977Z" fill="white"/>
</svg>
