<svg width="140" height="90" viewBox="0 0 140 90" fill="none" xmlns="http://www.w3.org/2000/svg">
<g filter="url(#filter0_d_2564_19399)">
<path d="M136.957 42.3296L129.038 47.5847L133.203 56.114L123.708 57.1435L124.297 66.6491L114.939 64.6886L113.137 74.0568L104.387 70.1983L100.949 79.1072L92.9124 73.9271L88.2452 82.2627L80.956 76.0767L75.2961 83.7749L68.7871 76.7749L62.2797 83.7749L56.6181 76.0767L49.329 82.2627L44.6618 73.9271L36.6253 79.1072L33.1871 70.1983L24.4376 74.0568L22.6348 64.6871L13.2755 66.6475L13.865 57.1435L4.37122 56.114L8.53647 47.5847L0.617188 42.3296L8.53647 37.073L4.37122 28.5437L13.8665 27.5143L13.2771 18.0102L22.6348 19.9707L24.4376 10.6009L33.1871 14.461L36.6253 5.55206L44.6618 10.7321L49.329 2.39653L56.6181 8.58106L62.2797 0.882812L68.7871 7.88435L75.2945 0.882812L80.956 8.58106L88.2452 2.39653L92.9124 10.7321L100.949 5.55206L104.387 14.461L113.137 10.6009L114.939 19.9707L124.299 18.0117L123.708 27.5158L133.203 28.5453L129.038 37.073L136.957 42.3296Z" fill="#FA543C"/>
</g>
<path d="M29.3997 33.7327C29.3997 32.923 29.5749 32.2027 29.9253 31.5721C30.2757 30.9336 30.7623 30.4392 31.3852 30.0888C32.0159 29.7307 32.7283 29.5516 33.5225 29.5516C34.4957 29.5516 35.3288 29.8085 36.0218 30.3224C36.7147 30.8363 37.178 31.537 37.4116 32.4246H35.2159C35.0524 32.0821 34.8188 31.8212 34.5152 31.6421C34.2193 31.4631 33.8806 31.3735 33.4991 31.3735C32.884 31.3735 32.3857 31.5876 32.0042 32.0159C31.6227 32.4441 31.4319 33.0164 31.4319 33.7327C31.4319 34.449 31.6227 35.0213 32.0042 35.4495C32.3857 35.8778 32.884 36.0919 33.4991 36.0919C33.8806 36.0919 34.2193 36.0023 34.5152 35.8233C34.8188 35.6442 35.0524 35.3834 35.2159 35.0408H37.4116C37.178 35.9284 36.7147 36.6291 36.0218 37.143C35.3288 37.6491 34.4957 37.9021 33.5225 37.9021C32.7283 37.9021 32.0159 37.727 31.3852 37.3766C30.7623 37.0184 30.2757 36.524 29.9253 35.8933C29.5749 35.2627 29.3997 34.5425 29.3997 33.7327ZM40.6317 32.413C40.8653 32.0548 41.1573 31.7745 41.5077 31.5721C41.8581 31.3618 42.2474 31.2567 42.6756 31.2567V33.3707H42.1267C41.6284 33.3707 41.2546 33.4797 41.0055 33.6977C40.7563 33.9079 40.6317 34.2816 40.6317 34.8189V37.8438H38.6346V31.3268H40.6317V32.413ZM49.7734 34.4802C49.7734 34.667 49.7617 34.8617 49.7383 35.0641H45.2185C45.2497 35.469 45.3781 35.7804 45.6039 35.9985C45.8375 36.2087 46.1217 36.3138 46.4565 36.3138C46.9548 36.3138 47.3013 36.1036 47.496 35.6831H49.6216C49.5125 36.1114 49.314 36.4968 49.0259 36.8393C48.7456 37.1819 48.3914 37.4506 47.9631 37.6452C47.5349 37.8399 47.056 37.9372 46.5266 37.9372C45.8881 37.9372 45.3197 37.8009 44.8214 37.5284C44.3231 37.2559 43.9338 36.8666 43.6535 36.3605C43.3732 35.8544 43.2331 35.2627 43.2331 34.5853C43.2331 33.9079 43.3693 33.3162 43.6419 32.8101C43.9222 32.304 44.3115 31.9147 44.8098 31.6421C45.3081 31.3696 45.8803 31.2334 46.5266 31.2334C47.1573 31.2334 47.7179 31.3657 48.2084 31.6305C48.6989 31.8952 49.0804 32.2728 49.3529 32.7633C49.6332 33.2539 49.7734 33.8261 49.7734 34.4802ZM47.7295 33.9546C47.7295 33.612 47.6127 33.3395 47.3792 33.1371C47.1456 32.9346 46.8536 32.8334 46.5032 32.8334C46.1684 32.8334 45.8842 32.9307 45.6507 33.1254C45.4249 33.32 45.2847 33.5965 45.2302 33.9546H47.7295ZM50.4299 34.5736C50.4299 33.904 50.5544 33.3162 50.8036 32.8101C51.0605 32.304 51.407 31.9147 51.843 31.6421C52.2791 31.3696 52.7657 31.2334 53.3029 31.2334C53.7623 31.2334 54.1633 31.3268 54.5059 31.5137C54.8563 31.7005 55.1249 31.9458 55.3117 32.2495V31.3268H57.3089V37.8438H55.3117V36.9211C55.1171 37.2248 54.8446 37.47 54.4942 37.6569C54.1516 37.8438 53.7506 37.9372 53.2913 37.9372C52.7618 37.9372 52.2791 37.8009 51.843 37.5284C51.407 37.2481 51.0605 36.8549 50.8036 36.3488C50.5544 35.8349 50.4299 35.2432 50.4299 34.5736ZM55.3117 34.5853C55.3117 34.087 55.1716 33.6938 54.8913 33.4057C54.6188 33.1176 54.284 32.9736 53.8869 32.9736C53.4898 32.9736 53.1511 33.1176 52.8708 33.4057C52.5983 33.686 52.462 34.0753 52.462 34.5736C52.462 35.0719 52.5983 35.469 52.8708 35.7649C53.1511 36.053 53.4898 36.197 53.8869 36.197C54.284 36.197 54.6188 36.053 54.8913 35.7649C55.1716 35.4768 55.3117 35.0836 55.3117 34.5853ZM62.3859 36.1503V37.8438H61.3698C60.6457 37.8438 60.0812 37.6686 59.6763 37.3182C59.2715 36.96 59.069 36.38 59.069 35.578V32.9852H58.2749V31.3268H59.069V29.7385H61.0662V31.3268H62.3742V32.9852H61.0662V35.6014C61.0662 35.796 61.1129 35.9362 61.2063 36.0218C61.2997 36.1075 61.4555 36.1503 61.6735 36.1503H62.3859ZM69.6415 34.4802C69.6415 34.667 69.6299 34.8617 69.6065 35.0641H65.0867C65.1178 35.469 65.2463 35.7804 65.4721 35.9985C65.7057 36.2087 65.9899 36.3138 66.3247 36.3138C66.823 36.3138 67.1695 36.1036 67.3641 35.6831H69.4897C69.3807 36.1114 69.1822 36.4968 68.8941 36.8393C68.6138 37.1819 68.2595 37.4506 67.8313 37.6452C67.403 37.8399 66.9242 37.9372 66.3947 37.9372C65.7563 37.9372 65.1879 37.8009 64.6896 37.5284C64.1913 37.2559 63.802 36.8666 63.5217 36.3605C63.2414 35.8544 63.1012 35.2627 63.1012 34.5853C63.1012 33.9079 63.2375 33.3162 63.51 32.8101C63.7903 32.304 64.1796 31.9147 64.6779 31.6421C65.1762 31.3696 65.7485 31.2334 66.3947 31.2334C67.0254 31.2334 67.586 31.3657 68.0765 31.6305C68.5671 31.8952 68.9486 32.2728 69.2211 32.7633C69.5014 33.2539 69.6415 33.8261 69.6415 34.4802ZM67.5977 33.9546C67.5977 33.612 67.4809 33.3395 67.2473 33.1371C67.0137 32.9346 66.7218 32.8334 66.3714 32.8334C66.0366 32.8334 65.7524 32.9307 65.5188 33.1254C65.293 33.32 65.1529 33.5965 65.0984 33.9546H67.5977ZM70.298 34.5736C70.298 33.904 70.4226 33.3162 70.6718 32.8101C70.9287 32.304 71.2752 31.9147 71.7112 31.6421C72.1472 31.3696 72.6338 31.2334 73.1711 31.2334C73.5993 31.2334 73.9886 31.3229 74.339 31.502C74.6972 31.6811 74.9775 31.9224 75.1799 32.2261V29.2012H77.177V37.8438H75.1799V36.9094C74.993 37.2209 74.7244 37.47 74.374 37.6569C74.0314 37.8438 73.6305 37.9372 73.1711 37.9372C72.6338 37.9372 72.1472 37.8009 71.7112 37.5284C71.2752 37.2481 70.9287 36.8549 70.6718 36.3488C70.4226 35.8349 70.298 35.2432 70.298 34.5736ZM75.1799 34.5853C75.1799 34.087 75.0397 33.6938 74.7594 33.4057C74.4869 33.1176 74.1521 32.9736 73.755 32.9736C73.358 32.9736 73.0193 33.1176 72.739 33.4057C72.4664 33.686 72.3302 34.0753 72.3302 34.5736C72.3302 35.0719 72.4664 35.469 72.739 35.7649C73.0193 36.053 73.358 36.197 73.755 36.197C74.1521 36.197 74.4869 36.053 74.7594 35.7649C75.0397 35.4768 75.1799 35.0836 75.1799 34.5853ZM83.0589 29.645V34.5502C83.0589 35.0408 83.1796 35.4184 83.421 35.6831C83.6623 35.9478 84.0166 36.0802 84.4838 36.0802C84.9509 36.0802 85.3091 35.9478 85.5582 35.6831C85.8074 35.4184 85.932 35.0408 85.932 34.5502V29.645H87.9291V34.5386C87.9291 35.2705 87.7734 35.8894 87.4619 36.3955C87.1505 36.9016 86.73 37.2832 86.2006 37.5401C85.6789 37.797 85.095 37.9255 84.4487 37.9255C83.8025 37.9255 83.2224 37.8009 82.7085 37.5518C82.2024 37.2948 81.8015 36.9133 81.5056 36.4072C81.2097 35.8933 81.0618 35.2705 81.0618 34.5386V29.645H83.0589ZM91.9826 37.9372C91.4143 37.9372 90.9082 37.8399 90.4644 37.6452C90.0206 37.4506 89.6702 37.1858 89.4132 36.851C89.1563 36.5084 89.0123 36.1269 88.9811 35.7065H90.9549C90.9782 35.9323 91.0834 36.1152 91.2702 36.2554C91.4571 36.3955 91.6868 36.4656 91.9593 36.4656C92.2084 36.4656 92.3992 36.4189 92.5316 36.3255C92.6717 36.2242 92.7418 36.0958 92.7418 35.9401C92.7418 35.7532 92.6445 35.6169 92.4498 35.5313C92.2552 35.4379 91.9398 35.3366 91.5038 35.2276C91.0366 35.1186 90.6473 35.0057 90.3359 34.8889C90.0245 34.7644 89.7558 34.5736 89.53 34.3167C89.3042 34.0519 89.1913 33.6977 89.1913 33.2539C89.1913 32.8801 89.2926 32.5414 89.495 32.2378C89.7052 31.9263 90.0089 31.6811 90.406 31.502C90.8108 31.3229 91.2897 31.2334 91.8425 31.2334C92.66 31.2334 93.3024 31.4358 93.7695 31.8407C94.2445 32.2456 94.517 32.7828 94.5871 33.4524H92.7418C92.7106 33.2266 92.6094 33.0475 92.4381 32.9152C92.2746 32.7828 92.0566 32.7166 91.7841 32.7166C91.5505 32.7166 91.3714 32.7633 91.2469 32.8568C91.1223 32.9424 91.06 33.0631 91.06 33.2188C91.06 33.4057 91.1573 33.5458 91.352 33.6393C91.5544 33.7327 91.8659 33.8261 92.2863 33.9196C92.769 34.0441 93.1622 34.1687 93.4659 34.2933C93.7695 34.4101 94.0343 34.6047 94.2601 34.8773C94.4937 35.142 94.6143 35.5001 94.6221 35.9517C94.6221 36.3333 94.5131 36.6758 94.2951 36.9795C94.0849 37.2754 93.7773 37.5089 93.3725 37.6802C92.9754 37.8515 92.5121 37.9372 91.9826 37.9372ZM96.8484 30.6494C96.498 30.6494 96.2099 30.5482 95.9841 30.3458C95.7661 30.1355 95.6571 29.8786 95.6571 29.5749C95.6571 29.2635 95.7661 29.0066 95.9841 28.8041C96.2099 28.5939 96.498 28.4888 96.8484 28.4888C97.1909 28.4888 97.4712 28.5939 97.6893 28.8041C97.915 29.0066 98.0279 29.2635 98.0279 29.5749C98.0279 29.8786 97.915 30.1355 97.6893 30.3458C97.4712 30.5482 97.1909 30.6494 96.8484 30.6494ZM97.8411 31.3268V37.8438H95.844V31.3268H97.8411ZM103.259 31.2567C104.022 31.2567 104.63 31.5059 105.081 32.0042C105.541 32.4947 105.77 33.1721 105.77 34.0364V37.8438H103.785V34.305C103.785 33.869 103.672 33.5303 103.446 33.2889C103.22 33.0475 102.917 32.9268 102.535 32.9268C102.154 32.9268 101.85 33.0475 101.624 33.2889C101.398 33.5303 101.286 33.869 101.286 34.305V37.8438H99.2884V31.3268H101.286V32.1911C101.488 31.903 101.76 31.6772 102.103 31.5137C102.446 31.3424 102.831 31.2567 103.259 31.2567ZM109.634 31.2334C110.093 31.2334 110.494 31.3268 110.837 31.5137C111.187 31.7005 111.456 31.9458 111.643 32.2495V31.3268H113.64V37.8321C113.64 38.4316 113.519 38.9727 113.278 39.4555C113.044 39.946 112.682 40.3353 112.192 40.6234C111.709 40.9115 111.106 41.0555 110.382 41.0555C109.416 41.0555 108.634 40.8258 108.034 40.3664C107.434 39.9148 107.092 39.2997 107.006 38.5211H108.98C109.042 38.7703 109.19 38.9649 109.424 39.1051C109.657 39.253 109.945 39.327 110.288 39.327C110.701 39.327 111.028 39.2063 111.269 38.9649C111.518 38.7314 111.643 38.3537 111.643 37.8321V36.9094C111.448 37.2131 111.18 37.4622 110.837 37.6569C110.494 37.8438 110.093 37.9372 109.634 37.9372C109.097 37.9372 108.61 37.8009 108.174 37.5284C107.738 37.2481 107.392 36.8549 107.135 36.3488C106.886 35.8349 106.761 35.2432 106.761 34.5736C106.761 33.904 106.886 33.3162 107.135 32.8101C107.392 32.304 107.738 31.9147 108.174 31.6421C108.61 31.3696 109.097 31.2334 109.634 31.2334ZM111.643 34.5853C111.643 34.087 111.503 33.6938 111.222 33.4057C110.95 33.1176 110.615 32.9736 110.218 32.9736C109.821 32.9736 109.482 33.1176 109.202 33.4057C108.929 33.686 108.793 34.0753 108.793 34.5736C108.793 35.0719 108.929 35.469 109.202 35.7649C109.482 36.053 109.821 36.197 110.218 36.197C110.615 36.197 110.95 36.053 111.222 35.7649C111.503 35.4768 111.643 35.0836 111.643 34.5853Z" fill="#FBEBE9"/>
<path d="M38.2585 46.0397C38.2585 47.3744 37.7299 48.3721 36.6726 49.0329C36.818 49.099 37.003 49.2576 37.2277 49.5086C37.4655 49.7597 37.6638 50.0108 37.8224 50.2619C38.232 50.9094 38.4369 51.6759 38.4369 52.5613C38.4369 54.015 37.9149 55.0854 36.8709 55.7726C35.8269 56.4598 34.393 56.8034 32.5693 56.8034C31.6707 56.8034 30.8183 56.7307 30.0122 56.5854C29.2193 56.4268 28.6114 56.255 28.1885 56.07C27.7656 55.8717 27.5542 55.6933 27.5542 55.5347C27.5542 54.8079 27.6335 54.167 27.7921 53.6119C27.9506 53.0569 28.129 52.6671 28.3273 52.4424C28.5255 52.2045 28.7171 52.0856 28.9021 52.0856C28.955 52.0856 29.3052 52.2045 29.9527 52.4424C30.6003 52.6803 31.2346 52.7992 31.8557 52.7992C32.49 52.7992 32.8072 52.601 32.8072 52.2045C32.8072 51.6627 32.1398 51.372 30.8051 51.3323C30.2765 51.3191 29.9858 51.3059 29.9329 51.2927C29.6554 51.2002 29.5166 50.6187 29.5166 49.5483C29.5166 48.4779 29.6554 47.8898 29.9329 47.7841C29.9858 47.7576 30.2765 47.7444 30.8051 47.7444C32.1398 47.718 32.8072 47.4471 32.8072 46.9317C32.8072 46.5352 32.5165 46.337 31.935 46.337C31.3668 46.337 30.7324 46.4758 30.032 46.7533C29.3316 47.0308 28.9484 47.1696 28.8823 47.1696C28.5784 47.1696 28.3008 46.7268 28.0497 45.8414C27.7987 44.956 27.6731 44.3283 27.6731 43.9583C27.6731 43.6147 28.0564 43.2645 28.8228 42.9077C29.6686 42.5244 30.9108 42.3328 32.5495 42.3328C36.3555 42.3328 38.2585 43.5684 38.2585 46.0397ZM46.1553 56.625H41.4772C40.8296 56.625 40.3935 56.5787 40.1689 56.4862C39.9442 56.3937 39.8319 56.2418 39.8319 56.0303V43.5222C39.8319 43.1786 39.9773 42.9341 40.268 42.7887C40.5587 42.6302 41.0609 42.5509 41.7745 42.5509H46.2346C48.7719 42.5509 50.5229 43.053 51.4877 44.0574C52.4524 45.0485 52.9347 46.859 52.9347 49.4888C52.9347 52.1186 52.4325 53.9688 51.4282 55.0392C50.4238 56.0964 48.6662 56.625 46.1553 56.625ZM45.9968 45.5044C45.6796 45.5044 45.4681 45.5309 45.3624 45.5837V53.5921L46.1157 53.6714C46.5121 53.6714 46.8095 53.3542 47.0077 52.7199C47.2192 52.0856 47.3249 50.9887 47.3249 49.4293C47.3249 47.87 47.2192 46.826 47.0077 46.2974C46.7963 45.7688 46.4593 45.5044 45.9968 45.5044ZM62.6963 52.8587H54.6681C54.5227 52.8587 54.3972 52.7397 54.2915 52.5019C54.1858 52.2508 54.1329 51.9006 54.1329 51.4513C54.1329 50.9887 54.2783 50.5262 54.569 50.0637C54.8597 49.5879 55.1439 49.3501 55.4214 49.3501H63.3901C63.7337 49.3501 63.9055 49.7795 63.9055 50.6385C63.9055 51.0746 63.7667 51.557 63.4892 52.0856C63.2117 52.601 62.9474 52.8587 62.6963 52.8587ZM73.7125 56.1493C73.7125 56.2946 73.3028 56.4136 72.4835 56.5061C71.6774 56.5854 70.8646 56.625 70.0453 56.625C69.2392 56.625 68.7238 56.592 68.4991 56.5259C68.2877 56.4466 68.182 56.3211 68.182 56.1493V47.6255H65.4266C65.2812 47.6255 65.1557 47.4405 65.05 47.0704C64.9442 46.7004 64.8914 46.152 64.8914 45.4252C64.8914 44.6851 64.9707 44.0243 65.1293 43.4429C65.2878 42.8482 65.4993 42.5509 65.7636 42.5509H76.4877C76.6859 42.5509 76.8181 42.7359 76.8841 43.1059C76.9634 43.4759 77.0031 44.0111 77.0031 44.7115C77.0031 45.4119 76.9304 46.0727 76.785 46.6938C76.6396 47.3149 76.4414 47.6255 76.1903 47.6255H73.7125V56.1493ZM83.314 52.1451C83.314 53.004 83.7236 53.4335 84.543 53.4335C85.0187 53.4335 85.6398 53.275 86.4063 52.9578C87.1728 52.6274 87.5759 52.4622 87.6155 52.4622C87.8666 52.4622 88.197 52.8389 88.6066 53.5921C89.0163 54.3454 89.2212 54.9004 89.2212 55.2572C89.2212 55.7726 88.6925 56.1625 87.6353 56.4268C86.5781 56.6911 85.5407 56.8232 84.5232 56.8232C83.5188 56.8232 82.673 56.7439 81.9859 56.5854C81.3119 56.4268 80.7568 56.2285 80.3207 55.9907C79.8979 55.7396 79.5212 55.4356 79.1908 55.0788C78.8737 54.722 78.6358 54.385 78.4772 54.0679C78.3186 53.7375 78.1931 53.3741 78.1006 52.9776C77.9684 52.3962 77.9024 51.7949 77.9024 51.1737C77.9024 48.7686 78.5301 47.1101 79.7855 46.1982C80.4066 45.7357 81.1004 45.4119 81.8669 45.2269C82.6334 45.0419 83.5386 44.9494 84.5826 44.9494C87.9261 44.9494 89.5978 46.1123 89.5978 48.4382C89.5978 50.9094 87.7212 52.1451 83.9681 52.1451H83.314ZM83.2743 49.2509V50.5592C83.6576 50.5592 83.9681 50.4073 84.206 50.1033C84.4571 49.7994 84.5826 49.4293 84.5826 48.9932C84.5826 48.2003 84.3778 47.8039 83.9681 47.8039C83.5056 47.8039 83.2743 48.2862 83.2743 49.2509ZM93.3373 56.288C93.0201 56.1426 92.6766 55.9246 92.3065 55.6339C91.9497 55.3431 91.6524 54.9995 91.4145 54.6031C90.8595 53.6516 90.5819 52.4094 90.5819 50.8764C90.5819 49.9249 90.7339 49.0791 91.0379 48.3391C91.3418 47.5858 91.7118 47.0044 92.1479 46.5947C92.584 46.185 93.0862 45.848 93.6545 45.5837C94.5663 45.1609 95.4782 44.9494 96.39 44.9494C97.923 44.9494 98.9868 45.0683 99.5815 45.3062C100.189 45.5441 100.493 45.9472 100.493 46.5154C100.493 47.0837 100.388 47.6916 100.176 48.3391C99.9779 48.9734 99.7136 49.2906 99.3832 49.2906C99.2775 49.2906 98.9537 49.1783 98.4119 48.9536C97.8833 48.7289 97.4208 48.6166 97.0243 48.6166C96.6411 48.6166 96.3438 48.7752 96.1323 49.0924C95.9341 49.3963 95.835 49.9976 95.835 50.8962C95.835 51.7816 95.9275 52.3895 96.1125 52.7199C96.2975 53.0371 96.5816 53.1957 96.9649 53.1957C97.3613 53.1957 97.8503 53.0635 98.4318 52.7992C99.0132 52.5349 99.337 52.4028 99.4031 52.4028C99.6542 52.4028 99.892 52.7001 100.117 53.2948C100.355 53.8895 100.473 54.4181 100.473 54.8806C100.473 55.5942 100.103 56.0964 99.3634 56.3871C98.6234 56.6646 97.619 56.8034 96.3504 56.8034C95.0949 56.8034 94.0906 56.6316 93.3373 56.288ZM108.121 56.1493V50.6385C108.121 49.6474 108.082 48.9272 108.002 48.4779C107.923 48.0285 107.731 47.8039 107.427 47.8039C107.163 47.8039 107.031 47.9823 107.031 48.3391V56.1493C107.031 56.2946 106.648 56.4136 105.881 56.5061C105.115 56.5854 104.328 56.625 103.522 56.625C102.716 56.625 102.207 56.592 101.996 56.5259C101.785 56.4466 101.679 56.3211 101.679 56.1493V42.4121C101.679 42.1346 102.062 41.8571 102.829 41.5795C103.595 41.302 104.401 41.1633 105.247 41.1633C106.132 41.1633 106.694 41.3285 106.932 41.6588C107.011 41.7646 107.051 41.8769 107.051 41.9958V44.9098L106.833 46.2775H106.971C107.156 46 107.447 45.7555 107.844 45.5441C108.584 45.1476 109.39 44.9494 110.262 44.9494C111.517 44.9494 112.363 45.3525 112.799 46.1586C113.249 46.9515 113.473 48.2466 113.473 50.0439V56.1493C113.473 56.2946 113.083 56.4136 112.304 56.5061C111.537 56.5854 110.751 56.625 109.945 56.625C109.152 56.625 108.65 56.592 108.438 56.5259C108.227 56.4466 108.121 56.3211 108.121 56.1493Z" fill="#FBEBE9"/>
<path d="M18.1035 42.8294C19.4832 42.8294 20.6016 41.7116 20.6016 40.3327C20.6016 38.9538 19.4832 37.8359 18.1035 37.8359C16.7239 37.8359 15.6055 38.9538 15.6055 40.3327C15.6055 41.7116 16.7239 42.8294 18.1035 42.8294Z" fill="#F8DCD8"/>
<path d="M125.022 44.8294C126.401 44.8294 127.52 43.7116 127.52 42.3327C127.52 40.9538 126.401 39.8359 125.022 39.8359C123.642 39.8359 122.523 40.9538 122.523 42.3327C122.523 43.7116 123.642 44.8294 125.022 44.8294Z" fill="#F8DCD8"/>
<defs>
<filter id="filter0_d_2564_19399" x="0.617188" y="0.882812" width="139.049" height="88.4322" filterUnits="userSpaceOnUse" color-interpolation-filters="sRGB">
<feFlood flood-opacity="0" result="BackgroundImageFix"/>
<feColorMatrix in="SourceAlpha" type="matrix" values="0 0 0 0 0 0 0 0 0 0 0 0 0 0 0 0 0 0 127 0" result="hardAlpha"/>
<feOffset dx="2.7092" dy="5.54154"/>
<feComposite in2="hardAlpha" operator="out"/>
<feColorMatrix type="matrix" values="0 0 0 0 0.0980392 0 0 0 0 0.0823529 0 0 0 0 0.290196 0 0 0 1 0"/>
<feBlend mode="normal" in2="BackgroundImageFix" result="effect1_dropShadow_2564_19399"/>
<feBlend mode="normal" in="SourceGraphic" in2="effect1_dropShadow_2564_19399" result="shape"/>
</filter>
</defs>
</svg>
