<svg width="139" height="139" viewBox="0 0 139 139" fill="none" xmlns="http://www.w3.org/2000/svg">
<path d="M44.2706 105.15L44.379 106.144L44.2706 105.15L35.9721 106.055C35.9661 106.056 35.9638 106.055 35.9628 106.054C35.9609 106.054 35.9577 106.052 35.9543 106.049C35.9509 106.046 35.949 106.043 35.9481 106.041C35.9477 106.04 35.9467 106.038 35.9467 106.032L35.9792 97.6843C35.9829 96.7233 35.31 95.8923 34.3692 95.6962L26.1971 93.9923L25.993 94.9713L26.1971 93.9923C26.1913 93.9911 26.1894 93.9897 26.1885 93.989C26.1868 93.9878 26.1843 93.9853 26.182 93.9814C26.1797 93.9774 26.1788 93.9739 26.1786 93.9719C26.1785 93.9708 26.1782 93.9685 26.1801 93.9628L25.2377 93.6525L26.1801 93.9628L28.7905 86.0337C29.091 85.1208 28.7079 84.1226 27.8737 83.6453L20.6282 79.4996C20.623 79.4966 20.6216 79.4947 20.621 79.4938L20.621 79.4938C20.6198 79.4921 20.6181 79.4889 20.6172 79.4845C20.6162 79.48 20.6164 79.4764 20.6169 79.4744L20.6169 79.4744C20.6171 79.4733 20.6176 79.471 20.6211 79.4662L25.554 72.7318C26.1219 71.9565 26.0659 70.8887 25.4201 70.177L19.8103 63.9952C19.8063 63.9908 19.8056 63.9885 19.8052 63.9875L19.8052 63.9875C19.8046 63.9855 19.804 63.982 19.8045 63.9774C19.8049 63.9729 19.8063 63.9696 19.8073 63.9678L19.8073 63.9677C19.8078 63.9668 19.809 63.9647 19.8138 63.9613L26.5863 59.0809C27.366 58.519 27.6428 57.4862 27.2485 56.6097L23.8235 48.997C23.8211 48.9915 23.8211 48.9891 23.8211 48.9881L23.8211 48.988C23.8211 48.9872 23.8212 48.9862 23.8214 48.985C23.8217 48.9832 23.8223 48.9808 23.8235 48.9783C23.8253 48.9741 23.8276 48.9713 23.8292 48.9699C23.8299 48.9692 23.8317 48.9676 23.8374 48.9658L31.7866 46.4171C32.7017 46.1236 33.2841 45.2269 33.1799 44.2715L32.2751 35.9729C32.2744 35.967 32.2752 35.9647 32.2755 35.9637C32.2762 35.9617 32.2777 35.9585 32.2808 35.9551C32.2839 35.9517 32.2869 35.9498 32.2888 35.949C32.2897 35.9485 32.2919 35.9475 32.2979 35.9476L40.6456 35.98C41.6066 35.9838 42.4376 35.3108 42.6338 34.37L44.3376 26.198L43.3586 25.9939L44.3376 26.198C44.3388 26.1921 44.3402 26.1902 44.3409 26.1894C44.3421 26.1877 44.3446 26.1852 44.3485 26.1829C44.3525 26.1806 44.356 26.1797 44.358 26.1795C44.3591 26.1794 44.3614 26.1791 44.3671 26.1809L44.6774 25.2386L44.3672 26.1809L52.2962 28.7914C53.2091 29.0919 54.2073 28.7087 54.6846 27.8746L58.8304 20.629C58.8333 20.6238 58.8353 20.6225 58.8361 20.6218C58.8378 20.6206 58.841 20.619 58.8455 20.618C58.8499 20.6171 58.8535 20.6173 58.8555 20.6177C58.8565 20.6179 58.8589 20.6184 58.8637 20.6219L65.5981 25.5549L66.189 24.7481L65.5981 25.5549C66.3734 26.1227 67.4412 26.0668 68.1529 25.421L74.3347 19.8111C74.3392 19.8071 74.3414 19.8064 74.3424 19.8061C74.3444 19.8055 74.3479 19.8049 74.3525 19.8053C74.357 19.8058 74.3603 19.8071 74.3621 19.8082C74.3631 19.8087 74.3651 19.8098 74.3687 19.8147L79.249 26.5872C79.8109 27.3669 80.8437 27.6436 81.7202 27.2493L89.333 23.8244C89.3384 23.8219 89.3408 23.822 89.3419 23.822C89.3439 23.822 89.3475 23.8225 89.3517 23.8244C89.3558 23.8262 89.3586 23.8285 89.36 23.83C89.3602 23.8303 89.3606 23.8307 89.3611 23.8314C89.3619 23.8326 89.363 23.8347 89.3641 23.8383L91.9128 31.7874C92.2063 32.7026 93.1031 33.2849 94.0584 33.1808L102.357 32.2759C102.363 32.2753 102.365 32.276 102.366 32.2764C102.367 32.2767 102.368 32.2771 102.369 32.2778C102.371 32.2787 102.373 32.2799 102.375 32.2817C102.378 32.2847 102.38 32.2877 102.381 32.2896C102.381 32.2906 102.382 32.2927 102.382 32.2988L102.35 40.6465C102.346 41.6075 103.019 42.4385 103.96 42.6346L112.132 44.3385C112.138 44.3397 112.14 44.3411 112.141 44.3417C112.142 44.343 112.145 44.3454 112.147 44.3494C112.149 44.3534 112.15 44.3568 112.15 44.3589C112.151 44.3599 112.151 44.3623 112.149 44.368L109.539 52.2971C109.238 53.2099 109.621 54.2082 110.455 54.6855L110.952 53.8175L110.455 54.6855L117.701 58.8312C117.706 58.8342 117.707 58.8362 117.708 58.837C117.709 58.8378 117.709 58.839 117.71 58.8406C117.711 58.8421 117.711 58.8441 117.712 58.8463C117.713 58.8508 117.713 58.8544 117.712 58.8564C117.712 58.8574 117.712 58.8597 117.708 58.8646L112.775 65.599C112.207 66.3742 112.263 67.4421 112.909 68.1538L118.519 74.3356C118.523 74.34 118.524 74.3423 118.524 74.3433C118.524 74.3453 118.525 74.3488 118.525 74.3533C118.524 74.3579 118.523 74.3612 118.522 74.363C118.521 74.3639 118.52 74.366 118.515 74.3695L111.743 79.2499C110.963 79.8118 110.686 80.8446 111.081 81.721L114.506 89.3338C114.507 89.3373 114.508 89.3396 114.508 89.341C114.508 89.3418 114.508 89.3424 114.508 89.3427C114.508 89.3437 114.508 89.345 114.508 89.3465C114.507 89.3482 114.507 89.3503 114.506 89.3525C114.504 89.3567 114.501 89.3594 114.5 89.3608C114.499 89.3616 114.497 89.3632 114.492 89.365L106.542 91.9137C105.627 92.2071 105.045 93.1039 105.149 94.0593L106.054 102.358C106.055 102.364 106.054 102.366 106.054 102.367C106.053 102.369 106.051 102.372 106.048 102.376C106.045 102.379 106.042 102.381 106.04 102.382C106.039 102.382 106.037 102.383 106.031 102.383L97.6835 102.351L97.6796 103.351L97.6834 102.351C96.7224 102.347 95.8914 103.02 95.6953 103.961L93.9915 112.133C93.9902 112.139 93.9888 112.141 93.9882 112.141C93.9869 112.143 93.9845 112.146 93.9805 112.148C93.9791 112.149 93.9777 112.149 93.9764 112.15C93.9742 112.151 93.9723 112.151 93.971 112.151C93.97 112.151 93.9676 112.152 93.9619 112.15L86.0328 109.539C85.12 109.239 84.1217 109.622 83.6444 110.456L79.4987 117.702C79.4978 117.703 79.4971 117.704 79.4964 117.705C79.4947 117.708 79.4935 117.709 79.4929 117.709C79.4912 117.71 79.4881 117.712 79.4836 117.713C79.4791 117.714 79.4755 117.713 79.4735 117.713C79.4725 117.713 79.4702 117.712 79.4653 117.709L72.731 112.776C71.9557 112.208 70.8879 112.264 70.1762 112.91L63.9943 118.52C63.9899 118.524 63.9876 118.524 63.9866 118.525C63.9846 118.525 63.9811 118.526 63.9766 118.525C63.972 118.525 63.9687 118.524 63.9669 118.523C63.966 118.522 63.9639 118.521 63.9604 118.516L59.08 111.744C58.5182 110.964 57.4853 110.687 56.6089 111.081L48.9961 114.506C48.9906 114.509 48.9882 114.509 48.9872 114.509C48.9851 114.509 48.9816 114.508 48.9774 114.506C48.9732 114.505 48.9705 114.502 48.9691 114.501C48.9687 114.5 48.9682 114.5 48.9675 114.499C48.9667 114.497 48.9659 114.495 48.9649 114.493L46.4162 106.543C46.1228 105.628 45.226 105.046 44.2706 105.15Z" fill="#FED33D" stroke="white" stroke-width="2"/>
<path d="M38.908 60.565L37.436 58.0154L41.7038 55.5514L47.5518 65.6804L44.7112 67.3204L40.3352 59.741L38.908 60.565ZM45.9255 59.6727C45.0082 58.0838 44.6088 56.6454 44.7275 55.3576C44.8461 54.0697 45.5982 53.0258 46.9839 52.2258C48.3695 51.4258 49.6496 51.2964 50.8243 51.8376C52.0082 52.3734 53.0588 53.4358 53.9761 55.0247C54.9041 56.632 55.3088 58.0796 55.1901 59.3675C55.0715 60.6553 54.3148 61.7019 52.9199 62.5072C51.525 63.3126 50.2402 63.4446 49.0656 62.9035C47.9002 62.3569 46.8535 61.28 45.9255 59.6727ZM51.2879 56.5767C50.8079 55.7453 50.3549 55.1632 49.9287 54.8303C49.4972 54.4883 49.0089 54.4746 48.4639 54.7892C47.9189 55.1039 47.6866 55.5336 47.7671 56.0783C47.8422 56.6138 48.1198 57.2973 48.5998 58.1287C49.0905 58.9785 49.5469 59.5772 49.9692 59.9246C50.3954 60.2574 50.8856 60.2638 51.4399 59.9438C51.9941 59.6238 52.2291 59.1987 52.1447 58.6686C52.0642 58.1238 51.7786 57.4265 51.2879 56.5767ZM55.0323 54.4148C54.115 52.826 53.7156 51.3876 53.8343 50.0998C53.9529 48.8119 54.705 47.768 56.0907 46.968C57.4763 46.168 58.7564 46.0386 59.9311 46.5798C61.115 47.1156 62.1656 48.178 63.0829 49.7668C64.0109 51.3742 64.4156 52.8218 64.2969 54.1096C64.1783 55.3975 63.4215 56.4441 62.0267 57.2494C60.6318 58.0548 59.347 58.1868 58.1724 57.6456C57.007 57.0991 55.9603 56.0222 55.0323 54.4148ZM60.3947 51.3188C59.9147 50.4875 59.4617 49.9054 59.0355 49.5725C58.604 49.2304 58.1157 49.2167 57.5707 49.5314C57.0257 49.8461 56.7934 50.2758 56.8739 50.8205C56.949 51.356 57.2266 52.0395 57.7066 52.8708C58.1973 53.7207 58.6537 54.3193 59.076 54.6667C59.5022 54.9996 59.9924 55.006 60.5467 54.686C61.1009 54.366 61.3359 53.9409 61.2515 53.4107C61.171 52.866 60.8854 52.1687 60.3947 51.3188ZM64.1391 49.157C63.2218 47.5682 62.8224 46.1298 62.9411 44.8419C63.0597 43.5541 63.8118 42.5102 65.1975 41.7102C66.5831 40.9102 67.8632 40.7808 69.0379 41.3219C70.2217 41.8578 71.2723 42.9202 72.1897 44.509C73.1177 46.1164 73.5224 47.564 73.4037 48.8518C73.2851 50.1397 72.5283 51.1863 71.1335 51.9916C69.7386 52.797 68.4538 52.929 67.2792 52.3878C66.1138 51.8413 65.0671 50.7644 64.1391 49.157ZM69.5015 46.061C69.0215 45.2296 68.5685 44.6475 68.1423 44.3147C67.7108 43.9726 67.2225 43.9589 66.6775 44.2736C66.1325 44.5883 65.9002 45.018 65.9807 45.5627C66.0558 46.0982 66.3334 46.7816 66.8134 47.613C67.3041 48.4629 67.7605 49.0615 68.1828 49.4089C68.609 49.7418 69.0992 49.7482 69.6535 49.4282C70.2077 49.1082 70.4427 48.6831 70.3583 48.1529C70.2778 47.6082 69.9922 46.9109 69.5015 46.061ZM81.2865 41.474L79.0557 42.762L80.3837 45.0622L77.7786 46.5662L76.4506 44.266L74.2059 45.562L72.7899 43.1094L75.0346 41.8134L73.6986 39.4994L76.3037 37.9954L77.6397 40.3094L79.8705 39.0214L81.2865 41.474ZM56.9857 65.6839L62.6257 75.4527L59.9099 77.0207L56.7979 71.6305L58.067 78.0847L55.7945 79.3967L50.8018 75.037L53.9378 80.4687L51.2219 82.0367L45.5819 72.2679L48.8659 70.3719L54.9825 75.3021L53.7156 67.5719L56.9857 65.6839ZM62.5036 65.3988L63.4236 66.9923L66.5412 65.1923L67.7332 67.2569L64.6156 69.0569L65.6316 70.8166L69.1649 68.7766L70.4209 70.9521L64.1717 74.5601L58.5317 64.7913L64.7809 61.1833L66.0369 63.3588L62.5036 65.3988ZM73.4807 56.1605L74.7287 58.3221L72.1237 59.8261L76.5157 67.4333L73.7998 69.0013L69.4078 61.3941L66.8306 62.8821L65.5826 60.7205L73.4807 56.1605ZM85.3855 60.1877L81.9214 62.1877L82.3148 64.0852L79.4604 65.7332L77.3815 53.9084L80.513 52.1004L89.7003 59.8212L86.832 61.4772L85.3855 60.1877ZM83.5065 58.5012L80.6294 55.95L81.4142 59.7092L83.5065 58.5012ZM57.4757 83.8762L63.1157 93.645L60.3998 95.213L57.2878 89.8229L58.5569 96.277L56.2845 97.589L51.2917 93.2293L54.4277 98.661L51.7119 100.229L46.0719 90.4602L49.3558 88.5642L55.4724 93.4945L54.2056 85.7642L57.4757 83.8762ZM69.4011 90.1454C68.4866 90.6734 67.5233 90.9463 66.5112 90.964C65.4938 90.9725 64.5402 90.7287 63.6502 90.2326C62.7641 89.7219 62.0437 88.9861 61.4891 88.0254C60.9344 87.0647 60.6601 86.0776 60.6662 85.0641C60.6762 84.0361 60.9418 83.0883 61.4632 82.2207C61.9846 81.3531 62.7026 80.6553 63.6171 80.1273C64.5409 79.5939 65.5042 79.3211 66.507 79.3087C67.519 79.2909 68.4681 79.5374 69.3542 80.0481C70.2349 80.5496 70.9526 81.2807 71.5073 82.2414C72.0619 83.2021 72.3389 84.1939 72.3382 85.2166C72.3321 86.2301 72.071 87.1752 71.555 88.052C71.0336 88.9196 70.3156 89.6174 69.4011 90.1454ZM67.9451 87.6236C68.6379 87.2236 69.0523 86.6826 69.1882 86.0006C69.3333 85.3133 69.1872 84.5909 68.7498 83.8334C68.3018 83.0575 67.7466 82.5651 67.0842 82.3564C66.4256 82.1331 65.7499 82.2214 65.0571 82.6214C64.355 83.0267 63.9361 83.5704 63.8002 84.2524C63.659 84.9251 63.8124 85.6495 64.2604 86.4254C64.703 87.1921 65.2536 87.6872 65.9122 87.9105C66.5654 88.1245 67.243 88.0289 67.9451 87.6236ZM73.7941 74.4548C74.8195 73.8628 75.8355 73.5533 76.8422 73.5263C77.8528 73.4848 78.7793 73.7135 79.6217 74.2125C80.4641 74.7115 81.1599 75.4368 81.7092 76.3883C82.2532 77.3305 82.5261 78.2938 82.5278 79.2781C82.5388 80.2571 82.279 81.1831 81.7484 82.056C81.2216 82.9144 80.4502 83.6369 79.4341 84.2236L75.5681 86.4556L69.9281 76.6868L73.7941 74.4548ZM77.8422 81.9464C78.6367 81.4877 79.1349 80.9107 79.3369 80.2152C79.5388 79.5197 79.4105 78.7747 78.9518 77.9803C78.4878 77.1766 77.9042 76.6883 77.2009 76.5155C76.4922 76.3334 75.7407 76.4717 74.9462 76.9304L74.004 77.4744L76.9 82.4904L77.8422 81.9464ZM84.0893 71.4115L85.0093 73.0049L88.127 71.2049L89.319 73.2695L86.2013 75.0695L87.2173 76.8293L90.7507 74.7893L92.0067 76.9648L85.7575 80.5728L80.1175 70.804L86.3667 67.196L87.6227 69.3715L84.0893 71.4115ZM94.8646 72.5435L97.8991 70.7915L99.0991 72.8699L93.3487 76.1899L87.7087 66.4212L90.4246 64.8532L94.8646 72.5435ZM103.897 70.2293C102.761 70.8853 101.673 71.156 100.634 71.0416C99.5895 70.9179 98.7489 70.3686 98.1122 69.3937L101.008 67.7217C101.233 68.0475 101.479 68.2382 101.745 68.294C102.011 68.3497 102.283 68.2975 102.56 68.1375C102.809 67.9935 102.978 67.8161 103.066 67.6054C103.157 67.3801 103.139 67.1565 103.011 66.9348C102.846 66.6485 102.584 66.5041 102.225 66.5017C101.867 66.4994 101.331 66.5745 100.619 66.7272C99.8587 66.8827 99.224 66.9782 98.7148 67.0135C98.2095 67.0343 97.6997 66.9406 97.1854 66.7326C96.6751 66.5099 96.2412 66.0891 95.8839 65.4702C95.5212 64.842 95.3689 64.2156 95.427 63.5909C95.4797 62.9569 95.7166 62.3644 96.1375 61.8135C96.5584 61.2625 97.1199 60.7844 97.822 60.3791C98.9582 59.7231 100.018 59.4683 101.002 59.6147C101.989 59.7466 102.784 60.2796 103.384 61.2136L100.433 62.9176C100.253 62.6274 100.033 62.459 99.7719 62.4125C99.5203 62.3607 99.2606 62.4122 98.9927 62.5668C98.7895 62.6842 98.6578 62.8402 98.5979 63.035C98.5379 63.2297 98.5719 63.4379 98.6999 63.6596C98.8065 63.8444 98.9691 63.966 99.1877 64.0246C99.4102 64.0686 99.657 64.0801 99.9281 64.059C100.194 64.0287 100.577 63.9675 101.078 63.8753C101.82 63.7304 102.451 63.6496 102.971 63.6327C103.494 63.6012 104.009 63.6922 104.514 63.9056C105.023 64.1045 105.443 64.4903 105.773 65.063C106.109 65.645 106.263 66.2522 106.234 66.8848C106.214 67.512 106.004 68.1195 105.605 68.7074C105.214 69.29 104.645 69.7973 103.897 70.2293Z" fill="#5C59ED"/>
</svg>
