<svg width="171" height="147" viewBox="0 0 171 147" fill="none" xmlns="http://www.w3.org/2000/svg">
<mask id="path-1-inside-1_2564_19395" fill="white">
<path fill-rule="evenodd" clip-rule="evenodd" d="M149.8 63.5426C149.983 64.7036 147.884 65.9644 147.802 67.1335C147.72 68.2828 149.632 69.8047 149.305 70.9535C148.993 72.0474 146.558 72.3725 146.035 73.4615C145.54 74.4827 146.834 76.5638 146.165 77.571C145.537 78.5137 143.103 78.1572 142.327 79.0829C141.598 79.953 142.395 82.2736 141.544 83.1225C140.737 83.925 138.408 83.1319 137.495 83.9141C136.627 84.6563 137.066 87.0719 136.107 87.7913C135.191 88.483 132.984 87.3929 131.988 88.0569C131.035 88.6935 131.201 91.1446 130.177 91.7571C129.191 92.3507 127.103 91.0504 126.055 91.6176C125.047 92.1643 124.991 94.6209 123.923 95.1443C122.887 95.6517 120.91 94.1915 119.825 94.6739C118.77 95.1439 118.535 97.5905 117.438 98.0353C116.366 98.4686 114.494 96.8747 113.383 97.2835C112.296 97.6831 111.906 100.108 110.782 100.482C109.683 100.848 107.914 99.1421 106.781 99.4822C105.67 99.8166 105.133 102.215 103.996 102.523C102.875 102.825 101.206 101.021 100.057 101.296C98.9279 101.568 98.2636 103.934 97.11 104.179C95.9723 104.42 94.4026 102.529 93.2431 102.743C92.0835 102.957 91.3098 105.283 90.1456 105.467C88.9813 105.651 87.513 103.681 86.3589 103.833C85.2048 103.985 84.2814 106.27 83.1259 106.392C81.952 106.515 80.5889 104.47 79.4306 104.56C78.2528 104.653 77.2225 106.879 76.0633 106.943C74.8835 107.002 73.6352 104.886 72.4753 104.911C71.2936 104.937 70.1372 107.106 68.9785 107.097C67.7946 107.089 66.6741 104.902 65.5164 104.858C64.3321 104.812 63.0455 106.906 61.8917 106.825C60.708 106.741 59.7311 104.486 58.5819 104.365C57.4017 104.241 55.972 106.24 54.8304 106.077C53.6531 105.909 52.8454 103.589 51.7132 103.381C50.5413 103.165 48.9556 105.044 47.8353 104.787C46.6717 104.519 46.0733 102.138 44.9686 101.827C43.8168 101.503 42.054 103.217 40.9693 102.846C39.8348 102.458 39.5051 100.024 38.4503 99.5858C37.3404 99.1249 35.3707 100.598 34.3553 100.084C33.2835 99.5383 33.3209 97.0856 32.3615 96.4827C31.3371 95.8431 29.1326 96.9324 28.2439 96.2297C27.2961 95.4785 27.8806 93.1 27.0974 92.2822C26.264 91.41 23.8472 91.8504 23.2124 90.9052C22.5478 89.9166 23.8954 87.8757 23.4623 86.8078C23.0221 85.7225 20.6364 85.1769 20.4516 84.0106C20.2669 82.8444 22.3673 81.5889 22.4504 80.4196C22.5322 79.2703 20.6202 77.7484 20.9474 76.5996C21.2579 75.5048 23.6943 75.1806 24.2169 74.0905C24.7122 73.0704 23.4167 70.9884 24.0872 69.9821C24.7153 69.0394 27.1476 69.395 27.9241 68.4704C28.6545 67.6001 27.8566 65.2796 28.7074 64.4297C29.5143 63.6272 31.8418 64.4204 32.7561 63.6392C33.6239 62.897 33.1854 60.4814 34.1445 59.7619C35.0587 59.0704 37.2657 60.1605 38.2631 59.4963C39.2177 58.8596 39.0507 56.4087 40.0748 55.796C41.0604 55.2025 43.1496 56.5027 44.1974 55.9355C45.2111 55.3879 45.2611 52.9322 46.3289 52.4088C47.3641 51.9005 49.342 53.3616 50.4271 52.8782C51.4815 52.4083 51.7172 49.9626 52.8139 49.5178C53.8861 49.0845 55.7569 50.6785 56.8692 50.2695C57.9556 49.8701 58.3466 47.4446 59.4688 47.0713C60.5692 46.7047 62.3384 48.4109 63.4704 48.071C64.5813 47.7367 65.1177 45.3374 66.2559 45.0304C67.3764 44.7284 69.0461 46.5325 70.1936 46.2558C71.3232 45.9841 71.9887 43.619 73.1423 43.3741C74.2959 43.1292 75.8497 45.0239 77.0091 44.8087C78.1528 44.5982 78.9424 42.2704 80.1056 42.0863C81.2688 41.9023 82.7394 43.8724 83.8922 43.7195C85.045 43.5666 85.9698 41.2831 87.1264 41.1613C88.3003 41.0379 89.6632 43.0819 90.8216 42.9916C91.9984 42.9005 93.0296 40.6734 94.1879 40.6104C95.3686 40.5505 96.6171 42.6673 97.777 42.6424C98.9587 42.6162 100.114 40.4471 101.274 40.4561C102.457 40.4647 103.578 42.6508 104.736 42.6951C105.919 42.7409 107.207 40.6471 108.361 40.7281C109.544 40.812 110.52 43.0661 111.669 43.1872C112.851 43.312 114.279 41.3119 115.422 41.4756C116.599 41.6437 117.406 43.9639 118.539 44.1717C119.711 44.3877 121.297 42.5082 122.417 42.7662C123.58 43.0327 124.179 45.4154 125.284 45.7262C126.435 46.0504 128.198 44.3364 129.283 44.7072C130.418 45.0954 130.748 47.5292 131.803 47.9671C132.913 48.4281 134.882 46.955 135.898 47.469C136.97 48.0147 136.932 50.4673 137.892 51.0692C138.916 51.7099 141.121 50.6195 142.009 51.3232C142.957 52.0734 142.371 54.452 143.155 55.2709C143.989 56.1418 146.406 55.7025 147.04 56.6479C147.706 57.6363 146.358 59.6761 146.791 60.744C147.229 61.8308 149.616 62.3817 149.8 63.5426Z"/>
</mask>
<path fill-rule="evenodd" clip-rule="evenodd" d="M149.8 63.5426C149.983 64.7036 147.884 65.9644 147.802 67.1335C147.72 68.2828 149.632 69.8047 149.305 70.9535C148.993 72.0474 146.558 72.3725 146.035 73.4615C145.54 74.4827 146.834 76.5638 146.165 77.571C145.537 78.5137 143.103 78.1572 142.327 79.0829C141.598 79.953 142.395 82.2736 141.544 83.1225C140.737 83.925 138.408 83.1319 137.495 83.9141C136.627 84.6563 137.066 87.0719 136.107 87.7913C135.191 88.483 132.984 87.3929 131.988 88.0569C131.035 88.6935 131.201 91.1446 130.177 91.7571C129.191 92.3507 127.103 91.0504 126.055 91.6176C125.047 92.1643 124.991 94.6209 123.923 95.1443C122.887 95.6517 120.91 94.1915 119.825 94.6739C118.77 95.1439 118.535 97.5905 117.438 98.0353C116.366 98.4686 114.494 96.8747 113.383 97.2835C112.296 97.6831 111.906 100.108 110.782 100.482C109.683 100.848 107.914 99.1421 106.781 99.4822C105.67 99.8166 105.133 102.215 103.996 102.523C102.875 102.825 101.206 101.021 100.057 101.296C98.9279 101.568 98.2636 103.934 97.11 104.179C95.9723 104.42 94.4026 102.529 93.2431 102.743C92.0835 102.957 91.3098 105.283 90.1456 105.467C88.9813 105.651 87.513 103.681 86.3589 103.833C85.2048 103.985 84.2814 106.27 83.1259 106.392C81.952 106.515 80.5889 104.47 79.4306 104.56C78.2528 104.653 77.2225 106.879 76.0633 106.943C74.8835 107.002 73.6352 104.886 72.4753 104.911C71.2936 104.937 70.1372 107.106 68.9785 107.097C67.7946 107.089 66.6741 104.902 65.5164 104.858C64.3321 104.812 63.0455 106.906 61.8917 106.825C60.708 106.741 59.7311 104.486 58.5819 104.365C57.4017 104.241 55.972 106.24 54.8304 106.077C53.6531 105.909 52.8454 103.589 51.7132 103.381C50.5413 103.165 48.9556 105.044 47.8353 104.787C46.6717 104.519 46.0733 102.138 44.9686 101.827C43.8168 101.503 42.054 103.217 40.9693 102.846C39.8348 102.458 39.5051 100.024 38.4503 99.5858C37.3404 99.1249 35.3707 100.598 34.3553 100.084C33.2835 99.5383 33.3209 97.0856 32.3615 96.4827C31.3371 95.8431 29.1326 96.9324 28.2439 96.2297C27.2961 95.4785 27.8806 93.1 27.0974 92.2822C26.264 91.41 23.8472 91.8504 23.2124 90.9052C22.5478 89.9166 23.8954 87.8757 23.4623 86.8078C23.0221 85.7225 20.6364 85.1769 20.4516 84.0106C20.2669 82.8444 22.3673 81.5889 22.4504 80.4196C22.5322 79.2703 20.6202 77.7484 20.9474 76.5996C21.2579 75.5048 23.6943 75.1806 24.2169 74.0905C24.7122 73.0704 23.4167 70.9884 24.0872 69.9821C24.7153 69.0394 27.1476 69.395 27.9241 68.4704C28.6545 67.6001 27.8566 65.2796 28.7074 64.4297C29.5143 63.6272 31.8418 64.4204 32.7561 63.6392C33.6239 62.897 33.1854 60.4814 34.1445 59.7619C35.0587 59.0704 37.2657 60.1605 38.2631 59.4963C39.2177 58.8596 39.0507 56.4087 40.0748 55.796C41.0604 55.2025 43.1496 56.5027 44.1974 55.9355C45.2111 55.3879 45.2611 52.9322 46.3289 52.4088C47.3641 51.9005 49.342 53.3616 50.4271 52.8782C51.4815 52.4083 51.7172 49.9626 52.8139 49.5178C53.8861 49.0845 55.7569 50.6785 56.8692 50.2695C57.9556 49.8701 58.3466 47.4446 59.4688 47.0713C60.5692 46.7047 62.3384 48.4109 63.4704 48.071C64.5813 47.7367 65.1177 45.3374 66.2559 45.0304C67.3764 44.7284 69.0461 46.5325 70.1936 46.2558C71.3232 45.9841 71.9887 43.619 73.1423 43.3741C74.2959 43.1292 75.8497 45.0239 77.0091 44.8087C78.1528 44.5982 78.9424 42.2704 80.1056 42.0863C81.2688 41.9023 82.7394 43.8724 83.8922 43.7195C85.045 43.5666 85.9698 41.2831 87.1264 41.1613C88.3003 41.0379 89.6632 43.0819 90.8216 42.9916C91.9984 42.9005 93.0296 40.6734 94.1879 40.6104C95.3686 40.5505 96.6171 42.6673 97.777 42.6424C98.9587 42.6162 100.114 40.4471 101.274 40.4561C102.457 40.4647 103.578 42.6508 104.736 42.6951C105.919 42.7409 107.207 40.6471 108.361 40.7281C109.544 40.812 110.52 43.0661 111.669 43.1872C112.851 43.312 114.279 41.3119 115.422 41.4756C116.599 41.6437 117.406 43.9639 118.539 44.1717C119.711 44.3877 121.297 42.5082 122.417 42.7662C123.58 43.0327 124.179 45.4154 125.284 45.7262C126.435 46.0504 128.198 44.3364 129.283 44.7072C130.418 45.0954 130.748 47.5292 131.803 47.9671C132.913 48.4281 134.882 46.955 135.898 47.469C136.97 48.0147 136.932 50.4673 137.892 51.0692C138.916 51.7099 141.121 50.6195 142.009 51.3232C142.957 52.0734 142.371 54.452 143.155 55.2709C143.989 56.1418 146.406 55.7025 147.04 56.6479C147.706 57.6363 146.358 59.6761 146.791 60.744C147.229 61.8308 149.616 62.3817 149.8 63.5426Z" fill="#845CC2"/>
<path d="M147.802 67.1335L149.797 67.2756L149.797 67.2735L147.802 67.1335ZM149.305 70.9535L151.229 71.5017L151.229 71.5013L149.305 70.9535ZM146.035 73.4615L147.835 74.334L147.839 74.3269L146.035 73.4615ZM146.165 77.571L147.83 78.6797L147.831 78.6778L146.165 77.571ZM142.327 79.0829L140.794 77.7979L140.794 77.7983L142.327 79.0829ZM141.544 83.1225L142.954 84.5403L142.956 84.5382L141.544 83.1225ZM137.495 83.9141L138.795 85.4338L138.797 85.4327L137.495 83.9141ZM136.107 87.7913L134.906 86.1917L134.9 86.196L136.107 87.7913ZM131.988 88.0569L130.878 86.393L130.877 86.3938L131.988 88.0569ZM130.177 91.7571L129.15 90.0414L129.146 90.0437L130.177 91.7571ZM126.055 91.6176L125.102 89.859L125.101 89.8597L126.055 91.6176ZM123.923 95.1443L124.803 96.9402L124.804 96.9399L123.923 95.1443ZM119.825 94.6739L119.012 92.8465L119.011 92.8471L119.825 94.6739ZM117.438 98.0353L118.188 99.8894L118.19 99.8884L117.438 98.0353ZM113.383 97.2835L114.073 99.1606L114.074 99.1603L113.383 97.2835ZM110.782 100.482L110.151 98.5844L110.15 98.5849L110.782 100.482ZM106.781 99.4822L106.206 97.5669L106.204 97.5673L106.781 99.4822ZM103.996 102.523L104.517 104.454L104.519 104.453L103.996 102.523ZM100.057 101.296L99.5902 99.352L99.5894 99.3521L100.057 101.296ZM97.11 104.179L97.5252 106.135L97.5256 106.135L97.11 104.179ZM83.1259 106.392L83.3352 108.381L83.3354 108.381L83.1259 106.392ZM79.4306 104.56L79.2748 102.567L79.274 102.567L79.4306 104.56ZM76.0633 106.943L76.1629 108.94L76.1741 108.94L76.0633 106.943ZM72.4753 104.911L72.432 102.911L72.4307 102.911L72.4753 104.911ZM68.9785 107.097L68.994 105.097L68.9925 105.097L68.9785 107.097ZM65.5164 104.858L65.4396 106.856L65.4401 106.856L65.5164 104.858ZM61.8917 106.825L61.7504 108.82L61.7518 108.82L61.8917 106.825ZM58.5819 104.365L58.7915 102.376L58.7906 102.376L58.5819 104.365ZM54.8304 106.077L54.5479 108.057L54.5481 108.057L54.8304 106.077ZM51.7132 103.381L51.3507 105.348L51.3518 105.348L51.7132 103.381ZM47.8353 104.787L47.3871 106.736L47.3882 106.736L47.8353 104.787ZM44.9686 101.827L44.4267 103.752L44.4269 103.752L44.9686 101.827ZM40.9693 102.846L40.3218 104.738L40.3222 104.738L40.9693 102.846ZM38.4503 99.5858L37.6831 101.433L37.6833 101.433L38.4503 99.5858ZM34.3553 100.084L33.4478 101.866L33.4517 101.868L34.3553 100.084ZM32.3615 96.4827L33.4258 94.7896L33.421 94.7866L32.3615 96.4827ZM28.2439 96.2297L27.0014 97.7967L27.0033 97.7982L28.2439 96.2297ZM27.0974 92.2822L25.6512 93.6635L25.6527 93.6651L27.0974 92.2822ZM23.2124 90.9052L24.8731 89.7906L24.8725 89.7898L23.2124 90.9052ZM23.4623 86.8078L25.316 86.0566L25.316 86.0566L23.4623 86.8078ZM22.4504 80.4196L20.4552 80.2775L20.4552 80.2778L22.4504 80.4196ZM20.9474 76.5996L22.8712 77.1474L22.8718 77.1454L20.9474 76.5996ZM24.2169 74.0905L22.4174 73.217L22.4131 73.226L24.2169 74.0905ZM24.0872 69.9821L25.7519 71.0909L25.752 71.0908L24.0872 69.9821ZM27.9241 68.4704L29.456 69.7564L29.4564 69.7559L27.9241 68.4704ZM28.7074 64.4297L27.2966 63.0119L27.2935 63.015L28.7074 64.4297ZM32.7561 63.6392L34.0558 65.1594L34.0563 65.1589L32.7561 63.6392ZM34.1445 59.7619L35.3451 61.3616L35.3515 61.3567L34.1445 59.7619ZM38.2631 59.4963L39.3721 61.1606L39.3732 61.1599L38.2631 59.4963ZM40.0748 55.796L41.102 57.512L41.1069 57.5091L40.0748 55.796ZM44.1974 55.9355L43.2464 54.1762L43.2448 54.177L44.1974 55.9355ZM46.3289 52.4088L47.2095 54.2045L47.2109 54.2038L46.3289 52.4088ZM50.4271 52.8782L51.2414 54.7048L51.2415 54.7047L50.4271 52.8782ZM52.8139 49.5178L52.0642 47.6637L52.0618 47.6647L52.8139 49.5178ZM56.8692 50.2695L56.1786 48.3927L56.1786 48.3927L56.8692 50.2695ZM59.4688 47.0713L60.1006 48.9687L60.1014 48.9685L59.4688 47.0713ZM63.4704 48.071L64.0459 49.9863L64.0472 49.9859L63.4704 48.071ZM66.2559 45.0304L65.7351 43.0996L65.7348 43.0996L66.2559 45.0304ZM70.1936 46.2558L69.7255 44.3115L69.7243 44.3118L70.1936 46.2558ZM77.0091 44.8087L76.6467 42.842L76.6438 42.8425L77.0091 44.8087ZM87.1264 41.1613L86.9171 39.1725L86.9168 39.1725L87.1264 41.1613ZM90.8216 42.9916L90.667 40.9978L90.6658 40.9979L90.8216 42.9916ZM94.1879 40.6104L94.0862 38.6132L94.0791 38.6136L94.1879 40.6104ZM97.777 42.6424L97.8203 44.6417L97.8216 44.6416L97.777 42.6424ZM101.274 40.4561L101.259 42.4558L101.259 42.4558L101.274 40.4561ZM104.736 42.6951L104.813 40.6968L104.812 40.6968L104.736 42.6951ZM108.361 40.7281L108.502 38.7334L108.501 38.7333L108.361 40.7281ZM111.669 43.1872L111.879 41.1985L111.879 41.1985L111.669 43.1872ZM115.422 41.4756L115.138 43.4551L115.139 43.4553L115.422 41.4756ZM118.539 44.1717L118.902 42.2051L118.9 42.2048L118.539 44.1717ZM122.417 42.7662L121.968 44.7149L121.97 44.7154L122.417 42.7662ZM125.284 45.7262L125.826 43.8013L125.825 43.8012L125.284 45.7262ZM129.283 44.7072L129.93 42.8152L129.93 42.8151L129.283 44.7072ZM131.803 47.9671L132.57 46.1204L132.57 46.1203L131.803 47.9671ZM135.898 47.469L136.806 45.687L136.801 45.6845L135.898 47.469ZM137.892 51.0692L136.829 52.763L136.831 52.7645L137.892 51.0692ZM142.009 51.3232L140.768 52.8909L140.768 52.891L142.009 51.3232ZM143.155 55.2709L141.709 56.653L141.71 56.654L143.155 55.2709ZM147.04 56.6479L145.378 57.7611L145.381 57.7647L147.04 56.6479ZM146.791 60.744L148.646 59.9965L148.645 59.9929L146.791 60.744ZM147.824 63.8553C147.767 63.4928 147.915 63.3056 147.842 63.4327C147.772 63.5549 147.638 63.73 147.372 64.0448C147.154 64.3035 146.801 64.7068 146.523 65.1143C146.254 65.5078 145.865 66.1654 145.807 66.9934L149.797 67.2735C149.78 67.517 149.684 67.5785 149.826 67.3706C149.959 67.1767 150.135 66.9729 150.429 66.6252C150.675 66.3335 151.037 65.9027 151.311 65.4255C151.582 64.9531 151.925 64.173 151.775 63.23L147.824 63.8553ZM145.807 66.9913C145.747 67.8258 146.05 68.5333 146.262 68.9543C146.483 69.392 146.779 69.8375 146.96 70.1205C147.181 70.4655 147.291 70.6582 147.346 70.7912C147.401 70.9277 147.286 70.7388 147.381 70.4057L151.229 71.5013C151.487 70.5938 151.256 69.7839 151.048 69.2759C150.838 68.7646 150.537 68.2896 150.331 67.9669C150.085 67.5822 149.938 67.3599 149.834 67.153C149.721 66.9296 149.816 67.0158 149.797 67.2756L145.807 66.9913ZM147.381 70.4053C147.486 70.0385 147.707 69.9301 147.569 70.0296C147.442 70.1205 147.24 70.2293 146.859 70.4184C146.542 70.5757 146.056 70.8104 145.627 71.0909C145.211 71.3635 144.598 71.8343 144.232 72.5961L147.839 74.3269C147.734 74.5442 147.622 74.5661 147.819 74.4372C148.003 74.3162 148.243 74.1972 148.639 74.0003C148.972 73.8353 149.469 73.5895 149.903 73.2778C150.325 72.9746 150.968 72.4155 151.229 71.5017L147.381 70.4053ZM144.235 72.589C143.859 73.3645 143.899 74.1526 143.954 74.6237C144.011 75.116 144.14 75.6374 144.216 75.9696C144.309 76.3725 144.352 76.6001 144.36 76.7577C144.369 76.9209 144.322 76.7311 144.499 76.4643L147.831 78.6778C148.343 77.9073 148.385 77.0797 148.355 76.5375C148.324 75.9897 148.2 75.4444 148.115 75.0735C148.013 74.6318 147.953 74.3785 147.928 74.1619C147.9 73.9241 147.964 74.0691 147.835 74.334L144.235 72.589ZM144.5 76.4623C144.704 76.1564 144.933 76.1236 144.756 76.1848C144.596 76.2401 144.363 76.2885 143.939 76.3667C143.585 76.432 143.049 76.5258 142.554 76.6847C142.073 76.8394 141.348 77.1383 140.794 77.7979L143.86 80.3679C143.695 80.5646 143.565 80.561 143.778 80.4926C143.977 80.4286 144.235 80.3791 144.664 80.3C145.024 80.2337 145.566 80.1366 146.063 79.9647C146.544 79.7987 147.312 79.4569 147.83 78.6797L144.5 76.4623ZM140.794 77.7983C140.232 78.4685 140.085 79.2529 140.03 79.7302C139.972 80.2289 139.98 80.7676 139.981 81.1147C139.982 81.5332 139.974 81.7717 139.948 81.938C139.919 82.1132 139.909 81.9277 140.131 81.7069L142.956 84.5382C143.603 83.8929 143.813 83.099 143.897 82.5731C143.983 82.0384 143.982 81.4832 143.981 81.1067C143.98 80.6587 143.979 80.4011 144.003 80.1934C144.03 79.9643 144.057 80.1323 143.86 80.3674L140.794 77.7983ZM140.133 81.7048C140.384 81.4552 140.601 81.468 140.409 81.4962C140.234 81.5217 139.993 81.5263 139.559 81.5262C139.197 81.5261 138.651 81.5218 138.133 81.5913C137.629 81.6589 136.855 81.8284 136.194 82.3955L138.797 85.4327C138.591 85.6086 138.451 85.5841 138.665 85.5553C138.866 85.5284 139.124 85.5256 139.559 85.5257C139.923 85.5258 140.471 85.5293 140.989 85.4534C141.489 85.3802 142.3 85.1912 142.954 84.5403L140.133 81.7048ZM136.195 82.3944C135.524 82.9677 135.252 83.7233 135.121 84.1919C134.984 84.6802 134.91 85.2159 134.857 85.5626C134.794 85.9798 134.751 86.2176 134.699 86.3832C134.644 86.5584 134.659 86.3773 134.906 86.1917L137.307 89.3909C138.034 88.8456 138.354 88.0927 138.513 87.5895C138.676 87.0766 138.757 86.5292 138.813 86.1598C138.879 85.72 138.918 85.4676 138.973 85.2718C139.033 85.0563 139.032 85.2315 138.795 85.4338L136.195 82.3944ZM134.9 86.196C135.176 85.988 135.382 86.0287 135.186 86.0317C135.008 86.0345 134.766 86.0075 134.336 85.9515C133.977 85.9046 133.435 85.8299 132.912 85.8328C132.403 85.8356 131.609 85.9061 130.878 86.393L133.098 89.7208C132.865 89.8757 132.721 89.8335 132.934 89.8323C133.134 89.8312 133.388 89.8613 133.819 89.9175C134.18 89.9645 134.724 90.0389 135.248 90.0308C135.755 90.0229 136.58 89.9405 137.313 89.3866L134.9 86.196ZM130.877 86.3938C130.141 86.8856 129.781 87.6063 129.595 88.0604C129.402 88.5329 129.268 89.0579 129.176 89.3994C129.067 89.8095 128.998 90.0433 128.927 90.2055C128.851 90.3785 128.884 90.2006 129.15 90.0414L131.205 93.4728C131.983 93.0074 132.379 92.2934 132.589 91.8146C132.804 91.3251 132.945 90.7915 133.041 90.4326C133.156 90.0052 133.222 89.7598 133.298 89.5746C133.382 89.3709 133.359 89.5465 133.099 89.7201L130.877 86.3938ZM129.146 90.0437C129.435 89.8695 129.629 89.9299 129.432 89.9133C129.252 89.8981 129.013 89.8471 128.591 89.7492C128.237 89.6672 127.706 89.5399 127.185 89.4922C126.678 89.4457 125.878 89.4391 125.102 89.859L127.007 93.3761C126.756 93.5124 126.61 93.4557 126.82 93.475C127.016 93.4929 127.265 93.5473 127.687 93.6453C128.041 93.7274 128.575 93.8547 129.097 93.8987C129.601 93.9412 130.426 93.9415 131.209 93.4705L129.146 90.0437ZM125.101 89.8597C124.321 90.2825 123.898 90.9682 123.671 91.4045C123.435 91.8586 123.255 92.3698 123.133 92.7032C122.987 93.1029 122.897 93.3313 122.811 93.4888C122.718 93.6574 122.766 93.4845 123.043 93.3486L124.804 96.9399C125.615 96.5423 126.07 95.8661 126.32 95.4098C126.576 94.9424 126.763 94.4244 126.89 94.0762C127.042 93.6616 127.13 93.4235 127.222 93.2468C127.323 93.0524 127.284 93.2261 127.009 93.3754L125.101 89.8597ZM123.043 93.3483C123.341 93.2024 123.524 93.2773 123.327 93.2445C123.147 93.2144 122.911 93.144 122.498 93.0127C122.152 92.9027 121.633 92.7336 121.118 92.6446C120.617 92.5582 119.819 92.4879 119.012 92.8465L120.638 96.5012C120.374 96.6186 120.23 96.55 120.437 96.5858C120.63 96.6191 120.873 96.6929 121.287 96.8243C121.633 96.9343 122.154 97.1036 122.67 97.1895C123.169 97.2727 123.987 97.3398 124.803 96.9402L123.043 93.3483ZM119.011 92.8471C118.199 93.2085 117.722 93.8593 117.461 94.281C117.19 94.7185 116.971 95.216 116.824 95.5415C116.648 95.9314 116.542 96.1535 116.444 96.306C116.338 96.4698 116.398 96.2991 116.686 96.1822L118.19 99.8884C119.027 99.549 119.528 98.9057 119.807 98.471C120.095 98.025 120.319 97.5227 120.47 97.1866C120.651 96.786 120.757 96.556 120.861 96.3887C120.975 96.2055 120.923 96.3742 120.639 96.5006L119.011 92.8471ZM116.689 96.1812C116.994 96.058 117.168 96.1447 116.973 96.0981C116.795 96.0555 116.564 95.9687 116.161 95.8092C115.824 95.6757 115.318 95.471 114.81 95.3469C114.316 95.2263 113.523 95.1011 112.692 95.4068L114.074 99.1603C113.799 99.2616 113.656 99.1823 113.86 99.232C114.049 99.2782 114.286 99.3683 114.689 99.528C115.027 99.6617 115.535 99.8665 116.044 99.9881C116.536 100.106 117.347 100.229 118.188 99.8894L116.689 96.1812ZM112.693 95.4065C111.858 95.7133 111.339 96.3309 111.049 96.7359C110.749 97.1555 110.498 97.6381 110.33 97.9536C110.129 98.3316 110.009 98.5463 109.901 98.6922C109.785 98.8488 109.856 98.6825 110.151 98.5844L111.414 102.38C112.27 102.095 112.811 101.485 113.118 101.069C113.434 100.643 113.69 100.156 113.862 99.8314C114.068 99.444 114.189 99.222 114.303 99.0628C114.427 98.889 114.364 99.0536 114.073 99.1606L112.693 95.4065ZM110.15 98.5849C110.46 98.4814 110.628 98.5782 110.436 98.5198C110.261 98.4663 110.036 98.3655 109.644 98.1815C109.315 98.0275 108.822 97.7921 108.323 97.6369C107.838 97.4862 107.054 97.3122 106.206 97.5669L107.356 101.398C107.074 101.482 106.936 101.394 107.136 101.456C107.321 101.514 107.552 101.618 107.945 101.802C108.274 101.957 108.769 102.193 109.269 102.345C109.754 102.493 110.555 102.666 111.415 102.379L110.15 98.5849ZM106.204 97.5673C105.353 97.8236 104.797 98.4084 104.483 98.7958C104.158 99.1972 103.878 99.6641 103.691 99.9703C103.467 100.337 103.335 100.545 103.217 100.685C103.091 100.837 103.171 100.674 103.473 100.592L104.519 104.453C105.39 104.217 105.964 103.639 106.292 103.244C106.63 102.838 106.914 102.368 107.106 102.055C107.334 101.681 107.468 101.466 107.591 101.314C107.725 101.148 107.653 101.308 107.358 101.397L106.204 97.5673ZM103.476 100.592C103.789 100.507 103.949 100.613 103.761 100.543C103.588 100.48 103.369 100.366 102.988 100.16C102.669 99.9879 102.191 99.7247 101.701 99.5415C101.226 99.3635 100.453 99.1449 99.5902 99.352L100.525 103.241C100.237 103.31 100.102 103.213 100.298 103.287C100.48 103.355 100.704 103.472 101.086 103.679C101.406 103.852 101.886 104.115 102.378 104.296C102.854 104.472 103.643 104.689 104.517 104.454L103.476 100.592ZM99.5894 99.3521C98.7239 99.5603 98.136 100.114 97.8004 100.484C97.4529 100.867 97.1481 101.319 96.9448 101.614C96.7014 101.968 96.5575 102.168 96.4331 102.302C96.2991 102.446 96.3884 102.288 96.6944 102.223L97.5256 106.135C98.4084 105.948 99.0133 105.402 99.3636 105.025C99.7235 104.638 100.033 104.184 100.241 103.881C100.489 103.521 100.634 103.314 100.765 103.17C100.907 103.013 100.826 103.168 100.526 103.241L99.5894 99.3521ZM96.6948 102.223C97.0109 102.156 97.1636 102.269 96.9797 102.19C96.8106 102.117 96.5979 101.992 96.2288 101.766C95.9198 101.577 95.4562 101.288 94.9777 101.079C94.5135 100.876 93.7524 100.616 92.8796 100.777L93.6065 104.71C93.3135 104.764 93.1834 104.66 93.3752 104.743C93.5527 104.821 93.77 104.95 94.1407 105.177C94.4511 105.367 94.9166 105.656 95.398 105.863C95.8647 106.064 96.6402 106.323 97.5252 106.135L96.6948 102.223ZM92.8796 100.777C92.005 100.938 91.3875 101.455 91.0269 101.812C90.6562 102.178 90.3275 102.614 90.1086 102.9C89.8464 103.242 89.6938 103.433 89.5633 103.56C89.4235 103.696 89.5224 103.541 89.8327 103.492L90.4585 107.442C91.3509 107.301 91.983 106.786 92.3521 106.428C92.7303 106.06 93.0619 105.622 93.2836 105.333C93.5486 104.987 93.7035 104.79 93.8404 104.655C93.9873 104.51 93.9014 104.655 93.6065 104.71L92.8796 100.777ZM89.8327 103.492C90.1417 103.443 90.2819 103.559 90.1049 103.472C89.9405 103.392 89.7344 103.256 89.3799 103.013C89.0838 102.81 88.6372 102.498 88.1746 102.264C87.7274 102.039 86.98 101.734 86.0975 101.85L86.6203 105.815C86.3148 105.856 86.1837 105.74 86.3728 105.835C86.5465 105.923 86.7561 106.063 87.1169 106.311C87.4193 106.518 87.8707 106.831 88.3451 107.064C88.807 107.29 89.5673 107.583 90.4585 107.442L89.8327 103.492ZM86.0975 101.85C85.2164 101.966 84.5731 102.453 84.1993 102.786C83.8117 103.131 83.4601 103.547 83.2247 103.822C82.9434 104.149 82.7781 104.335 82.6387 104.457C82.4861 104.591 82.5953 104.437 82.9163 104.403L83.3354 108.381C84.2342 108.286 84.8922 107.801 85.2738 107.467C85.6686 107.121 86.0229 106.703 86.2612 106.426C86.5453 106.095 86.7132 105.903 86.8594 105.773C87.0194 105.631 86.9244 105.775 86.6203 105.815L86.0975 101.85ZM82.9165 104.403C83.2269 104.37 83.3603 104.493 83.1884 104.398C83.0287 104.309 82.83 104.163 82.4892 103.901C82.2045 103.683 81.7751 103.348 81.3262 103.091C80.8925 102.842 80.1623 102.498 79.2748 102.567L79.5863 106.554C79.278 106.578 79.1526 106.455 79.3369 106.561C79.506 106.658 79.708 106.809 80.0556 107.076C80.3471 107.299 80.7816 107.635 81.2438 107.893C81.6939 108.143 82.4379 108.475 83.3352 108.381L82.9165 104.403ZM79.274 102.567C78.3912 102.636 77.7236 103.081 77.3262 103.397C76.9171 103.722 76.5432 104.119 76.2927 104.382C75.9937 104.695 75.8199 104.871 75.6743 104.986C75.5158 105.111 75.6321 104.964 75.9525 104.946L76.1741 108.94C77.0741 108.89 77.7539 108.44 78.1514 108.127C78.5618 107.803 78.9366 107.405 79.1873 107.143C79.4865 106.829 79.6634 106.649 79.8149 106.528C79.9782 106.399 79.881 106.531 79.5871 106.554L79.274 102.567ZM75.9637 104.946C76.2745 104.93 76.4005 105.059 76.2345 104.955C76.0801 104.858 75.8897 104.701 75.5641 104.422C75.2922 104.188 74.8822 103.83 74.4489 103.549C74.0305 103.277 73.3213 102.892 72.432 102.911L72.5185 106.91C72.2092 106.917 72.091 106.787 72.2698 106.903C72.4336 107.009 72.627 107.172 72.9596 107.457C73.2386 107.696 73.6539 108.056 74.1016 108.338C74.5377 108.613 75.2622 108.985 76.1629 108.94L75.9637 104.946ZM72.4307 102.911C71.5446 102.931 70.8525 103.339 70.4384 103.632C70.0117 103.933 69.6158 104.309 69.3511 104.557C69.0349 104.853 68.8521 105.019 68.7016 105.124C68.5374 105.238 68.6668 105.095 68.994 105.097L68.9629 109.097C69.8695 109.104 70.5779 108.692 70.9934 108.402C71.4226 108.102 71.82 107.725 72.0854 107.477C72.4024 107.18 72.5895 107.01 72.7483 106.898C72.9195 106.776 72.815 106.903 72.5198 106.91L72.4307 102.911ZM68.9925 105.097C69.3034 105.1 69.422 105.236 69.2635 105.123C69.1158 105.017 68.9352 104.85 68.6272 104.553C68.3701 104.304 67.9822 103.923 67.5671 103.616C67.1664 103.321 66.4815 102.894 65.5927 102.86L65.4401 106.856C65.1301 106.844 65.0194 106.707 65.1914 106.834C65.349 106.95 65.5323 107.124 65.848 107.429C66.1128 107.685 66.5067 108.069 66.9383 108.377C67.359 108.677 68.0615 109.09 68.9644 109.097L68.9925 105.097ZM65.5931 102.86C64.7084 102.826 63.9931 103.189 63.5608 103.456C63.1159 103.731 62.6974 104.082 62.4178 104.314C62.0837 104.59 61.8914 104.744 61.735 104.839C61.5641 104.944 61.7035 104.807 62.0317 104.83L61.7518 108.82C62.6569 108.883 63.3897 108.516 63.8216 108.252C64.2679 107.979 64.6876 107.627 64.9674 107.396C65.3017 107.12 65.4991 106.961 65.6645 106.859C65.8425 106.748 65.7321 106.868 65.4396 106.856L65.5931 102.86ZM62.0331 104.83C62.3421 104.852 62.4512 104.995 62.3011 104.873C62.1609 104.758 61.9915 104.58 61.7039 104.264C61.464 104 61.1021 103.594 60.7091 103.262C60.3302 102.941 59.6756 102.469 58.7915 102.376L58.3724 106.354C58.0629 106.321 57.9613 106.176 58.1257 106.315C58.276 106.443 58.4479 106.628 58.7438 106.954C58.992 107.227 59.3607 107.636 59.7725 107.972C60.1743 108.299 60.8495 108.756 61.7504 108.82L62.0331 104.83ZM58.7906 102.376C57.9122 102.284 57.1751 102.597 56.7257 102.834C56.2631 103.078 55.8216 103.399 55.5265 103.61C55.1741 103.863 54.9719 104.002 54.8098 104.087C54.6324 104.179 54.7835 104.051 55.1127 104.098L54.5481 108.057C55.4481 108.186 56.2061 107.869 56.6546 107.636C57.1185 107.395 57.5616 107.073 57.8568 106.861C58.2094 106.609 58.418 106.464 58.591 106.372C58.7774 106.274 58.6616 106.384 58.3733 106.354L58.7906 102.376ZM55.113 104.098C55.4193 104.142 55.5183 104.292 55.3788 104.16C55.2483 104.037 55.0929 103.848 54.8303 103.512C54.6114 103.233 54.2811 102.802 53.9156 102.442C53.5638 102.096 52.9477 101.575 52.0745 101.415L51.3518 105.348C51.0447 105.292 50.9542 105.139 51.109 105.292C51.2502 105.431 51.4078 105.629 51.6795 105.976C51.9075 106.268 52.2455 106.703 52.633 107.069C53.0115 107.426 53.6528 107.929 54.5479 108.057L55.113 104.098ZM52.0756 101.415C51.209 101.255 50.4506 101.507 49.9828 101.708C49.5015 101.914 49.0355 102.198 48.7242 102.386C48.3523 102.609 48.1401 102.732 47.9727 102.802C47.7891 102.88 47.9538 102.762 48.2824 102.838L47.3882 106.736C48.277 106.94 49.06 106.684 49.5254 106.488C50.007 106.286 50.4746 106 50.7857 105.813C51.1572 105.59 51.3774 105.462 51.5581 105.384C51.7521 105.301 51.6314 105.4 51.3507 105.348L52.0756 101.415ZM48.2835 102.838C48.5843 102.907 48.6704 103.065 48.5448 102.925C48.4268 102.792 48.289 102.591 48.058 102.235C47.8656 101.938 47.5755 101.481 47.2455 101.091C46.928 100.716 46.3632 100.142 45.5102 99.9019L44.4269 103.752C44.1263 103.667 44.0505 103.507 44.1924 103.675C44.3216 103.828 44.4609 104.04 44.7017 104.411C44.9038 104.723 45.2029 105.187 45.5589 105.586C45.9073 105.977 46.5045 106.533 47.3871 106.736L48.2835 102.838ZM45.5104 99.9019C44.666 99.6643 43.8897 99.8415 43.4046 99.9956C42.9059 100.154 42.4144 100.391 42.0863 100.547C41.6944 100.733 41.4722 100.834 41.3005 100.886C41.1118 100.945 41.2923 100.843 41.6164 100.954L40.3222 104.738C41.1886 105.034 41.9962 104.857 42.4791 104.709C42.979 104.555 43.4728 104.316 43.8012 104.161C44.1934 103.975 44.4264 103.868 44.6161 103.807C44.8193 103.743 44.6953 103.827 44.4267 103.752L45.5104 99.9019ZM41.6167 100.954C41.9097 101.054 41.98 101.222 41.873 101.072C41.7719 100.931 41.6576 100.718 41.4688 100.34C41.3118 100.026 41.0755 99.5396 40.7944 99.1174C40.5246 98.7122 40.0323 98.0774 39.2173 97.739L37.6833 101.433C37.3956 101.313 37.3401 101.147 37.4643 101.333C37.5771 101.503 37.6919 101.731 37.891 102.129C38.0582 102.463 38.305 102.959 38.6178 103.397C38.9247 103.826 39.4616 104.444 40.3218 104.738L41.6167 100.954ZM39.2174 97.7391C38.4127 97.4048 37.6246 97.4829 37.1246 97.5744C36.6107 97.6685 36.0935 97.841 35.7487 97.9531C35.3367 98.087 35.1055 98.1573 34.932 98.1867C34.7403 98.2193 34.9431 98.14 35.259 98.3L33.4517 101.868C34.2753 102.285 35.1051 102.214 35.6029 102.13C36.119 102.042 36.6399 101.869 36.986 101.757C37.3993 101.622 37.6461 101.545 37.8453 101.509C38.0585 101.47 37.9329 101.536 37.6831 101.433L39.2174 97.7391ZM35.2629 98.302C35.5402 98.4431 35.5874 98.6214 35.5062 98.4631C35.4291 98.3129 35.3482 98.088 35.2196 97.6901C35.1129 97.3601 34.9542 96.8456 34.7454 96.3901C34.5458 95.9546 34.1651 95.2542 33.4258 94.7896L31.2971 98.1758C31.0376 98.0127 31.0119 97.8449 31.1086 98.0559C31.1961 98.2469 31.275 98.4927 31.4129 98.9194C31.5288 99.2783 31.6995 99.8065 31.9469 100.289C32.19 100.762 32.6345 101.452 33.4478 101.866L35.2629 98.302ZM33.421 94.7866C32.6912 94.3309 31.9096 94.2707 31.4042 94.2724C30.8846 94.2741 30.3465 94.3501 29.9893 94.3974C29.562 94.4539 29.3256 94.4796 29.1564 94.4763C28.9691 94.4727 29.1965 94.4334 29.4846 94.6612L27.0033 97.7982C27.7357 98.3773 28.5719 98.4654 29.0799 98.4751C29.6061 98.4852 30.1515 98.4103 30.5144 98.3623C30.9474 98.305 31.208 98.2726 31.4177 98.2719C31.6415 98.2712 31.5196 98.3147 31.302 98.1788L33.421 94.7866ZM29.4865 94.6627C29.7369 94.8612 29.7502 95.0557 29.7082 94.8976C29.6677 94.7452 29.6379 94.5154 29.6013 94.1042C29.5712 93.7652 29.5321 93.2301 29.4349 92.7453C29.3419 92.2818 29.1373 91.5207 28.5421 90.8993L25.6527 93.6651C25.4492 93.4526 25.4652 93.2955 25.5125 93.5314C25.5556 93.746 25.5764 94.0059 25.6165 94.4576C25.6503 94.8372 25.701 95.394 25.8419 95.9243C25.9814 96.4491 26.277 97.2226 27.0014 97.7967L29.4865 94.6627ZM28.5437 90.9009C27.9604 90.2905 27.2321 90.0326 26.7526 89.9023C26.2591 89.7681 25.7239 89.695 25.3744 89.6431C24.9542 89.5806 24.7282 89.5394 24.5798 89.4919C24.4176 89.44 24.6609 89.4747 24.8731 89.7906L21.5518 92.0198C22.0814 92.8084 22.8649 93.1424 23.3604 93.301C23.8697 93.464 24.419 93.5445 24.7865 93.5991C25.2247 93.6642 25.4897 93.7036 25.7035 93.7617C25.9314 93.8237 25.8178 93.8378 25.6512 93.6635L28.5437 90.9009ZM24.8725 89.7898C25.0672 90.0794 25.0155 90.2964 25.0266 90.1483C25.0374 90.0045 25.0831 89.7867 25.1863 89.39C25.2711 89.0643 25.4146 88.5492 25.4894 88.0645C25.5613 87.5984 25.6304 86.8319 25.316 86.0566L21.6086 87.559C21.5108 87.3177 21.5738 87.2068 21.5356 87.4546C21.5003 87.6838 21.4297 87.9409 21.3147 88.3826C21.2183 88.7531 21.0788 89.2976 21.0374 89.848C20.9963 90.3939 21.0254 91.2368 21.5524 92.0207L24.8725 89.7898ZM25.316 86.0566C25.0039 85.2871 24.4296 84.7828 24.0522 84.4923C23.6615 84.1916 23.2015 83.9174 22.9146 83.7397C22.5649 83.5231 22.3841 83.3984 22.2802 83.3044C22.1731 83.2076 22.3703 83.3388 22.4272 83.698L18.476 84.3232C18.6253 85.2656 19.19 85.9024 19.5959 86.2697C20.0051 86.64 20.4829 86.9382 20.8078 87.1394C21.1954 87.3796 21.4259 87.5181 21.6121 87.6615C21.8116 87.815 21.7006 87.7859 21.6087 87.5591L25.316 86.0566ZM22.4272 83.698C22.4841 84.0572 22.3371 84.2429 22.4091 84.1176C22.4788 83.9961 22.6123 83.8217 22.878 83.5076C23.096 83.2498 23.4488 82.8468 23.7275 82.4399C23.9968 82.0468 24.3868 81.3897 24.4456 80.5614L20.4552 80.2778C20.4725 80.0342 20.5688 79.9725 20.4266 80.1801C20.2939 80.3739 20.1175 80.5769 19.8232 80.9249C19.5764 81.2166 19.2142 81.6478 18.9395 82.1263C18.667 82.6009 18.3267 83.3809 18.476 84.3232L22.4272 83.698ZM24.4456 80.5618C24.505 79.7273 24.2023 79.0198 23.9898 78.5987C23.769 78.1611 23.4732 77.7156 23.2923 77.4326C23.0717 77.0876 22.9613 76.8949 22.9068 76.7619C22.8509 76.6254 22.966 76.8143 22.8712 77.1474L19.0236 76.0518C18.7652 76.9593 18.9966 77.7692 19.2047 78.2771C19.4141 78.7885 19.7152 79.2635 19.9215 79.5862C20.1674 79.9709 20.3139 80.1932 20.4183 80.4001C20.531 80.6235 20.4367 80.5373 20.4552 80.2775L24.4456 80.5618ZM22.8718 77.1454C22.7675 77.5131 22.5453 77.622 22.6833 77.5228C22.8097 77.432 23.0116 77.3234 23.3925 77.1343C23.7093 76.977 24.1963 76.7422 24.625 76.4615C25.0418 76.1887 25.655 75.7175 26.0206 74.955L22.4131 73.226C22.5174 73.0085 22.6301 72.9866 22.4334 73.1154C22.2486 73.2363 22.0092 73.3554 21.6127 73.5523C21.2803 73.7173 20.7824 73.9632 20.3482 74.2751C19.9258 74.5787 19.2826 75.1387 19.023 76.0538L22.8718 77.1454ZM26.0163 74.964C26.3931 74.188 26.353 73.3992 26.2981 72.9283C26.2407 72.4362 26.112 71.9147 26.0356 71.5827C25.9429 71.1799 25.9001 70.9525 25.8914 70.7953C25.8825 70.6326 25.9302 70.8234 25.7519 71.0909L22.4225 68.8732C21.909 69.6439 21.8671 70.4723 21.897 71.0149C21.9272 71.563 22.0517 72.1085 22.1371 72.4795C22.2388 72.9213 22.2992 73.1745 22.3245 73.3911C22.3522 73.629 22.2883 73.483 22.4174 73.217L26.0163 74.964ZM25.752 71.0908C25.5484 71.3963 25.3201 71.4292 25.4969 71.368C25.6567 71.3127 25.8892 71.2642 26.313 71.186C26.6672 71.1207 27.2024 71.0269 27.697 70.8681C28.1782 70.7136 28.9028 70.4151 29.456 69.7564L26.3922 67.1844C26.5572 66.988 26.6865 66.9917 26.4736 67.0601C26.2741 67.1241 26.0164 67.1737 25.587 67.2529C25.2271 67.3192 24.6853 67.4164 24.1881 67.5884C23.7079 67.7546 22.94 68.0965 22.4224 68.8734L25.752 71.0908ZM29.4564 69.7559C30.019 69.0857 30.1661 68.301 30.2218 67.8233C30.28 67.3242 30.2717 66.7853 30.2709 66.438C30.2699 66.0193 30.2771 65.7806 30.3038 65.6141C30.332 65.4387 30.3422 65.6237 30.1214 65.8443L27.2935 63.015C26.6473 63.6606 26.4382 64.4545 26.3538 64.9804C26.268 65.5151 26.2695 66.0704 26.2704 66.4468C26.2714 66.8947 26.2724 67.1522 26.2482 67.3595C26.2216 67.5882 26.1945 67.42 26.3918 67.1849L29.4564 69.7559ZM30.1183 65.8474C29.8673 66.097 29.6499 66.0842 29.8421 66.0561C30.0161 66.0306 30.2576 66.026 30.6908 66.0262C31.0534 66.0264 31.5985 66.0308 32.1165 65.9616C32.6205 65.8942 33.3937 65.7251 34.0558 65.1594L31.4564 62.119C31.6613 61.9439 31.8007 61.9686 31.586 61.9973C31.3852 62.0241 31.1266 62.0269 30.6922 62.0267C30.3283 62.0265 29.7795 62.0229 29.2616 62.0988C28.7619 62.1721 27.951 62.3611 27.2966 63.0119L30.1183 65.8474ZM34.0563 65.1589C34.7268 64.5855 34.9989 63.83 35.1303 63.3614C35.2672 62.8731 35.3416 62.3374 35.3939 61.9906C35.4569 61.5735 35.4997 61.3356 35.5521 61.1701C35.6076 60.9948 35.5925 61.1759 35.345 61.3615L32.9439 58.1623C32.2169 58.7077 31.897 59.4605 31.7379 59.9637C31.5756 60.4766 31.494 61.024 31.4382 61.3934C31.3718 61.8333 31.3332 62.0856 31.2783 62.2815C31.2178 62.497 31.2193 62.3217 31.4558 62.1195L34.0563 65.1589ZM35.3515 61.3567C35.0756 61.5654 34.8689 61.5246 35.0646 61.5216C35.2427 61.5189 35.4841 61.5458 35.9142 61.6019C36.274 61.6488 36.8152 61.7234 37.3387 61.7205C37.8482 61.7177 38.6417 61.6471 39.3721 61.1606L37.1541 57.832C37.3858 57.6776 37.5295 57.7199 37.316 57.7211C37.1167 57.7222 36.8619 57.6921 36.431 57.6359C36.0704 57.5889 35.5263 57.5145 35.0023 57.5226C34.4959 57.5304 33.6705 57.6127 32.9375 58.1672L35.3515 61.3567ZM39.3732 61.1599C40.1105 60.6682 40.4702 59.9475 40.6562 59.4931C40.8496 59.0204 40.984 58.4952 41.0753 58.1537C41.1849 57.7437 41.2538 57.51 41.3251 57.3479C41.401 57.1753 41.3676 57.3531 41.102 57.512L39.0476 54.08C38.2699 54.5452 37.8734 55.2591 37.6627 55.7383C37.4475 56.228 37.3064 56.7617 37.2105 57.1206C37.0962 57.548 37.0293 57.7932 36.9536 57.9783C36.8704 58.1816 36.8931 58.006 37.153 57.8327L39.3732 61.1599ZM41.1069 57.5091C40.8168 57.6838 40.6222 57.6233 40.8195 57.6399C40.9996 57.6551 41.2387 57.7061 41.6612 57.804C42.0148 57.886 42.5462 58.0132 43.0675 58.061C43.5743 58.1074 44.3743 58.114 45.1499 57.6941L43.2448 54.177C43.4966 54.0407 43.6426 54.0974 43.4322 54.0781C43.2362 54.0602 42.9872 54.0058 42.5643 53.9078C42.2104 53.8258 41.6769 53.6985 41.1553 53.6545C40.651 53.612 39.8256 53.6115 39.0427 54.0829L41.1069 57.5091ZM45.1484 57.6949C45.9297 57.2728 46.355 56.5877 46.5829 56.1492C46.8195 55.6939 47.0004 55.182 47.1221 54.8482C47.2681 54.4478 47.3573 54.2199 47.4433 54.0625C47.5352 53.8944 47.4875 54.0682 47.2095 54.2045L45.4484 50.6132C44.6364 51.0111 44.1821 51.6882 43.9325 52.1448C43.6771 52.6122 43.4903 53.1305 43.3636 53.478C43.2126 53.892 43.1242 54.1294 43.033 54.3049C42.933 54.4972 42.972 54.3244 43.2464 54.1762L45.1484 57.6949ZM47.2109 54.2038C46.9119 54.3506 46.728 54.2755 46.925 54.3083C47.1049 54.3383 47.3403 54.4087 47.7537 54.54C48.0997 54.6499 48.6192 54.8191 49.1349 54.908C49.6361 54.9944 50.4343 55.0644 51.2414 54.7048L49.6128 51.0515C49.8774 50.9337 50.0214 51.0023 49.8142 50.9666C49.6216 50.9334 49.3784 50.8597 48.9649 50.7283C48.6188 50.6184 48.0978 50.449 47.5818 50.3631C47.0829 50.28 46.2636 50.2129 45.447 50.6139L47.2109 54.2038ZM51.2415 54.7047C52.0528 54.3433 52.5294 53.6927 52.7906 53.2714C53.0618 52.8342 53.2807 52.337 53.4276 52.0117C53.6036 51.6221 53.7098 51.4 53.8081 51.2476C53.9136 51.0838 53.8539 51.2541 53.5659 51.3709L52.0618 47.6647C51.2254 48.0039 50.725 48.6467 50.445 49.0813C50.1577 49.5272 49.9334 50.0293 49.7816 50.3655C49.6007 50.7659 49.4945 50.9961 49.3907 51.1635C49.2769 51.3469 49.3287 51.1782 49.6127 51.0516L51.2415 54.7047ZM53.5636 51.3719C53.2585 51.4951 53.0838 51.4084 53.2785 51.4549C53.4569 51.4976 53.6872 51.5843 54.0903 51.7439C54.4278 51.8775 54.9342 52.0821 55.4424 52.2063C55.9361 52.3269 56.7289 52.4519 57.5598 52.1464L56.1786 48.3927C56.4533 48.2917 56.5951 48.3708 56.3917 48.3211C56.2028 48.2749 55.966 48.1849 55.5627 48.0252C55.2251 47.8916 54.7172 47.6866 54.2084 47.565C53.7161 47.4474 52.9054 47.3238 52.0642 47.6637L53.5636 51.3719ZM57.5597 52.1464C58.3944 51.8395 58.9136 51.2217 59.203 50.817C59.503 50.3976 59.7539 49.9151 59.9217 49.5995C60.1227 49.2215 60.2428 49.0068 60.3508 48.8608C60.4667 48.7039 60.396 48.8704 60.1006 48.9687L58.8371 45.1738C57.9805 45.4588 57.4401 46.0686 57.1331 46.4839C56.8181 46.9102 56.5622 47.3968 56.3894 47.7217C56.1834 48.1091 56.0627 48.3312 55.9487 48.4906C55.8242 48.6647 55.8871 48.4998 56.1786 48.3927L57.5597 52.1464ZM60.1014 48.9685C59.7917 49.0716 59.6247 48.9752 59.816 49.0335C59.9915 49.087 60.2164 49.1878 60.6085 49.3716C60.9367 49.5255 61.4294 49.761 61.9283 49.9162C62.4127 50.0668 63.1971 50.2412 64.0459 49.9863L62.8948 46.1558C63.1777 46.0709 63.3164 46.1594 63.1163 46.0972C62.9308 46.0395 62.7002 45.935 62.307 45.7506C61.9778 45.5963 61.4832 45.3605 60.9822 45.2078C60.4969 45.0599 59.6961 44.8876 58.8363 45.1741L60.1014 48.9685ZM64.0472 49.9859C64.8987 49.7296 65.4544 49.1445 65.7684 48.7571C66.0937 48.3556 66.3733 47.8886 66.5601 47.5826C66.7838 47.2163 66.9167 47.0083 67.0337 46.8679C67.1598 46.7165 67.0793 46.8796 66.7771 46.9611L65.7348 43.0996C64.8635 43.3346 64.289 43.9128 63.9597 44.3081C63.6213 44.7143 63.3372 45.1846 63.1457 45.4983C62.9173 45.8722 62.7833 46.087 62.6601 46.239C62.5255 46.4051 62.5975 46.2453 62.8936 46.1562L64.0472 49.9859ZM66.7768 46.9612C66.4627 47.0459 66.3027 46.9404 66.4909 47.0097C66.6637 47.0734 66.8827 47.187 67.2638 47.3929C67.5828 47.5652 68.0614 47.8283 68.5508 48.0115C69.0258 48.1892 69.8 48.4079 70.6628 48.1998L69.7243 44.3118C70.0134 44.2421 70.1486 44.339 69.9528 44.2657C69.7714 44.1978 69.5474 44.0807 69.1654 43.8743C68.8456 43.7015 68.3654 43.438 67.8741 43.257C67.3983 43.0817 66.6093 42.8639 65.7351 43.0996L66.7768 46.9612ZM70.6616 48.2001C71.5267 47.992 72.1146 47.439 72.4503 47.0688C72.7979 46.6857 73.1028 46.2347 73.3063 45.9393C73.5499 45.5857 73.6939 45.3854 73.8184 45.2515C73.9526 45.1074 73.8635 45.2654 73.5579 45.3303L72.7267 41.418C71.8443 41.6053 71.2395 42.1508 70.8891 42.5275C70.5291 42.9144 70.2198 43.3682 70.0116 43.6705C69.7633 44.0309 69.6179 44.2374 69.4869 44.3818C69.3442 44.5392 69.4252 44.3837 69.7255 44.3115L70.6616 48.2001ZM73.5579 45.3303C73.2507 45.3955 73.103 45.2864 73.2817 45.363C73.4487 45.4346 73.6596 45.5587 74.0266 45.7842C74.3331 45.9724 74.7961 46.262 75.2735 46.4717C75.738 46.6757 76.4997 46.9372 77.3743 46.7748L76.6438 42.8425C76.9388 42.7878 77.0715 42.8931 76.8825 42.8101C76.7064 42.7327 76.4915 42.6043 76.1204 42.3764C75.8099 42.1856 75.3435 41.8954 74.8585 41.6874C74.3852 41.4845 73.6106 41.2303 72.7267 41.418L73.5579 45.3303ZM77.3714 46.7754C78.2473 46.6142 78.8644 46.0931 79.2199 45.7409C79.5878 45.3763 79.9164 44.9417 80.1354 44.6571C80.3976 44.3164 80.552 44.1237 80.6836 43.9962C80.8256 43.8587 80.7281 44.0125 80.4185 44.0615L79.7927 40.1111C78.9016 40.2522 78.2691 40.766 77.9002 41.1233C77.5209 41.4906 77.1883 41.9275 76.9646 42.2181C76.6979 42.5647 76.5419 42.7631 76.4038 42.8999C76.2532 43.0491 76.3427 42.8979 76.6467 42.842L77.3714 46.7754ZM80.4185 44.0615C80.109 44.1105 79.9686 43.9943 80.1462 44.0813C80.3108 44.1619 80.5172 44.2975 80.8719 44.5405C81.1682 44.7437 81.615 45.0555 82.0776 45.2887C82.5246 45.5139 83.2726 45.819 84.1554 45.7019L83.629 41.7371C83.9354 41.6965 84.0672 41.8126 83.8779 41.7172C83.7043 41.6297 83.4945 41.4892 83.1337 41.2419C82.8312 41.0345 82.3799 40.7217 81.9056 40.4895C81.4442 40.2635 80.6839 39.9701 79.7927 40.1111L80.4185 44.0615ZM84.1554 45.7019C85.0354 45.5852 85.6779 45.0984 86.0512 44.7662C86.4384 44.4217 86.7899 44.0058 87.0254 43.7317C87.3066 43.4043 87.4721 43.2186 87.6115 43.0967C87.7641 42.9634 87.6556 43.1164 87.3361 43.1501L86.9168 39.1725C86.0189 39.2671 85.361 39.7512 84.9789 40.085C84.5837 40.4304 84.2291 40.8479 83.9904 41.1258C83.706 41.4569 83.5378 41.6482 83.3913 41.7786C83.2308 41.9214 83.3254 41.7774 83.629 41.7371L84.1554 45.7019ZM87.3358 43.1501C87.0257 43.1827 86.8924 43.0601 87.0642 43.1556C87.2239 43.2444 87.4226 43.3904 87.7634 43.6514C88.0481 43.8695 88.4774 44.2044 88.9264 44.4615C89.3601 44.7099 90.0901 45.0545 90.9773 44.9853L90.6658 40.9979C90.9739 40.9739 91.0991 41.0968 90.9149 40.9912C90.7458 40.8944 90.5438 40.7429 90.1962 40.4767C89.9048 40.2534 89.4703 39.9171 89.0081 39.6602C88.558 39.41 87.8141 39.0782 86.9171 39.1725L87.3358 43.1501ZM90.9761 44.9854C91.8599 44.917 92.5282 44.4713 92.9254 44.1559C93.3346 43.8309 93.7085 43.4334 93.959 43.171C94.258 42.8576 94.4317 42.6814 94.5772 42.5667C94.7358 42.4418 94.6185 42.5898 94.2967 42.6073L94.0791 38.6136C93.1781 38.6626 92.4976 39.1126 92.1003 39.4258C91.6899 39.7493 91.315 40.1474 91.0644 40.41C90.7652 40.7236 90.5883 40.9039 90.4369 41.0241C90.2736 41.1538 90.3717 41.0207 90.667 40.9978L90.9761 44.9854ZM94.2895 42.6076C93.9785 42.6234 93.8522 42.494 94.0179 42.5983C94.1721 42.6954 94.3625 42.8519 94.688 43.1311C94.9599 43.3642 95.3699 43.7223 95.8031 44.0038C96.2214 44.2755 96.9308 44.6608 97.8203 44.6417L97.7338 40.6431C98.0433 40.6364 98.1617 40.7664 97.9827 40.6502C97.8187 40.5437 97.6253 40.3809 97.2925 40.0955C97.0133 39.8561 96.5976 39.4962 96.1494 39.214C95.7128 38.9391 94.9876 38.5675 94.0862 38.6133L94.2895 42.6076ZM97.8216 44.6416C98.7077 44.622 99.3998 44.214 99.8139 43.9212C100.24 43.6195 100.636 43.2434 100.901 42.9958C101.217 42.6998 101.4 42.5345 101.55 42.4295C101.714 42.315 101.585 42.4583 101.259 42.4558L101.289 38.4564C100.383 38.4493 99.6744 38.8604 99.2585 39.1509C98.8292 39.4509 98.4317 39.8278 98.1663 40.0763C97.8494 40.373 97.6623 40.5436 97.5037 40.6557C97.3327 40.7767 97.4372 40.6496 97.7325 40.6431L97.8216 44.6416ZM101.259 42.4558C100.948 42.4535 100.829 42.3169 100.988 42.4304C101.136 42.536 101.317 42.7032 101.625 43.0007C101.882 43.2491 102.27 43.6305 102.685 43.9369C103.086 44.2325 103.771 44.6594 104.66 44.6934L104.812 40.6968C105.122 40.7087 105.233 40.8457 105.06 40.7187C104.903 40.6024 104.719 40.4285 104.404 40.1237C104.139 39.8681 103.745 39.4844 103.314 39.1763C102.893 38.876 102.191 38.4629 101.288 38.4564L101.259 42.4558ZM104.659 44.6934C105.544 44.7276 106.259 44.3636 106.691 44.0967C107.136 43.8218 107.554 43.4708 107.834 43.2396C108.168 42.9634 108.36 42.8097 108.517 42.7141C108.688 42.6096 108.549 42.746 108.221 42.723L108.501 38.7333C107.595 38.6697 106.863 39.0375 106.431 39.3013C105.984 39.5741 105.565 39.9257 105.285 40.1572C104.95 40.4336 104.753 40.5924 104.587 40.6947C104.409 40.8049 104.52 40.6855 104.813 40.6968L104.659 44.6934ZM108.219 42.7229C107.91 42.701 107.801 42.558 107.951 42.6802C108.091 42.7944 108.26 42.9724 108.548 43.2886C108.787 43.5524 109.149 43.9581 109.542 44.2904C109.921 44.6109 110.576 45.0828 111.46 45.176L111.879 41.1985C112.188 41.2311 112.29 41.3758 112.126 41.237C111.975 41.11 111.804 40.9242 111.508 40.5989C111.26 40.3259 110.891 39.9171 110.48 39.5812C110.078 39.2535 109.403 38.7972 108.502 38.7334L108.219 42.7229ZM111.459 45.1759C112.338 45.2687 113.076 44.9557 113.526 44.7188C113.988 44.475 114.43 44.1537 114.725 43.9424C115.078 43.6899 115.28 43.5503 115.441 43.4663C115.618 43.3744 115.467 43.5023 115.138 43.4551L115.705 39.4961C114.805 39.3671 114.047 39.6836 113.598 39.9168C113.133 40.1578 112.69 40.4798 112.395 40.6913C112.042 40.9439 111.834 41.089 111.661 41.18C111.475 41.2779 111.591 41.1681 111.879 41.1985L111.459 45.1759ZM115.139 43.4553C114.833 43.4115 114.734 43.2609 114.873 43.3925C115.003 43.5156 115.159 43.7048 115.421 44.0406C115.64 44.3204 115.971 44.7515 116.336 45.1114C116.689 45.4581 117.305 45.9785 118.178 46.1387L118.9 42.2048C119.207 42.2611 119.297 42.4134 119.143 42.2613C119.002 42.1225 118.844 41.9241 118.573 41.5769C118.345 41.2856 118.007 40.8503 117.619 40.4846C117.241 40.1274 116.6 39.6237 115.704 39.4959L115.139 43.4553ZM118.177 46.1383C119.044 46.2981 119.802 46.0455 120.27 45.845C120.751 45.6389 121.217 45.3541 121.528 45.1669C121.9 44.9434 122.112 44.8208 122.279 44.7505C122.463 44.6734 122.297 44.7907 121.968 44.7149L122.866 40.8175C121.976 40.6127 121.193 40.8682 120.727 41.0641C120.245 41.2669 119.777 41.5524 119.466 41.7395C119.095 41.963 118.874 42.0914 118.694 42.1689C118.5 42.252 118.621 42.1533 118.902 42.2051L118.177 46.1383ZM121.97 44.7154C121.669 44.6463 121.582 44.4875 121.708 44.6283C121.825 44.7604 121.963 44.9614 122.194 45.3175C122.386 45.6141 122.677 46.0721 123.007 46.462C123.324 46.8368 123.889 47.4112 124.742 47.6512L125.825 43.8012C126.126 43.8858 126.202 44.0458 126.06 43.8781C125.931 43.7255 125.791 43.5129 125.551 43.1417C125.348 42.83 125.049 42.3659 124.693 41.9666C124.345 41.5759 123.747 41.0194 122.864 40.817L121.97 44.7154ZM124.742 47.6511C125.586 47.8888 126.363 47.7116 126.848 47.5575C127.346 47.3991 127.838 47.1616 128.166 47.006C128.558 46.8201 128.78 46.7196 128.952 46.6666C129.14 46.6085 128.96 46.7102 128.636 46.5994L129.93 42.8151C129.064 42.5188 128.256 42.6957 127.773 42.8445C127.273 42.9986 126.779 43.2367 126.451 43.3924C126.059 43.5784 125.826 43.6854 125.636 43.7457C125.433 43.8102 125.557 43.7257 125.826 43.8013L124.742 47.6511ZM128.636 46.5993C128.343 46.4991 128.273 46.3316 128.38 46.4815C128.481 46.6229 128.595 46.8361 128.784 47.2135C128.941 47.5273 129.178 48.0138 129.459 48.436C129.729 48.841 130.221 49.4756 131.036 49.814L132.57 46.1203C132.857 46.2396 132.913 46.4058 132.789 46.2192C132.676 46.0497 132.561 45.8214 132.362 45.4235C132.194 45.0892 131.947 44.5938 131.634 44.156C131.327 43.7267 130.79 43.1094 129.93 42.8152L128.636 46.5993ZM131.036 49.8139C131.841 50.1481 132.629 50.0701 133.129 49.9785C133.642 49.8845 134.16 49.712 134.504 49.5999C134.916 49.466 135.147 49.3957 135.321 49.3663C135.512 49.3337 135.31 49.4128 134.995 49.2534L136.801 45.6845C135.977 45.2682 135.148 45.3386 134.65 45.4233C134.134 45.5111 133.613 45.6839 133.267 45.7964C132.854 45.9307 132.607 46.0079 132.408 46.0444C132.195 46.0834 132.321 46.0166 132.57 46.1204L131.036 49.8139ZM134.99 49.251C134.713 49.1098 134.666 48.9315 134.747 49.0898C134.824 49.24 134.905 49.4649 135.034 49.8627C135.14 50.1927 135.299 50.7071 135.508 51.1626C135.708 51.598 136.089 52.2987 136.829 52.763L138.955 49.3753C139.215 49.5387 139.241 49.7072 139.145 49.4964C139.057 49.3057 138.978 49.06 138.84 48.6333C138.724 48.2745 138.554 47.7463 138.306 47.2643C138.063 46.7905 137.619 46.101 136.806 45.687L134.99 49.251ZM136.831 52.7645C137.561 53.221 138.343 53.2815 138.849 53.2799C139.368 53.2783 139.907 53.2023 140.264 53.155C140.691 53.0985 140.928 53.0728 141.096 53.0761C141.283 53.0797 141.056 53.1189 140.768 52.8909L143.251 49.7555C142.519 49.1756 141.682 49.0872 141.174 49.0773C140.647 49.0671 140.102 49.1421 139.739 49.1901C139.306 49.2474 139.045 49.2798 138.836 49.2804C138.612 49.2811 138.735 49.2376 138.952 49.3738L136.831 52.7645ZM140.768 52.891C140.516 52.6919 140.503 52.4964 140.545 52.6542C140.585 52.8064 140.615 53.036 140.651 53.4473C140.681 53.7864 140.72 54.3216 140.817 54.8065C140.91 55.2704 141.115 56.0314 141.709 56.653L144.6 53.8887C144.803 54.101 144.787 54.2576 144.74 54.0217C144.697 53.8069 144.676 53.547 144.636 53.0953C144.603 52.7158 144.552 52.1589 144.411 51.6285C144.272 51.1037 143.976 50.3296 143.251 49.7554L140.768 52.891ZM141.71 56.654C142.294 57.2631 143.022 57.5203 143.501 57.6504C143.994 57.7843 144.529 57.8575 144.878 57.9095C145.298 57.9719 145.524 58.0132 145.672 58.0607C145.834 58.1126 145.59 58.0776 145.378 57.7611L148.701 55.5347C148.172 54.7454 147.389 54.4109 146.893 54.2521C146.384 54.0888 145.835 54.0082 145.467 53.9535C145.028 53.8883 144.763 53.8489 144.549 53.7907C144.32 53.7286 144.433 53.7142 144.599 53.8878L141.71 56.654ZM145.381 57.7647C145.186 57.4752 145.237 57.2579 145.226 57.4053C145.216 57.5486 145.17 57.766 145.067 58.1625C144.982 58.4878 144.839 59.0029 144.764 59.4875C144.692 59.9535 144.623 60.72 144.937 61.4952L148.645 59.9929C148.742 60.2341 148.679 60.3452 148.718 60.0975C148.753 59.8684 148.824 59.6115 148.938 59.1698C149.035 58.7993 149.174 58.2547 149.216 57.7041C149.256 57.1577 149.227 56.3147 148.699 55.531L145.381 57.7647ZM144.936 61.4916C145.246 62.262 145.82 62.7676 146.197 63.059C146.588 63.3609 147.048 63.6357 147.336 63.8144C147.686 64.0318 147.867 64.1569 147.972 64.2515C148.081 64.3499 147.881 64.2177 147.824 63.8553L151.775 63.23C151.626 62.2871 151.059 61.6508 150.655 61.2853C150.247 60.9162 149.77 60.618 149.446 60.4167C149.059 60.1766 148.828 60.0374 148.643 59.894C148.444 59.7402 148.555 59.7695 148.646 59.9965L144.936 61.4916Z" fill="white" mask="url(#path-1-inside-1_2564_19395)"/>
<path d="M36.4615 75.5354C36.246 74.7318 36.2283 73.9706 36.4083 73.2516C36.5863 72.5249 36.9378 71.905 37.4629 71.3917C37.9936 70.8686 38.6531 70.5016 39.4414 70.2904C40.4075 70.0317 41.3028 70.0652 42.1274 70.3909C42.9519 70.7167 43.5982 71.2889 44.0662 72.1076L41.8867 72.6912C41.6333 72.3948 41.332 72.198 40.983 72.101C40.6417 72.002 40.2816 72.0032 39.9029 72.1046C39.2924 72.2681 38.8547 72.613 38.5899 73.1394C38.3252 73.6658 38.2881 74.2843 38.4786 74.9952C38.6692 75.706 39.0108 76.2231 39.5034 76.5467C39.996 76.8702 40.5476 76.9502 41.1582 76.7867C41.5369 76.6853 41.8492 76.5064 42.0953 76.25C42.3491 75.9916 42.5115 75.6707 42.5827 75.2873L44.7621 74.7036C44.7664 75.6465 44.493 76.465 43.9419 77.1591C43.3887 77.8455 42.629 78.3181 41.6629 78.5768C40.8746 78.788 40.1209 78.8035 39.4016 78.6235C38.6881 78.4336 38.0735 78.0724 37.5579 77.5397C37.0424 77.007 36.6769 76.3389 36.4615 75.5354ZM47.2594 71.24C47.396 70.8225 47.6113 70.4667 47.9052 70.1727C48.1971 69.8709 48.5555 69.6631 48.9806 69.5493L49.543 71.647L48.9981 71.7929C48.5035 71.9254 48.1615 72.1329 47.9722 72.4155C47.7808 72.6903 47.7566 73.0943 47.8995 73.6274L48.7042 76.629L46.7218 77.1599L44.9881 70.6931L46.9705 70.1622L47.2594 71.24ZM56.8835 70.8612C56.9332 71.0466 56.9734 71.2429 57.0041 71.45L52.5176 72.6515C52.6563 73.0449 52.8666 73.3198 53.1488 73.4762C53.4365 73.6227 53.7466 73.6514 54.0789 73.5624C54.5736 73.43 54.8615 73.1292 54.9429 72.6603L57.0528 72.0952C57.0585 72.5492 56.964 72.9844 56.7692 73.4009C56.5821 73.8154 56.3019 74.1761 55.9286 74.4831C55.5553 74.7901 55.1059 75.014 54.5804 75.1547C53.9466 75.3244 53.3462 75.3403 52.7791 75.2024C52.2119 75.0644 51.7219 74.7816 51.3091 74.3539C50.8962 73.9262 50.5997 73.3763 50.4195 72.7041C50.2393 72.0319 50.2171 71.4085 50.3529 70.8338C50.4965 70.2571 50.7794 69.7673 51.2015 69.3644C51.6237 68.9616 52.1555 68.6742 52.7969 68.5024C53.4229 68.3348 54.0146 68.3171 54.5719 68.4494C55.1293 68.5817 55.6084 68.855 56.0094 69.2693C56.4181 69.6815 56.7095 70.2122 56.8835 70.8612ZM54.7149 70.883C54.6238 70.543 54.4354 70.3036 54.1497 70.1649C53.8639 70.0261 53.5472 70.0032 53.1994 70.0964C52.8671 70.1854 52.6109 70.3575 52.4308 70.6128C52.2585 70.8659 52.1929 71.1775 52.2341 71.5474L54.7149 70.883ZM57.56 70.7794C57.3819 70.1149 57.3491 69.4985 57.4618 68.93C57.5822 68.3595 57.8226 67.8811 58.1829 67.4948C58.5432 67.1085 58.99 66.8439 59.5232 66.7011C59.9792 66.579 60.4021 66.5651 60.7919 66.6594C61.1894 66.7517 61.5212 66.9237 61.7875 67.1753L61.5421 66.2598L63.5244 65.7289L65.2581 72.1958L63.2758 72.7267L63.0303 71.8111C62.9179 72.1642 62.7126 72.48 62.4146 72.7586C62.1242 73.0351 61.751 73.2344 61.2951 73.3565C60.7695 73.4972 60.2541 73.4903 59.7488 73.3358C59.2414 73.1736 58.7929 72.8755 58.4032 72.4416C58.0192 71.9979 57.7381 71.4438 57.56 70.7794ZM62.4089 69.4932C62.2763 68.9987 62.0326 68.6458 61.6778 68.4345C61.3306 68.221 60.96 68.1671 60.5658 68.2727C60.1717 68.3782 59.8738 68.6112 59.6722 68.9716C59.4763 69.3222 59.4446 69.7447 59.5771 70.2392C59.7097 70.7336 59.9506 71.0915 60.2998 71.3126C60.6547 71.524 61.0292 71.5769 61.4233 71.4713C61.8175 71.3658 62.1115 71.1338 62.3054 70.7755C62.507 70.4151 62.5415 69.9877 62.4089 69.4932ZM69.8472 69.1657L70.2977 70.8461L69.2891 71.1162C68.5703 71.3087 67.9634 71.2849 67.4683 71.0449C66.9712 70.7971 66.6159 70.2753 66.4026 69.4795L65.7128 66.9067L64.9245 67.1178L64.4833 65.4721L65.2716 65.261L64.849 63.6848L66.8314 63.1539L67.254 64.7301L68.5524 64.3824L68.9936 66.0281L67.6952 66.3758L68.3911 68.9718C68.4429 69.165 68.5266 69.2916 68.6421 69.3518C68.7576 69.4119 68.9236 69.413 69.14 69.3551L69.8472 69.1657ZM76.6049 65.5796C76.6546 65.7651 76.6948 65.9613 76.7255 66.1684L72.2391 67.3699C72.3777 67.7634 72.5881 68.0383 72.8702 68.1946C73.158 68.3411 73.468 68.3699 73.8003 68.2809C74.295 68.1484 74.583 67.8477 74.6643 67.3787L76.7742 66.8137C76.78 67.2676 76.6854 67.7028 76.4906 68.1194C76.3035 68.5338 76.0233 68.8946 75.65 69.2016C75.2767 69.5086 74.8273 69.7324 74.3018 69.8732C73.668 70.0429 73.0676 70.0588 72.5005 69.9208C71.9334 69.7829 71.4434 69.5001 71.0305 69.0724C70.6176 68.6447 70.3211 68.0947 70.1409 67.4225C69.9607 66.7504 69.9385 66.1269 70.0744 65.5523C70.218 64.9756 70.5008 64.4858 70.923 64.0829C71.3451 63.68 71.8769 63.3927 72.5184 63.2209C73.1444 63.0532 73.736 63.0355 74.2934 63.1678C74.8507 63.3001 75.3299 63.5734 75.7308 63.9878C76.1396 64.4 76.4309 64.9306 76.6049 65.5796ZM74.4364 65.6014C74.3452 65.2615 74.1568 65.0221 73.8711 64.8833C73.5854 64.7445 73.2686 64.7217 72.9208 64.8148C72.5885 64.9038 72.3323 65.076 72.1522 65.3312C71.9799 65.5844 71.9143 65.8959 71.9555 66.2658L74.4364 65.6014ZM77.2814 65.4978C77.1033 64.8334 77.0706 64.2169 77.1832 63.6485C77.3036 63.078 77.544 62.5996 77.9043 62.2132C78.2646 61.8269 78.7114 61.5623 79.2447 61.4195C79.6697 61.3057 80.08 61.2911 80.4754 61.3756C80.8786 61.4581 81.221 61.6231 81.5027 61.8706L80.698 58.869L82.6804 58.3381L84.9796 66.9142L82.9972 67.4451L82.7486 66.518C82.646 66.8767 82.4456 67.1953 82.1476 67.4739C81.8572 67.7504 81.4841 67.9497 81.0281 68.0718C80.4948 68.2146 79.9755 68.2088 79.4702 68.0543C78.9629 67.892 78.5143 67.594 78.1247 67.1601C77.7406 66.7164 77.4596 66.1623 77.2814 65.4978ZM82.1303 64.2117C81.9978 63.7172 81.7541 63.3643 81.3992 63.1529C81.052 62.9395 80.6814 62.8856 80.2872 62.9911C79.8931 63.0967 79.5952 63.3296 79.3936 63.69C79.1977 64.0406 79.166 64.4631 79.2986 64.9576C79.4311 65.4521 79.672 65.8099 80.0212 66.0311C80.3761 66.2424 80.7506 66.2953 81.1448 66.1898C81.5389 66.0842 81.8329 65.8523 82.0268 65.494C82.2284 65.1336 82.2629 64.7062 82.1303 64.2117ZM88.6369 57.2149L89.9418 62.0824C90.0723 62.5692 90.2926 62.9118 90.6026 63.1104C90.9126 63.3089 91.2995 63.3461 91.7632 63.2219C92.2269 63.0977 92.5472 62.8711 92.7241 62.5422C92.901 62.2133 92.9242 61.8054 92.7937 61.3187L91.4887 56.4512L93.4711 55.9203L94.7729 60.7762C94.9677 61.5025 94.9778 62.1581 94.8032 62.7431C94.6287 63.3281 94.3129 63.8184 93.8557 64.2142C93.4062 64.6078 92.8608 64.8905 92.2193 65.0623C91.5778 65.2341 90.9689 65.2647 90.3926 65.154C89.8218 65.0336 89.3223 64.7616 88.894 64.3381C88.4636 63.9068 88.1511 63.328 87.9564 62.6017L86.6545 57.7458L88.6369 57.2149ZM99.7007 63.0712C99.1365 63.2222 98.6083 63.2602 98.116 63.185C97.6237 63.1098 97.2054 62.9403 96.8613 62.6764C96.5152 62.4047 96.2707 62.0644 96.1279 61.6555L98.0871 61.1308C98.1704 61.3486 98.3234 61.5023 98.5461 61.5917C98.7689 61.6811 99.0155 61.6895 99.286 61.6171C99.5334 61.5509 99.7103 61.4538 99.8168 61.3259C99.929 61.1882 99.9644 61.0421 99.9229 60.8876C99.8732 60.7021 99.7404 60.5928 99.5244 60.5596C99.3063 60.5186 98.9664 60.502 98.5046 60.5097C98.0119 60.5257 97.5954 60.5172 97.2552 60.4841C96.9129 60.4433 96.5955 60.3254 96.303 60.1304C96.0085 59.9278 95.8022 59.6062 95.6841 59.1658C95.5847 58.795 95.5951 58.432 95.7152 58.0768C95.841 57.7119 96.0772 57.3878 96.4237 57.1045C96.778 56.8192 97.2294 56.6031 97.7782 56.4561C98.5897 56.2388 99.2811 56.2689 99.8526 56.5465C100.432 56.822 100.845 57.2827 101.093 57.9285L99.2612 58.419C99.1702 58.2032 99.0221 58.0525 98.8168 57.9666C98.6193 57.8788 98.3853 57.871 98.1148 57.9435C97.8829 58.0056 97.7176 58.0995 97.6188 58.2254C97.5179 58.3435 97.4882 58.4798 97.5296 58.6343C97.5794 58.8197 97.7132 58.9329 97.9313 58.9739C98.1571 59.0128 98.4911 59.0227 98.9333 59.0037C99.4456 58.999 99.8691 59.0181 100.204 59.061C100.536 59.0962 100.851 59.2189 101.147 59.4293C101.45 59.6299 101.665 59.9533 101.793 60.3993C101.894 60.7779 101.877 61.1468 101.741 61.5061C101.611 61.8556 101.368 62.1691 101.012 62.4467C100.663 62.7223 100.226 62.9304 99.7007 63.0712ZM102.592 54.5459C102.244 54.6391 101.931 54.6152 101.653 54.4744C101.381 54.3237 101.204 54.0977 101.123 53.7964C101.041 53.4873 101.08 53.2034 101.243 52.9446C101.411 52.6759 101.669 52.495 102.017 52.4019C102.357 52.3108 102.663 52.3406 102.936 52.4913C103.213 52.6321 103.394 52.8571 103.477 53.1661C103.558 53.4675 103.514 53.7524 103.346 54.0211C103.183 54.2799 102.932 54.4549 102.592 54.5459ZM103.757 54.9542L105.491 61.4211L103.509 61.952L101.775 55.4851L103.757 54.9542ZM109.117 53.4444C109.874 53.2415 110.543 53.3273 111.124 53.7018C111.711 54.0664 112.119 54.6775 112.349 55.5351L113.362 59.3133L111.391 59.8411L110.449 56.3295C110.333 55.8968 110.131 55.5907 109.843 55.4112C109.555 55.2318 109.221 55.1927 108.842 55.2941C108.464 55.3956 108.194 55.596 108.034 55.8956C107.875 56.1951 107.853 56.5612 107.969 56.9939L108.91 60.5055L106.928 61.0364L105.194 54.5695L107.176 54.0386L107.406 54.8962C107.531 54.5565 107.741 54.26 108.038 54.0067C108.332 53.7456 108.692 53.5582 109.117 53.4444ZM115.438 51.7266C115.894 51.6045 116.317 51.5906 116.707 51.685C117.104 51.7772 117.436 51.9492 117.703 52.2009L117.457 51.2853L119.44 50.7544L121.17 57.2097C121.33 57.8046 121.354 58.3737 121.243 58.9169C121.141 59.4657 120.885 59.9483 120.475 60.3645C120.073 60.7787 119.512 61.0821 118.793 61.2745C117.835 61.5312 116.997 61.5113 116.28 61.2148C115.565 60.9261 115.061 60.4068 114.769 59.6569L116.728 59.1322C116.856 59.3629 117.055 59.5167 117.324 59.5937C117.595 59.6784 117.901 59.6752 118.241 59.5842C118.65 59.4745 118.943 59.2678 119.118 58.9641C119.303 58.6661 119.327 58.2582 119.188 57.7406L118.942 56.825C118.83 57.1781 118.63 57.4967 118.341 57.781C118.051 58.0575 117.678 58.2568 117.222 58.3789C116.688 58.5217 116.169 58.5158 115.664 58.3613C115.157 58.1991 114.708 57.901 114.318 57.4671C113.934 57.0234 113.653 56.4693 113.475 55.8049C113.297 55.1404 113.264 54.524 113.377 53.9555C113.497 53.385 113.738 52.9066 114.098 52.5203C114.458 52.134 114.905 51.8694 115.438 51.7266ZM118.324 54.5187C118.191 54.0243 117.948 53.6713 117.593 53.46C117.246 53.2465 116.875 53.1926 116.481 53.2982C116.087 53.4037 115.789 53.6367 115.587 53.9971C115.391 54.3477 115.36 54.7702 115.492 55.2647C115.625 55.7592 115.866 56.117 116.215 56.3381C116.57 56.5495 116.944 56.6024 117.338 56.4968C117.733 56.3913 118.027 56.1593 118.22 55.801C118.422 55.4406 118.457 55.0132 118.324 54.5187Z" fill="white"/>
<path d="M64.867 89.7649L64.1238 86.9787L69.1298 85.6448L70.847 92.083C71.482 94.4635 70.681 95.9517 68.4441 96.5478L65.0346 97.4562C62.7978 98.0522 61.3618 97.16 60.7269 94.7795L57.8191 83.8779C57.1842 81.4974 57.9851 80.0092 60.222 79.4131L63.6315 78.5047C65.8684 77.9087 67.3043 78.8009 67.9392 81.1814L68.3794 82.8315L64.7805 83.7904L64.2177 81.6805C64.1792 81.5362 64.0914 81.4244 63.9543 81.345C63.8353 81.2608 63.7036 81.238 63.5593 81.2764L61.8545 81.7307C61.7102 81.7691 61.5984 81.8569 61.519 81.9939C61.4577 82.1261 61.4462 82.2644 61.4847 82.4087L64.6306 94.2029C64.6691 94.3472 64.7479 94.4614 64.8669 94.5456C65.004 94.625 65.1447 94.6454 65.289 94.607L66.9938 94.1527C67.1381 94.1143 67.2409 94.0289 67.3022 93.8967C67.3816 93.7597 67.4021 93.619 67.3636 93.4747L66.2741 89.39L64.867 89.7649ZM76.7668 90.6795L80.961 89.562L81.7979 92.6999L73.8155 94.8268L69.1472 77.3248L77.1296 75.1979L77.9522 78.2817L73.758 79.3992L74.8547 83.511L78.7783 82.4656L79.572 85.4412L75.6484 86.4866L76.7668 90.6795ZM94.028 89.4412L90.2398 90.4506L86.3651 75.9242C86.3266 75.7799 86.2388 75.6681 86.1017 75.5887C85.9827 75.5046 85.851 75.4817 85.7067 75.5202L84.2455 75.9095C84.1012 75.9479 83.9893 76.0357 83.91 76.1727C83.8486 76.305 83.8372 76.4432 83.8757 76.5875L87.7503 91.1139L83.962 92.1233L80.174 77.9215C79.539 75.541 80.34 74.0528 82.5769 73.4567L85.9322 72.5627C88.1691 71.9667 89.605 72.8589 90.24 75.2394L94.028 89.4412ZM103.46 76.9031L104.232 79.7976L95.0053 82.2562L94.2332 79.3617L103.46 76.9031ZM110.989 65.8863C113.226 65.2903 114.662 66.1825 115.297 68.563L119.085 82.7648L115.297 83.7742L113.731 77.9041L110.998 78.6323L112.564 84.5024L108.776 85.5118L104.988 71.3099C104.353 68.9295 105.154 67.4412 107.391 66.8452L110.989 65.8863ZM110.219 75.7108L112.952 74.9826L111.386 69.1125C111.348 68.9682 111.26 68.8564 111.123 68.777C111.004 68.6929 110.872 68.67 110.728 68.7085L109.023 69.1627C108.879 69.2011 108.767 69.2889 108.688 69.4259C108.626 69.5582 108.615 69.6964 108.653 69.8407L110.219 75.7108ZM121.029 63.501L125.697 81.0031L121.909 82.0124L117.241 64.5104L121.029 63.501Z" fill="white"/>
</svg>
