<svg width="24" height="25" viewBox="0 0 24 25" fill="none" xmlns="http://www.w3.org/2000/svg">
<g clip-path="url(#clip0_2564_19279)">
<path fill-rule="evenodd" clip-rule="evenodd" d="M12 0.125C5.38125 0.125 0 5.50625 0 12.125C0 18.7437 5.38125 24.125 12 24.125C18.6187 24.125 24 18.7437 24 12.125C24 5.50625 18.6187 0.125 12 0.125Z" fill="#4BAE4F"/>
<path d="M9.68906 17.6156C8.15625 16.0828 6.63281 14.5359 5.09531 13.0031C4.92656 12.8344 4.92656 12.5531 5.09531 12.3844L6.8625 10.6172C7.03125 10.4484 7.3125 10.4484 7.48125 10.6172L10.0078 13.1438L16.5047 6.64219C16.6781 6.47344 16.9547 6.47344 17.1281 6.64219L18.9 8.41406C19.0734 8.5875 19.0734 8.86406 18.9 9.03281L10.3078 17.6156C10.1391 17.7891 9.8625 17.7891 9.68906 17.6156Z" fill="white"/>
</g>
<defs>
<clipPath id="clip0_2564_19279">
<rect width="24" height="24" fill="white" transform="translate(0 0.125)"/>
</clipPath>
</defs>
</svg>
