<svg width="103" height="105" viewBox="0 0 103 105" fill="none" xmlns="http://www.w3.org/2000/svg">
<path d="M29.5877 14.3665C39.5253 -2.15362 63.4747 -2.15362 73.4123 14.3665L75.8541 18.4256C78.0622 22.0962 81.0951 25.2019 84.7124 27.4963L90.0882 30.906C105.921 40.9486 105.921 64.0514 90.0881 74.094L84.7124 77.5037C81.0951 79.7981 78.0622 82.9037 75.8541 86.5744L73.4123 90.6335C63.4747 107.154 39.5253 107.154 29.5877 90.6335L27.1459 86.5744C24.9378 82.9037 21.9049 79.7981 18.2876 77.5037L12.9118 74.094C-2.92122 64.0514 -2.92121 40.9486 12.9118 30.906L18.2876 27.4963C21.9049 25.2019 24.9378 22.0962 27.1459 18.4256L29.5877 14.3665Z" fill="#FDDC40" stroke="#4F4A4A" stroke-width="2"/>
</svg>
