<svg width="123" height="123" viewBox="0 0 123 123" fill="none" xmlns="http://www.w3.org/2000/svg">
<path d="M46.9271 14.2774C47.1855 13.7394 47.8544 13.546 48.3599 13.8631L55.2737 18.1991C55.6762 18.4515 56.2007 18.3859 56.5286 18.0422L62.1616 12.137C62.5735 11.7052 63.2694 11.728 63.6523 12.1857L68.8877 18.446C69.1925 18.8105 69.7116 18.9102 70.1297 18.6846L77.3118 14.8091C77.837 14.5257 78.4918 14.7624 78.7145 15.3161L81.7592 22.8878C81.9364 23.3286 82.3993 23.5838 82.8666 23.4985L90.8948 22.0321C91.4818 21.9249 92.0315 22.3524 92.0721 22.9477L92.628 31.0897C92.6604 31.5637 93.0217 31.9495 93.4926 32.0127L101.581 33.099C102.172 33.1784 102.563 33.7548 102.418 34.3336L100.43 42.2489C100.315 42.7096 100.539 43.1882 100.967 43.3938L108.324 46.9264C108.862 47.1847 109.056 47.8536 108.739 48.3591L104.403 55.2729C104.15 55.6754 104.216 56.1999 104.559 56.5278L110.465 62.1608C110.896 62.5727 110.874 63.2686 110.416 63.6515L104.156 68.8869C103.791 69.1917 103.691 69.7108 103.917 70.1289L107.793 77.311C108.076 77.8362 107.839 78.491 107.286 78.7137L99.7138 81.7584C99.273 81.9356 99.0178 82.3985 99.1032 82.8658L100.57 90.894C100.677 91.481 100.249 92.0307 99.6539 92.0714L91.5119 92.6272C91.0379 92.6596 90.6522 93.0209 90.5889 93.4918L89.5027 101.58C89.4233 102.172 88.8468 102.562 88.2681 102.417L80.3528 100.43C79.892 100.314 79.4134 100.538 79.2078 100.967L75.6753 108.323C75.417 108.861 74.7481 109.055 74.2425 108.738L67.3287 104.402C66.9263 104.149 66.4018 104.215 66.0738 104.559L60.4409 110.464C60.029 110.896 59.333 110.873 58.9502 110.415L53.7147 104.155C53.4099 103.79 52.8908 103.691 52.4727 103.916L45.2906 107.792C44.7655 108.075 44.1106 107.838 43.888 107.285L40.8433 99.713C40.666 99.2722 40.2031 99.017 39.7358 99.1024L31.7076 100.569C31.1206 100.676 30.5709 100.248 30.5303 99.6531L29.9744 91.5111C29.9421 91.0371 29.5807 90.6514 29.1098 90.5881L21.0215 89.5019C20.43 89.4225 20.0394 88.8461 20.1847 88.2673L22.172 80.352C22.2877 79.8912 22.0633 79.4126 21.635 79.207L14.2782 75.6745C13.7402 75.4162 13.5468 74.7473 13.8639 74.2417L18.1999 67.328C18.4523 66.9255 18.3867 66.401 18.043 66.0731L12.1378 60.4401C11.706 60.0282 11.7288 59.3322 12.1865 58.9494L18.4468 53.7139C18.8113 53.4091 18.911 52.89 18.6854 52.4719L14.8099 45.2898C14.5265 44.7647 14.7632 44.1098 15.3169 43.8872L22.8886 40.8425C23.3294 40.6652 23.5846 40.2023 23.4993 39.735L22.0329 31.7069C21.9257 31.1198 22.3532 30.5701 22.9485 30.5295L31.0905 29.9736C31.5645 29.9413 31.9503 29.5799 32.0135 29.109L33.0997 21.0207C33.1792 20.4293 33.7556 20.0386 34.3344 20.1839L42.2497 22.1713C42.7104 22.2869 43.189 22.0625 43.3946 21.6342L46.9271 14.2774Z" fill="#326BDE"/>
<path d="M44.1383 50.6296L37.1545 52.6491L37.9017 55.2331C38.1068 54.8375 38.4385 54.4725 38.8968 54.1382C39.3551 53.8038 39.8947 53.5469 40.5154 53.3674C41.6328 53.0443 42.6381 53.0311 43.5311 53.3278C44.4396 53.62 45.1936 54.1336 45.7929 54.8684C46.3922 55.6032 46.8354 56.4673 47.1226 57.4605C47.6522 59.2918 47.5497 60.8855 46.815 62.2415C46.0759 63.582 44.7829 64.5192 42.9361 65.0533C41.648 65.4258 40.4678 65.5316 39.3954 65.3708C38.3341 65.19 37.4407 64.7757 36.7152 64.1278C35.9897 63.4799 35.4711 62.6461 35.1594 61.6263L39.6057 60.3405C39.7555 60.684 40.0004 60.9495 40.3405 61.1371C40.6807 61.3246 41.1068 61.3443 41.6189 61.1962C42.1621 61.0392 42.5195 60.734 42.6912 60.2808C42.8628 59.8275 42.8589 59.2905 42.6794 58.6697C42.5044 58.0645 42.2245 57.6493 41.8399 57.4241C41.4508 57.1835 40.9769 57.144 40.4182 57.3055C39.9991 57.4267 39.6891 57.6341 39.4881 57.9276C39.2982 58.2012 39.2248 58.4999 39.268 58.8237L34.8216 60.1095L31.8462 49.8201L42.9737 46.6023L44.1383 50.6296ZM48.2332 54.0366C47.4613 51.3673 47.3963 49.1073 48.0384 47.2567C48.6805 45.4061 50.1655 44.1443 52.4934 43.4711C54.8213 42.7979 56.7506 43.0725 58.2813 44.2948C59.8275 45.5126 60.9865 47.4561 61.7584 50.1255C62.5393 52.8259 62.6087 55.1014 61.9666 56.9519C61.3245 58.8025 59.8318 60.0666 57.4883 60.7443C55.1449 61.4219 53.2079 61.1496 51.6772 59.9273C50.1621 58.7006 49.014 56.737 48.2332 54.0366ZM57.2422 51.4314C56.8383 50.0347 56.3835 49.0142 55.8777 48.3701C55.3674 47.7104 54.6544 47.513 53.7388 47.7777C52.8231 48.0425 52.3256 48.59 52.2461 49.4202C52.1622 50.2349 52.3222 51.3406 52.7261 52.7374C53.1389 54.1652 53.5928 55.2112 54.0875 55.8753C54.5933 56.5195 55.3118 56.7069 56.243 56.4376C57.1741 56.1684 57.6739 55.6286 57.7424 54.8184C57.8218 53.9882 57.6551 52.8592 57.2422 51.4314ZM62.1061 45.8122C61.7246 44.4931 61.8054 43.3766 62.3483 42.4628C62.8913 41.549 63.7681 40.9171 64.9786 40.567C66.1736 40.2215 67.2445 40.2902 68.1914 40.7731C69.1383 41.2561 69.8025 42.1572 70.184 43.4763C70.5609 44.78 70.4802 45.8964 69.9417 46.8257C69.3987 47.7395 68.5297 48.3692 67.3347 48.7148C66.1397 49.0603 65.061 48.9939 64.0986 48.5154C63.1472 48.0169 62.483 47.1159 62.1061 45.8122ZM77.5303 37.2149L73.4668 56.2246L69.0903 57.4902L73.1538 38.4805L77.5303 37.2149ZM65.7295 43.2509C65.0932 43.4349 64.9097 43.9925 65.1789 44.9236C65.4482 45.8548 65.901 46.2284 66.5373 46.0444C66.8477 45.9546 67.0546 45.7687 67.158 45.4865C67.2769 45.1999 67.269 44.8238 67.1344 44.3582C66.9997 43.8926 66.8057 43.5703 66.5521 43.3914C66.3141 43.208 66.0399 43.1611 65.7295 43.2509ZM76.43 51.2055C76.053 49.9019 76.136 48.7932 76.679 47.8794C77.233 46.9456 78.1075 46.3059 79.3025 45.9603C80.4975 45.6148 81.5629 45.6935 82.4988 46.1965C83.4457 46.6794 84.1076 47.5727 84.4846 48.8763C84.866 50.1955 84.7875 51.3197 84.249 52.2491C83.7216 53.1584 82.8603 53.7858 81.6653 54.1313C80.4703 54.4769 79.3916 54.4105 78.4292 53.932C77.4778 53.4335 76.8114 52.5247 76.43 51.2055ZM80.0534 48.6442C79.4015 48.8327 79.2103 49.3925 79.4795 50.3237C79.7533 51.2704 80.2161 51.6495 80.8679 51.461C81.1628 51.3757 81.3619 51.192 81.4653 50.9098C81.5797 50.6077 81.5696 50.2238 81.435 49.7582C81.3048 49.3081 81.113 48.9936 80.8594 48.8147C80.6169 48.6158 80.3482 48.5589 80.0534 48.6442ZM53.2468 84.1087C51.7104 84.553 50.1949 84.6044 48.7003 84.263C47.2013 83.9061 45.8875 83.2013 44.7591 82.1486C43.6417 81.0759 42.8496 79.7325 42.3828 78.1185C41.9161 76.5045 41.8712 74.9534 42.2481 73.4654C42.6361 71.9574 43.3709 70.6602 44.4526 69.5738C45.5343 68.4874 46.8433 67.7221 48.3798 67.2778C49.9317 66.829 51.4472 66.7776 52.9263 67.1235C54.4208 67.4649 55.7268 68.1719 56.8442 69.2446C57.9572 70.3018 58.747 71.6374 59.2137 73.2515C59.6805 74.8655 59.7276 76.4243 59.3552 77.9278C58.9782 79.4158 58.2512 80.7108 57.174 81.8127C56.0923 82.8991 54.7832 83.6644 53.2468 84.1087ZM52.0216 79.8719C53.1856 79.5353 53.9913 78.8903 54.4387 77.9368C54.9017 76.9789 54.9492 75.8637 54.5812 74.5911C54.2042 73.2874 53.5666 72.3619 52.6683 71.8144C51.7811 71.2469 50.7554 71.1315 49.5915 71.4681C48.412 71.8091 47.5985 72.4564 47.1511 73.4098C46.6992 74.3477 46.6617 75.4685 47.0387 76.7721C47.4112 78.0603 48.041 78.9881 48.9283 79.5555C49.811 80.1075 50.8422 80.2129 52.0216 79.8719ZM70.0362 61.2928L71.0864 64.9244L64.5216 66.8227L65.3564 69.7094L70.1984 68.3092L71.2015 71.7778L66.3594 73.178L68.2173 79.603L63.6546 80.9225L58.9087 64.5106L70.0362 61.2928ZM83.0853 57.5194L84.1355 61.151L77.5707 63.0493L78.4055 65.9359L83.2475 64.5357L84.2506 68.0043L79.4085 69.4045L81.2664 75.8296L76.7037 77.149L71.9578 60.7372L83.0853 57.5194Z" fill="white"/>
</svg>
