<svg width="231" height="231" viewBox="0 0 231 231" fill="none" xmlns="http://www.w3.org/2000/svg">
<g filter="url(#filter0_d_2564_19186)">
<path d="M173.06 120.885C174.067 121.567 174.85 122.531 175.312 123.656C175.774 124.781 175.894 126.017 175.657 127.21C175.421 128.403 174.838 129.499 173.981 130.362C173.125 131.226 172.033 131.818 170.842 132.064C171.694 132.93 172.273 134.028 172.505 135.222C172.737 136.415 172.613 137.65 172.147 138.773C171.681 139.896 170.895 140.856 169.886 141.535C168.878 142.214 167.692 142.58 166.476 142.589C167.142 143.605 167.493 144.794 167.487 146.009C167.481 147.223 167.117 148.409 166.441 149.418C165.766 150.428 164.808 151.216 163.687 151.684C162.567 152.153 161.333 152.281 160.14 152.053C160.597 153.179 160.711 154.415 160.47 155.605C160.229 156.796 159.642 157.889 158.784 158.749C157.925 159.609 156.832 160.196 155.642 160.439C154.451 160.681 153.216 160.568 152.089 160.113C152.317 161.306 152.189 162.539 151.721 163.66C151.252 164.78 150.464 165.738 149.455 166.414C148.445 167.089 147.26 167.453 146.045 167.459C144.831 167.466 143.641 167.114 142.625 166.449C142.616 167.664 142.25 168.85 141.571 169.859C140.893 170.868 139.932 171.654 138.809 172.119C137.686 172.585 136.451 172.71 135.258 172.478C134.065 172.246 132.966 171.667 132.1 170.814C131.872 172.022 131.29 173.134 130.427 174.01C129.565 174.885 128.461 175.483 127.257 175.729C126.053 175.975 124.803 175.856 123.667 175.388C122.531 174.921 121.559 174.125 120.877 173.103C120.403 174.222 119.61 175.176 118.597 175.847C117.584 176.517 116.396 176.875 115.181 176.875C113.966 176.875 112.779 176.517 111.766 175.847C110.753 175.176 109.96 174.222 109.486 173.103C108.803 174.107 107.841 174.888 106.718 175.348C105.594 175.809 104.361 175.929 103.17 175.694C101.979 175.458 100.884 174.877 100.021 174.024C99.1576 173.17 98.5646 172.082 98.3157 170.894C97.4497 171.75 96.3506 172.331 95.1559 172.564C93.9612 172.798 92.7241 172.674 91.5994 172.208C90.4748 171.742 89.5127 170.955 88.8336 169.944C88.1546 168.934 87.7887 167.746 87.7819 166.528C86.7657 167.197 85.5751 167.55 84.359 167.546C83.1428 167.541 81.9551 167.178 80.9442 166.501C79.9333 165.825 79.1442 164.866 78.6754 163.744C78.2066 162.622 78.079 161.386 78.3085 160.192C77.1803 160.654 75.9408 160.772 74.7457 160.532C73.5505 160.291 72.453 159.703 71.591 158.841C70.729 157.979 70.1409 156.882 69.9006 155.687C69.6603 154.492 69.7784 153.252 70.2402 152.124C69.0453 152.356 67.8085 152.23 66.6848 151.762C65.5611 151.294 64.6003 150.505 63.923 149.493C63.2456 148.482 62.8817 147.293 62.8767 146.076C62.8718 144.859 63.2261 143.667 63.8952 142.651C62.6796 142.642 61.4935 142.276 60.485 141.597C59.4765 140.918 58.6903 139.958 58.2245 138.835C57.7588 137.712 57.6342 136.477 57.8663 135.283C58.0985 134.09 58.677 132.992 59.5297 132.126C58.3228 131.896 57.2114 131.313 56.3372 130.45C55.463 129.587 54.8655 128.483 54.621 127.28C54.3764 126.076 54.4958 124.826 54.964 123.691C55.4321 122.555 56.2278 121.584 57.2497 120.902C56.1205 120.434 55.1555 119.641 54.4767 118.624C53.7979 117.607 53.4355 116.412 53.4355 115.189C53.4355 113.967 53.7979 112.771 54.4767 111.755C55.1555 110.738 56.1205 109.945 57.2497 109.476C56.2429 108.794 55.4596 107.83 54.9976 106.705C54.5356 105.58 54.4154 104.344 54.6521 103.151C54.8888 101.958 55.4719 100.862 56.3284 99.9983C57.1849 99.1349 58.2768 98.5432 59.4678 98.2971C58.6151 97.4307 58.0366 96.3323 57.8045 95.1391C57.5724 93.9459 57.6969 92.7107 58.1627 91.5879C58.6284 90.4651 59.4146 89.5043 60.4231 88.8257C61.4317 88.1471 62.6178 87.7806 63.8333 87.7721C63.168 86.756 62.8166 85.5665 62.8228 84.3519C62.829 83.1374 63.1927 81.9516 63.8683 80.9423C64.544 79.9331 65.5018 79.145 66.6223 78.6765C67.7429 78.208 68.9765 78.0796 70.1695 78.3076C69.713 77.1816 69.5982 75.9462 69.8394 74.7554C70.0806 73.5647 70.6671 72.4713 71.5258 71.6117C72.3844 70.7521 73.4771 70.1644 74.6676 69.9219C75.8581 69.6794 77.0937 69.7929 78.2201 70.2481C77.989 69.0525 78.1159 67.8152 78.5849 66.6914C79.054 65.5676 79.8443 64.6072 80.8568 63.9307C81.8693 63.2541 83.059 62.8914 84.2767 62.8881C85.4945 62.8847 86.6861 63.2409 87.7023 63.9119C87.7109 62.6964 88.0773 61.5103 88.7559 60.5017C89.4345 59.4932 90.3953 58.707 91.5182 58.2413C92.641 57.7756 93.8761 57.651 95.0693 57.8831C96.2626 58.1152 97.3609 58.6937 98.2273 59.5464C98.4699 58.3493 99.0615 57.2507 99.9275 56.3893C100.793 55.5279 101.895 54.9421 103.093 54.7058C104.292 54.4696 105.533 54.5934 106.662 55.0616C107.79 55.5299 108.754 56.3216 109.433 57.3371C109.906 56.2159 110.698 55.2591 111.712 54.5863C112.726 53.9135 113.916 53.5547 115.133 53.5547C116.349 53.5547 117.539 53.9135 118.553 54.5863C119.567 55.2591 120.36 56.2159 120.833 57.3371C121.515 56.3304 122.479 55.547 123.604 55.085C124.729 54.623 125.965 54.5029 127.158 54.7396C128.35 54.9762 129.447 55.5593 130.31 56.4158C131.174 57.2723 131.765 58.3643 132.012 59.5552C132.877 58.703 133.975 58.1247 135.167 57.8923C136.36 57.6599 137.594 57.7837 138.717 58.2483C139.839 58.713 140.8 59.4979 141.479 60.505C142.159 61.5122 142.526 62.6971 142.537 63.9119C143.553 63.2466 144.742 62.8952 145.957 62.9014C147.171 62.9076 148.357 63.2712 149.366 63.9469C150.376 64.6226 151.164 65.5804 151.632 66.7009C152.101 67.8215 152.229 69.0551 152.001 70.2481C153.127 69.7929 154.363 69.6794 155.554 69.9219C156.744 70.1644 157.837 70.7521 158.695 71.6117C159.554 72.4713 160.141 73.5647 160.382 74.7554C160.623 75.9462 160.508 77.1816 160.052 78.3076C161.246 78.078 162.481 78.2057 163.604 78.6744C164.726 79.1432 165.685 79.9324 166.361 80.9433C167.037 81.9541 167.4 83.1419 167.405 84.358C167.41 85.5742 167.056 86.7648 166.388 87.7809C167.603 87.7894 168.79 88.1559 169.798 88.8345C170.807 89.5132 171.593 90.4739 172.059 91.5967C172.524 92.7196 172.649 93.9547 172.417 95.1479C172.185 96.3412 171.606 97.4396 170.753 98.3059C171.945 98.5473 173.04 99.1347 173.9 99.9947C174.76 100.855 175.347 101.949 175.588 103.141C175.83 104.333 175.714 105.569 175.257 106.696C174.799 107.823 174.02 108.79 173.016 109.476C174.141 109.943 175.104 110.732 175.783 111.745C176.461 112.757 176.826 113.947 176.831 115.166C176.836 116.384 176.48 117.577 175.809 118.595C175.138 119.612 174.182 120.409 173.06 120.885Z" fill="#F26722"/>
</g>
<path d="M78.3347 118.772L79.7932 121.296L75.2282 123.93L76.3875 125.937L79.7546 123.994L81.1477 126.405L77.7806 128.348L80.361 132.814L77.1882 134.645L70.5969 123.236L78.3347 118.772ZM82.5166 115.604L89.4351 127.579L86.2623 129.409L79.3438 117.434L82.5166 115.604ZM87.1134 115.692C86.5522 116.016 86.0117 116.126 85.4919 116.023C84.9766 115.903 84.5849 115.612 84.3169 115.148C84.0426 114.673 83.9824 114.183 84.1362 113.677C84.3008 113.165 84.6637 112.747 85.2249 112.423C85.7753 112.105 86.3081 112.007 86.8234 112.126C87.3495 112.24 87.7497 112.534 88.0239 113.009C88.2919 113.473 88.3437 113.961 88.1791 114.473C88.019 114.968 87.6638 115.374 87.1134 115.692ZM89.1698 115.627L94.4148 124.706L91.242 126.536L85.997 117.458L89.1698 115.627ZM101.887 120.394L98.9342 119.056L98.9574 122.085L95.477 124.093L95.7835 117.637L90.1025 115.089L93.6639 113.035L96.6171 114.373L96.6101 111.335L100.091 109.327L99.6725 115.739L105.449 118.34L101.887 120.394ZM110.321 115.68C109.501 116.153 108.689 116.441 107.886 116.545C107.087 116.632 106.361 116.547 105.71 116.29C105.062 116.017 104.542 115.59 104.15 115.011L107.226 113.236C107.437 113.503 107.703 113.652 108.023 113.683C108.343 113.714 108.671 113.633 109.005 113.44C109.264 113.29 109.438 113.118 109.527 112.923C109.616 112.728 109.61 112.544 109.51 112.371C109.379 112.145 109.159 112.049 108.848 112.085C108.538 112.12 108.059 112.238 107.412 112.438C106.69 112.683 106.066 112.848 105.541 112.935C105.016 113.023 104.485 112.976 103.95 112.796C103.425 112.61 102.982 112.204 102.62 111.578C102.309 111.039 102.174 110.469 102.216 109.87C102.252 109.259 102.475 108.663 102.887 108.08C103.309 107.491 103.92 106.966 104.718 106.506C105.906 105.821 107.007 105.573 108.024 105.764C109.04 105.954 109.877 106.493 110.533 107.38L107.668 109.033C107.446 108.773 107.188 108.626 106.896 108.594C106.608 108.544 106.297 108.615 105.963 108.808C105.704 108.958 105.532 109.122 105.448 109.3C105.374 109.472 105.388 109.644 105.487 109.816C105.612 110.032 105.833 110.128 106.149 110.103C106.46 110.068 106.925 109.951 107.544 109.752C108.283 109.512 108.918 109.354 109.45 109.278C109.992 109.195 110.537 109.255 111.085 109.456C111.638 109.641 112.104 110.062 112.485 110.72C112.79 111.249 112.908 111.814 112.838 112.415C112.779 113.01 112.535 113.597 112.106 114.175C111.682 114.736 111.087 115.238 110.321 115.68ZM119.384 106.696L120.945 109.399L119.569 110.193C117.249 111.531 115.425 111.052 114.098 108.754L112.368 105.76L111.251 106.405L109.727 103.767L110.844 103.123L109.572 100.922L112.761 99.0818L114.033 101.283L115.684 100.33L117.208 102.968L115.557 103.92L117.315 106.963C117.458 107.211 117.615 107.358 117.785 107.403C117.966 107.443 118.192 107.384 118.461 107.229L119.384 106.696ZM126.691 106.235C125.785 106.758 124.861 107.039 123.92 107.079C122.989 107.112 122.116 106.897 121.301 106.432C120.486 105.967 119.804 105.26 119.255 104.311C118.713 103.372 118.445 102.434 118.449 101.496C118.465 100.552 118.72 99.6859 119.214 98.8974C119.719 98.1026 120.425 97.4438 121.331 96.9207C122.238 96.3977 123.156 96.1195 124.087 96.0862C125.028 96.0466 125.906 96.2591 126.722 96.7237C127.548 97.1821 128.232 97.8806 128.774 98.8192C129.316 99.7578 129.583 100.705 129.573 101.659C129.568 102.597 129.313 103.463 128.808 104.258C128.303 105.053 127.598 105.712 126.691 106.235ZM125.102 103.484C125.544 103.229 125.818 102.855 125.922 102.363C126.031 101.855 125.908 101.293 125.553 100.678C125.197 100.063 124.775 99.6808 124.286 99.5314C123.808 99.3759 123.353 99.4227 122.921 99.6717C122.489 99.9208 122.221 100.291 122.117 100.783C122.012 101.275 122.138 101.828 122.493 102.443C122.855 103.069 123.269 103.462 123.737 103.624C124.204 103.786 124.659 103.739 125.102 103.484ZM129.547 98.3733C129.005 97.4347 128.725 96.5028 128.708 95.5774C128.692 94.652 128.92 93.8013 129.392 93.0252C129.876 92.2429 130.565 91.5933 131.461 91.0765C132.616 90.4103 133.771 90.1682 134.926 90.3502C136.076 90.5213 137.091 91.1079 137.972 92.11L134.605 94.0526C134.068 93.5713 133.519 93.4926 132.958 93.8163C132.558 94.0467 132.336 94.3976 132.292 94.869C132.253 95.3234 132.417 95.8689 132.784 96.5054C133.152 97.1419 133.546 97.562 133.966 97.7657C134.396 97.9631 134.811 97.9467 135.211 97.7163C135.783 97.3863 135.989 96.8717 135.83 96.1725L139.197 94.2298C139.618 95.4826 139.619 96.6545 139.199 97.7455C138.779 98.8365 137.992 99.7151 136.837 100.381C135.941 100.898 135.033 101.17 134.114 101.197C133.205 101.218 132.354 100.99 131.56 100.513C130.766 100.036 130.095 99.3227 129.547 98.3733ZM148.207 93.6704L143.547 91.3961L145.698 95.118L142.525 96.9486L135.606 84.9737L138.779 83.1431L142.51 89.5998L142.962 84.5921L146.766 82.3973L145.825 89.0247L152.076 91.4382L148.207 93.6704ZM100.069 142.376C99.0004 142.992 97.875 143.311 96.6926 143.331C95.5039 143.341 94.3896 143.056 93.3497 142.476C92.3144 141.88 91.4726 141.021 90.8243 139.899C90.1761 138.777 89.8555 137.624 89.8624 136.44C89.8739 135.24 90.1841 134.133 90.7931 133.12C91.4021 132.107 92.2409 131.292 93.3093 130.676C94.3885 130.053 95.5139 129.735 96.6855 129.72C97.868 129.7 98.9769 129.988 100.012 130.584C101.041 131.17 101.88 132.024 102.528 133.146C103.176 134.268 103.5 135.426 103.5 136.62C103.493 137.804 103.188 138.908 102.585 139.931C101.976 140.944 101.137 141.759 100.069 142.376ZM98.3673 139.43C99.1767 138.963 99.6607 138.332 99.8193 137.535C99.9888 136.733 99.8179 135.889 99.3068 135.005C98.7833 134.098 98.1345 133.523 97.3604 133.279C96.591 133.019 95.8015 133.122 94.9921 133.589C94.172 134.062 93.6825 134.697 93.5239 135.493C93.359 136.279 93.5384 137.124 94.0619 138.031C94.5793 138.926 95.2227 139.504 95.9921 139.765C96.7554 140.015 97.5471 139.904 98.3673 139.43ZM115.448 121.247L118.379 131.661L114.817 133.716L110.376 128.942L112.243 135.201L108.698 137.246L101.154 129.494L104.311 127.673L108.809 133.104L106.675 126.309L110.074 124.348L114.953 129.581L112.47 122.965L115.448 121.247ZM122.245 117.218C123.292 116.614 124.326 116.485 125.346 116.831C126.36 117.167 127.21 117.928 127.896 119.115L130.953 124.406L127.78 126.237L124.966 121.366C124.667 120.848 124.298 120.521 123.86 120.386C123.416 120.239 122.967 120.297 122.513 120.558C122.039 120.832 121.754 121.198 121.658 121.656C121.557 122.103 121.656 122.585 121.955 123.103L124.769 127.974L121.596 129.804L116.351 120.726L119.524 118.896L120.272 120.19C120.316 119.618 120.503 119.071 120.835 118.549C121.16 118.016 121.63 117.573 122.245 117.218ZM138.687 113.751C138.831 113.999 138.958 114.257 139.069 114.524L133.063 117.989C133.382 118.466 133.732 118.761 134.113 118.872C134.498 118.966 134.88 118.904 135.257 118.686C135.786 118.381 136.027 117.926 135.979 117.32L139.362 115.368C139.584 116.075 139.633 116.795 139.509 117.528C139.39 118.243 139.104 118.919 138.651 119.555C138.198 120.19 137.599 120.722 136.855 121.152C135.959 121.669 135.051 121.941 134.132 121.968C133.223 121.989 132.366 121.764 131.562 121.293C130.768 120.816 130.097 120.103 129.549 119.153C129 118.204 128.721 117.272 128.71 116.357C128.694 115.432 128.922 114.581 129.394 113.805C129.877 113.023 130.572 112.37 131.479 111.847C132.375 111.33 133.274 111.056 134.176 111.024C135.079 110.993 135.924 111.21 136.711 111.676C137.493 112.132 138.151 112.824 138.687 113.751ZM134.991 114.826C134.767 114.438 134.463 114.211 134.079 114.144C133.69 114.067 133.3 114.141 132.912 114.365C132.523 114.589 132.267 114.881 132.144 115.239C132.014 115.588 132.03 115.989 132.191 116.442L134.991 114.826ZM139.524 113.398C138.981 112.46 138.675 111.543 138.604 110.649C138.545 109.748 138.702 108.938 139.078 108.218C139.453 107.498 140.003 106.929 140.726 106.512C141.308 106.176 141.898 106.001 142.495 105.988C143.096 105.957 143.647 106.078 144.15 106.349L141.756 102.207L144.945 100.367L151.864 112.342L148.675 114.182L147.945 112.919C147.94 113.483 147.783 114.02 147.473 114.53C147.163 115.039 146.7 115.472 146.085 115.826C145.362 116.244 144.595 116.435 143.783 116.4C142.982 116.358 142.206 116.087 141.456 115.585C140.71 115.066 140.066 114.337 139.524 113.398ZM146.064 109.625C145.727 109.042 145.3 108.677 144.783 108.53C144.277 108.376 143.792 108.433 143.328 108.7C142.853 108.974 142.556 109.369 142.436 109.884C142.31 110.388 142.419 110.937 142.761 111.53C143.098 112.113 143.522 112.486 144.035 112.651C144.541 112.805 145.032 112.745 145.506 112.471C145.97 112.203 146.262 111.812 146.382 111.297C146.513 110.776 146.406 110.218 146.064 109.625Z" fill="white"/>
<defs>
<filter id="filter0_d_2564_19186" x="53.4355" y="53.5547" width="126.636" height="129.95" filterUnits="userSpaceOnUse" color-interpolation-filters="sRGB">
<feFlood flood-opacity="0" result="BackgroundImageFix"/>
<feColorMatrix in="SourceAlpha" type="matrix" values="0 0 0 0 0 0 0 0 0 0 0 0 0 0 0 0 0 0 127 0" result="hardAlpha"/>
<feOffset dx="3.2414" dy="6.63013"/>
<feComposite in2="hardAlpha" operator="out"/>
<feColorMatrix type="matrix" values="0 0 0 0 0.0980392 0 0 0 0 0.0823529 0 0 0 0 0.290196 0 0 0 1 0"/>
<feBlend mode="normal" in2="BackgroundImageFix" result="effect1_dropShadow_2564_19186"/>
<feBlend mode="normal" in="SourceGraphic" in2="effect1_dropShadow_2564_19186" result="shape"/>
</filter>
</defs>
</svg>
