<svg width="24" height="23" viewBox="0 0 24 23" fill="none" xmlns="http://www.w3.org/2000/svg">
<path d="M15.9046 11.5212C15.9046 10.487 15.5388 9.60402 14.807 8.87223C14.0752 8.14046 13.1922 7.77458 12.158 7.77458C11.1237 7.77458 10.2407 8.14046 9.50895 8.87223C8.77718 9.60402 8.41129 10.487 8.41129 11.5212C8.41129 12.5555 8.77718 13.4385 9.50895 14.1703C10.2407 14.902 11.1237 15.2679 12.158 15.2679C13.1922 15.2679 14.0752 14.902 14.807 14.1703C15.5388 13.4385 15.9046 12.5555 15.9046 11.5212ZM17.9243 11.5212C17.9243 13.1214 17.3633 14.4825 16.2413 15.6045C15.1192 16.7266 13.7581 17.2876 12.158 17.2876C10.5578 17.2876 9.19674 16.7266 8.07468 15.6045C6.95263 14.4825 6.39162 13.1214 6.39162 11.5212C6.39162 9.9211 6.95263 8.56003 8.07468 7.43796C9.19674 6.31592 10.5578 5.75491 12.158 5.75491C13.7581 5.75491 15.1192 6.31592 16.2413 7.43796C17.3633 8.56003 17.9243 9.9211 17.9243 11.5212ZM19.5049 5.52073C19.5049 5.89149 19.3732 6.2086 19.1098 6.47204C18.8464 6.73546 18.5293 6.86719 18.1585 6.86719C17.7877 6.86719 17.4706 6.73546 17.2072 6.47204C16.9438 6.2086 16.812 5.89149 16.812 5.52073C16.812 5.14997 16.9438 4.83287 17.2072 4.56942C17.4706 4.30598 17.7877 4.17427 18.1585 4.17427C18.5293 4.17427 18.8464 4.30598 19.1098 4.56942C19.3732 4.83287 19.5049 5.14997 19.5049 5.52073ZM12.158 2.30094C12.0897 2.30094 11.7165 2.2985 11.0384 2.29362C10.3602 2.28874 9.84556 2.28874 9.49431 2.29362C9.14306 2.2985 8.67231 2.31313 8.08201 2.33752C7.4917 2.36192 6.98923 2.4107 6.57457 2.48388C6.15988 2.55706 5.81108 2.64731 5.52812 2.75463C5.04028 2.94978 4.61098 3.23272 4.2402 3.60348C3.86944 3.97426 3.5865 4.40356 3.39135 4.8914C3.28403 5.17436 3.19378 5.52316 3.1206 5.93785C3.04742 6.35251 2.99864 6.85499 2.97424 7.44529C2.94985 8.03559 2.93522 8.50634 2.93034 8.85759C2.92546 9.20884 2.92546 9.72352 2.93034 10.4016C2.93522 11.0797 2.93766 11.453 2.93766 11.5212C2.93766 11.5895 2.93522 11.9628 2.93034 12.6409C2.92546 13.319 2.92546 13.8337 2.93034 14.1849C2.93522 14.5362 2.94985 15.0069 2.97424 15.5972C2.99864 16.1875 3.04742 16.69 3.1206 17.1047C3.19378 17.5193 3.28403 17.8681 3.39135 18.1511C3.5865 18.6389 3.86944 19.0682 4.2402 19.439C4.61098 19.8098 5.04028 20.0927 5.52812 20.2879C5.81108 20.3952 6.15988 20.4854 6.57457 20.5586C6.98923 20.6318 7.4917 20.6806 8.08201 20.705C8.67231 20.7294 9.14306 20.744 9.49431 20.7489C9.84556 20.7538 10.3602 20.7538 11.0384 20.7489C11.7165 20.744 12.0897 20.7416 12.158 20.7416C12.2263 20.7416 12.5995 20.744 13.2776 20.7489C13.9557 20.7538 14.4704 20.7538 14.8216 20.7489C15.1729 20.744 15.6436 20.7294 16.2339 20.705C16.8242 20.6806 17.3267 20.6318 17.7414 20.5586C18.1561 20.4854 18.5049 20.3952 18.7878 20.2879C19.2757 20.0927 19.705 19.8098 20.0757 19.439C20.4465 19.0682 20.7294 18.6389 20.9246 18.1511C21.0319 17.8681 21.1222 17.5193 21.1953 17.1047C21.2685 16.69 21.3173 16.1875 21.3417 15.5972C21.3661 15.0069 21.3807 14.5362 21.3856 14.1849C21.3905 13.8337 21.3905 13.319 21.3856 12.6409C21.3807 11.9628 21.3783 11.5895 21.3783 11.5212C21.3783 11.453 21.3807 11.0797 21.3856 10.4016C21.3905 9.72352 21.3905 9.20884 21.3856 8.85759C21.3807 8.50634 21.3661 8.03559 21.3417 7.44529C21.3173 6.85499 21.2685 6.35251 21.1953 5.93785C21.1222 5.52316 21.0319 5.17436 20.9246 4.8914C20.7294 4.40356 20.4465 3.97426 20.0757 3.60348C19.705 3.23272 19.2757 2.94978 18.7878 2.75463C18.5049 2.64731 18.1561 2.55706 17.7414 2.48388C17.3267 2.4107 16.8242 2.36192 16.2339 2.33752C15.6436 2.31313 15.1729 2.2985 14.8216 2.29362C14.4704 2.28874 13.9557 2.28874 13.2776 2.29362C12.5995 2.2985 12.2263 2.30094 12.158 2.30094ZM23.398 11.5212C23.398 13.7556 23.3736 15.3021 23.3248 16.1607C23.2272 18.1901 22.6223 19.761 21.51 20.8733C20.3977 21.9856 18.8268 22.5905 16.7974 22.6881C15.9388 22.7369 14.3923 22.7612 12.158 22.7612C9.92364 22.7612 8.37715 22.7369 7.51855 22.6881C5.4891 22.5905 3.91824 21.9856 2.80594 20.8733C1.69365 19.761 1.08872 18.1901 0.991146 16.1607C0.942361 15.3021 0.917969 13.7556 0.917969 11.5212C0.917969 9.28692 0.942361 7.74043 0.991146 6.88183C1.08872 4.85238 1.69365 3.28152 2.80594 2.16922C3.91824 1.05693 5.4891 0.451997 7.51855 0.354427C8.37715 0.305642 9.92364 0.28125 12.158 0.28125C14.3923 0.28125 15.9388 0.305642 16.7974 0.354427C18.8268 0.451997 20.3977 1.05693 21.51 2.16922C22.6223 3.28152 23.2272 4.85238 23.3248 6.88183C23.3736 7.74043 23.398 9.28692 23.398 11.5212Z" fill="#352C24"/>
</svg>
