<svg width="319" height="84" viewBox="0 0 319 84" fill="none" xmlns="http://www.w3.org/2000/svg">
<mask id="path-1-outside-1_2738_17819" maskUnits="userSpaceOnUse" x="0" y="0" width="319" height="84" fill="black">
<rect fill="white" width="319" height="84"/>
<path d="M30.2839 81.09C22.4885 81.09 16.0874 79.2533 11.0806 75.58C6.0738 71.8433 3.38026 66.5233 3 59.62H22.8688C23.0589 61.9633 23.7561 63.6733 24.9602 64.75C26.1644 65.8267 27.7172 66.365 29.6185 66.365C31.3297 66.365 32.724 65.9533 33.8014 65.13C34.9422 64.2433 35.5126 63.04 35.5126 61.52C35.5126 59.5567 34.5936 58.0367 32.7556 56.96C30.9177 55.8833 27.939 54.68 23.8194 53.35C19.4464 51.8933 15.8973 50.5 13.1721 49.17C10.5102 47.7767 8.16525 45.7817 6.13718 43.185C4.17248 40.525 3.19013 37.0733 3.19013 32.83C3.19013 28.5233 4.26755 24.85 6.42238 21.81C8.5772 18.7067 11.5559 16.3633 15.3586 14.78C19.1612 13.1967 23.4709 12.405 28.2875 12.405C36.083 12.405 42.2939 14.2417 46.9205 17.915C51.6104 21.525 54.1138 26.6233 54.4307 33.21H34.1816C34.1183 31.1833 33.4845 29.6633 32.2803 28.65C31.1395 27.6367 29.6502 27.13 27.8122 27.13C26.4179 27.13 25.2771 27.5417 24.3898 28.365C23.5026 29.1883 23.0589 30.36 23.0589 31.88C23.0589 33.1467 23.5343 34.255 24.4849 35.205C25.4989 36.0917 26.7348 36.8833 28.1925 37.58C29.6502 38.2133 31.805 39.0367 34.657 40.05C38.9032 41.5067 42.389 42.9633 45.1142 44.42C47.9028 45.8133 50.2795 47.8083 52.2442 50.405C54.2722 52.9383 55.2863 56.1683 55.2863 60.095C55.2863 64.085 54.2722 67.6633 52.2442 70.83C50.2795 73.9967 47.3958 76.4983 43.5932 78.335C39.8539 80.1717 35.4175 81.09 30.2839 81.09ZM95.4153 64.56V80.425H87.3346C73.7085 80.425 66.8955 73.68 66.8955 60.19V42.615H60.3359V27.13H66.8955V14.21H85.6235V27.13H95.3202V42.615H85.6235V60.475C85.6235 61.9317 85.9404 62.9767 86.5741 63.61C87.2713 64.2433 88.4121 64.56 89.9965 64.56H95.4153ZM158.529 27.13V80.425H139.801V72.825C138.217 75.2317 136.03 77.195 133.242 78.715C130.453 80.1717 127.253 80.9 123.64 80.9C117.429 80.9 112.517 78.8733 108.905 74.82C105.356 70.7033 103.581 65.13 103.581 58.1V27.13H122.119V55.725C122.119 58.765 122.911 61.1717 124.496 62.945C126.144 64.655 128.298 65.51 130.96 65.51C133.686 65.51 135.84 64.655 137.425 62.945C139.009 61.1717 139.801 58.765 139.801 55.725V27.13H158.529ZM166.092 53.73C166.092 48.22 167.074 43.4067 169.039 39.29C171.067 35.1733 173.824 32.0067 177.309 29.79C180.795 27.5733 184.661 26.465 188.907 26.465C192.33 26.465 195.372 27.1933 198.034 28.65C200.759 30.0433 202.882 31.975 204.403 34.445V10.125H223.131V80.425H204.403V73.015C202.946 75.485 200.886 77.4483 198.224 78.905C195.562 80.3617 192.425 81.09 188.812 81.09C184.566 81.09 180.7 79.9817 177.214 77.765C173.792 75.5483 171.067 72.3817 169.039 68.265C167.074 64.085 166.092 59.24 166.092 53.73ZM204.498 53.73C204.498 50.31 203.548 47.6183 201.646 45.655C199.808 43.6917 197.527 42.71 194.802 42.71C192.013 42.71 189.7 43.6917 187.862 45.655C186.024 47.555 185.105 50.2467 185.105 53.73C185.105 57.15 186.024 59.8733 187.862 61.9C189.7 63.8633 192.013 64.845 194.802 64.845C197.527 64.845 199.808 63.8633 201.646 61.9C203.548 59.9367 204.498 57.2133 204.498 53.73ZM243.16 22.19C239.865 22.19 237.203 21.3033 235.175 19.53C233.21 17.6933 232.228 15.4133 232.228 12.69C232.228 9.90333 233.21 7.59167 235.175 5.755C237.203 3.91833 239.865 3 243.16 3C246.393 3 248.991 3.91833 250.956 5.755C252.984 7.59167 253.998 9.90333 253.998 12.69C253.998 15.4133 252.984 17.6933 250.956 19.53C248.991 21.3033 246.393 22.19 243.16 22.19ZM252.382 27.13V80.425H233.749V27.13H252.382ZM287.805 81.09C282.481 81.09 277.696 79.9817 273.45 77.765C269.267 75.5483 265.972 72.3817 263.563 68.265C261.155 64.1483 259.951 59.3033 259.951 53.73C259.951 48.22 261.155 43.4067 263.563 39.29C266.035 35.1733 269.362 32.0067 273.545 29.79C277.791 27.5733 282.576 26.465 287.9 26.465C293.224 26.465 297.977 27.5733 302.16 29.79C306.406 32.0067 309.734 35.1733 312.142 39.29C314.614 43.4067 315.849 48.22 315.849 53.73C315.849 59.24 314.614 64.085 312.142 68.265C309.734 72.3817 306.406 75.5483 302.16 77.765C297.914 79.9817 293.129 81.09 287.805 81.09ZM287.805 64.94C290.404 64.94 292.558 63.99 294.27 62.09C296.044 60.1267 296.931 57.34 296.931 53.73C296.931 50.12 296.044 47.365 294.27 45.465C292.558 43.565 290.435 42.615 287.9 42.615C285.365 42.615 283.242 43.565 281.531 45.465C279.819 47.365 278.964 50.12 278.964 53.73C278.964 57.4033 279.788 60.19 281.436 62.09C283.083 63.99 285.207 64.94 287.805 64.94Z"/>
</mask>
<path d="M30.2839 81.09C22.4885 81.09 16.0874 79.2533 11.0806 75.58C6.0738 71.8433 3.38026 66.5233 3 59.62H22.8688C23.0589 61.9633 23.7561 63.6733 24.9602 64.75C26.1644 65.8267 27.7172 66.365 29.6185 66.365C31.3297 66.365 32.724 65.9533 33.8014 65.13C34.9422 64.2433 35.5126 63.04 35.5126 61.52C35.5126 59.5567 34.5936 58.0367 32.7556 56.96C30.9177 55.8833 27.939 54.68 23.8194 53.35C19.4464 51.8933 15.8973 50.5 13.1721 49.17C10.5102 47.7767 8.16525 45.7817 6.13718 43.185C4.17248 40.525 3.19013 37.0733 3.19013 32.83C3.19013 28.5233 4.26755 24.85 6.42238 21.81C8.5772 18.7067 11.5559 16.3633 15.3586 14.78C19.1612 13.1967 23.4709 12.405 28.2875 12.405C36.083 12.405 42.2939 14.2417 46.9205 17.915C51.6104 21.525 54.1138 26.6233 54.4307 33.21H34.1816C34.1183 31.1833 33.4845 29.6633 32.2803 28.65C31.1395 27.6367 29.6502 27.13 27.8122 27.13C26.4179 27.13 25.2771 27.5417 24.3898 28.365C23.5026 29.1883 23.0589 30.36 23.0589 31.88C23.0589 33.1467 23.5343 34.255 24.4849 35.205C25.4989 36.0917 26.7348 36.8833 28.1925 37.58C29.6502 38.2133 31.805 39.0367 34.657 40.05C38.9032 41.5067 42.389 42.9633 45.1142 44.42C47.9028 45.8133 50.2795 47.8083 52.2442 50.405C54.2722 52.9383 55.2863 56.1683 55.2863 60.095C55.2863 64.085 54.2722 67.6633 52.2442 70.83C50.2795 73.9967 47.3958 76.4983 43.5932 78.335C39.8539 80.1717 35.4175 81.09 30.2839 81.09ZM95.4153 64.56V80.425H87.3346C73.7085 80.425 66.8955 73.68 66.8955 60.19V42.615H60.3359V27.13H66.8955V14.21H85.6235V27.13H95.3202V42.615H85.6235V60.475C85.6235 61.9317 85.9404 62.9767 86.5741 63.61C87.2713 64.2433 88.4121 64.56 89.9965 64.56H95.4153ZM158.529 27.13V80.425H139.801V72.825C138.217 75.2317 136.03 77.195 133.242 78.715C130.453 80.1717 127.253 80.9 123.64 80.9C117.429 80.9 112.517 78.8733 108.905 74.82C105.356 70.7033 103.581 65.13 103.581 58.1V27.13H122.119V55.725C122.119 58.765 122.911 61.1717 124.496 62.945C126.144 64.655 128.298 65.51 130.96 65.51C133.686 65.51 135.84 64.655 137.425 62.945C139.009 61.1717 139.801 58.765 139.801 55.725V27.13H158.529ZM166.092 53.73C166.092 48.22 167.074 43.4067 169.039 39.29C171.067 35.1733 173.824 32.0067 177.309 29.79C180.795 27.5733 184.661 26.465 188.907 26.465C192.33 26.465 195.372 27.1933 198.034 28.65C200.759 30.0433 202.882 31.975 204.403 34.445V10.125H223.131V80.425H204.403V73.015C202.946 75.485 200.886 77.4483 198.224 78.905C195.562 80.3617 192.425 81.09 188.812 81.09C184.566 81.09 180.7 79.9817 177.214 77.765C173.792 75.5483 171.067 72.3817 169.039 68.265C167.074 64.085 166.092 59.24 166.092 53.73ZM204.498 53.73C204.498 50.31 203.548 47.6183 201.646 45.655C199.808 43.6917 197.527 42.71 194.802 42.71C192.013 42.71 189.7 43.6917 187.862 45.655C186.024 47.555 185.105 50.2467 185.105 53.73C185.105 57.15 186.024 59.8733 187.862 61.9C189.7 63.8633 192.013 64.845 194.802 64.845C197.527 64.845 199.808 63.8633 201.646 61.9C203.548 59.9367 204.498 57.2133 204.498 53.73ZM243.16 22.19C239.865 22.19 237.203 21.3033 235.175 19.53C233.21 17.6933 232.228 15.4133 232.228 12.69C232.228 9.90333 233.21 7.59167 235.175 5.755C237.203 3.91833 239.865 3 243.16 3C246.393 3 248.991 3.91833 250.956 5.755C252.984 7.59167 253.998 9.90333 253.998 12.69C253.998 15.4133 252.984 17.6933 250.956 19.53C248.991 21.3033 246.393 22.19 243.16 22.19ZM252.382 27.13V80.425H233.749V27.13H252.382ZM287.805 81.09C282.481 81.09 277.696 79.9817 273.45 77.765C269.267 75.5483 265.972 72.3817 263.563 68.265C261.155 64.1483 259.951 59.3033 259.951 53.73C259.951 48.22 261.155 43.4067 263.563 39.29C266.035 35.1733 269.362 32.0067 273.545 29.79C277.791 27.5733 282.576 26.465 287.9 26.465C293.224 26.465 297.977 27.5733 302.16 29.79C306.406 32.0067 309.734 35.1733 312.142 39.29C314.614 43.4067 315.849 48.22 315.849 53.73C315.849 59.24 314.614 64.085 312.142 68.265C309.734 72.3817 306.406 75.5483 302.16 77.765C297.914 79.9817 293.129 81.09 287.805 81.09ZM287.805 64.94C290.404 64.94 292.558 63.99 294.27 62.09C296.044 60.1267 296.931 57.34 296.931 53.73C296.931 50.12 296.044 47.365 294.27 45.465C292.558 43.565 290.435 42.615 287.9 42.615C285.365 42.615 283.242 43.565 281.531 45.465C279.819 47.365 278.964 50.12 278.964 53.73C278.964 57.4033 279.788 60.19 281.436 62.09C283.083 63.99 285.207 64.94 287.805 64.94Z" stroke="white" stroke-width="5" mask="url(#path-1-outside-1_2738_17819)"/>
</svg>
