<svg width="28" height="28" viewBox="0 0 28 28" fill="none" xmlns="http://www.w3.org/2000/svg">
<g clip-path="url(#clip0_2585_24566)">
<path fill-rule="evenodd" clip-rule="evenodd" d="M14 0.000976562C6.27813 0.000976562 0 6.2791 0 14.001C0 21.7229 6.27813 28.001 14 28.001C21.7219 28.001 28 21.7229 28 14.001C28 6.2791 21.7219 0.000976562 14 0.000976562Z" fill="#4BAE4F"/>
<path d="M11.3039 20.4041C9.51562 18.6158 7.73828 16.8111 5.94453 15.0229C5.74766 14.826 5.74766 14.4979 5.94453 14.301L8.00625 12.2393C8.20312 12.0424 8.53125 12.0424 8.72813 12.2393L11.6758 15.1869L19.2555 7.60176C19.4578 7.40488 19.7805 7.40488 19.9828 7.60176L22.05 9.66895C22.2523 9.87129 22.2523 10.1939 22.05 10.3908L12.0258 20.4041C11.8289 20.6064 11.5062 20.6064 11.3039 20.4041Z" fill="white"/>
</g>
<defs>
<clipPath id="clip0_2585_24566">
<rect width="28" height="28" fill="white" transform="translate(0 0.000976562)"/>
</clipPath>
</defs>
</svg>
